<svg width="1018" height="319" viewBox="0 0 1018 319" fill="none" xmlns="http://www.w3.org/2000/svg">
<g clip-path="url(#clip0_3397_925)">
<path d="M704.85 134.31V38.0686L734.398 8.52068H801.514L831.062 38.0686V134.31L801.514 163.858H734.398L704.85 134.31ZM922.66 8.52068H964.027L801.514 304H760.147L922.66 8.52068ZM784.629 133.466L796.448 122.069V50.3099L784.629 38.9129H751.282L739.885 50.3099V122.069L751.282 133.466H784.629ZM891.846 274.452V178.21L921.394 148.662H988.51L1018.06 178.21V274.452L988.51 304H921.394L891.846 274.452ZM971.625 273.608L983.445 262.211V190.452L971.625 179.054H938.278L926.881 190.452V262.211L938.278 273.608H971.625Z" fill="#D4FE8A"/>
<path d="M185.006 263.055V228.442H225.529V249.969L244.524 268.542H326.414L345.409 249.969V164.703L317.55 192.562H221.73L180.785 151.617V49.4657L221.73 8.52068H344.987L385.932 49.4657V263.055L344.987 304H225.951L185.006 263.055ZM310.796 157.105L345.409 122.491V62.5512L326.414 43.9782H240.303L221.308 62.5512V138.532L240.303 157.105H310.796Z" fill="#D4FE8A"/>
<path d="M68.2015 50.732L2.77396 84.5011V47.3551L73.689 8.52068H108.724V304H68.2015V50.732Z" fill="#D4FE8A"/>
<path d="M450.273 263.055V225.065H490.796V249.969L509.369 268.542H593.791L612.364 249.969V171.456L593.791 153.306H454.494V8.52068H646.978V43.5561H494.173V117.848H611.52L652.887 159.215V263.055L611.942 304H491.218L450.273 263.055Z" fill="#D4FE8A"/>
</g>
<defs>
<clipPath id="clip0_3397_925">
<rect width="1018" height="319" fill="white"/>
</clipPath>
</defs>
</svg>
