<svg width="1007" height="319" viewBox="0 0 1007 319" fill="none" xmlns="http://www.w3.org/2000/svg">
<g clip-path="url(#clip0_3367_894)">
<path d="M797.548 266.055V231.442H838.071V252.969L857.066 271.542H938.956L957.951 252.969V167.703L930.092 195.562H834.272L793.327 154.617V52.4657L834.272 11.5207H957.529L998.474 52.4657V266.055L957.529 307H838.493L797.548 266.055ZM923.338 160.105L957.951 125.491V65.5512L938.956 46.9782H852.845L833.85 65.5512V141.532L852.845 160.105H923.338Z" fill="#D4FE8A"/>
<mask id="mask0_3367_894" style="mask-type:alpha" maskUnits="userSpaceOnUse" x="0" y="-1" width="263" height="116">
<rect y="-0.449097" width="262.013" height="115.03" fill="#D9D9D9"/>
</mask>
<g mask="url(#mask0_3367_894)">
<path d="M12.5649 58.5335V20.5433H53.0877V45.448L71.6607 64.021H156.083L174.656 45.448V-33.0651L156.083 -51.2159H16.786V-196.001H209.27V-160.965H56.4646V-86.6734H173.812L215.179 -45.3064V58.5335L174.234 99.4785H53.5099L12.5649 58.5335Z" fill="#D4FE8A"/>
</g>
<mask id="mask1_3367_894" style="mask-type:alpha" maskUnits="userSpaceOnUse" x="250" y="-1" width="263" height="321">
<rect x="250.297" y="-0.449097" width="262.013" height="319.528" fill="#D4FE8A"/>
</mask>
<g mask="url(#mask1_3367_894)">
<path d="M267.083 290.542V83.7068L311.405 39.3849H436.35L480.672 83.7068V290.542L436.35 334.864H311.405L267.083 290.542ZM417.777 299.407L440.149 277.035V97.2145L417.777 74.8425H329.978L307.606 97.2145V277.035L329.978 299.407H417.777Z" fill="#D4FE8A"/>
</g>
<mask id="mask2_3367_894" style="mask-type:alpha" maskUnits="userSpaceOnUse" x="521" y="-1" width="263" height="104">
<rect x="521.896" y="-0.449219" width="262.013" height="103.314" fill="#D9D9D9"/>
</mask>
<g mask="url(#mask2_3367_894)">
<path d="M530.239 32.971V-4.59706H570.762V19.8855L589.335 38.4585H674.602L693.175 19.8855V-38.7882L675.024 -56.9391H590.601V-92.3966H675.024L693.175 -110.547V-167.533L674.602 -186.106H591.868L573.295 -167.533V-143.05H532.772V-180.618L573.717 -221.563H692.753L733.698 -180.618V-98.7283L709.215 -74.6679L733.698 -50.1853V32.971L692.753 73.916H571.184L530.239 32.971Z" fill="#D4FE8A"/>
</g>
<mask id="mask3_3367_894" style="mask-type:alpha" maskUnits="userSpaceOnUse" x="0" y="93" width="263" height="227">
<rect y="93.2793" width="262.013" height="225.8" fill="#D4FE8A"/>
</mask>
<g mask="url(#mask3_3367_894)">
<path d="M10.0322 417.426L163.681 269.264V235.073L145.108 216.5H67.4396L48.8666 235.073V259.977H8.34373V221.987L49.2887 181.042H163.259L204.204 221.987V281.083L51.3993 427.556V441.486H205.893V476.521H10.0322V417.426Z" fill="#D4FE8A"/>
</g>
<mask id="mask4_3367_894" style="mask-type:alpha" maskUnits="userSpaceOnUse" x="521" y="41" width="263" height="279">
<rect x="521.896" y="41.0889" width="262.013" height="277.989" fill="#D4FE8A"/>
</mask>
<g mask="url(#mask4_3367_894)">
<path d="M531.928 373.756L685.577 225.594V191.403L667.004 172.83H589.335L570.762 191.403V216.307H530.239V178.317L571.184 137.372H685.155L726.1 178.317V237.413L573.295 383.886V397.816H727.788V432.852H531.928V373.756Z" fill="#D4FE8A"/>
</g>
</g>
<defs>
<clipPath id="clip0_3367_894">
<rect width="1007" height="319" fill="white"/>
</clipPath>
</defs>
</svg>
