<svg xmlns="http://www.w3.org/2000/svg" xmlns:xlink="http://www.w3.org/1999/xlink" width="661.716" height="272.551" viewBox="0 0 661.716 272.551">
  <defs>
    <clipPath id="{{section}}-clip-path">
      <path d="M645.6,766.031,999.111,560.6l41.49,23.954L687.094,789.986Z" transform="translate(-645.604 -560.595)" fill="none"/>
    </clipPath>
    <clipPath id="{{section}}-clip-path-2">
      <path d="M1036.5,764.911l279.634-162.506,41.49,23.954L1077.992,788.865Z" transform="translate(-1036.502 -602.405)" fill="none"/>
    </clipPath>
    <clipPath id="{{section}}-clip-path-3">
      <path d="M788.54,853.474l-.153-54.134,279.865-161.58.154,54.134Z" transform="translate(-788.386 -637.759)" fill="none"/>
    </clipPath>
    <clipPath id="{{section}}-clip-path-4">
      <path d="M1179.265,793.851l-.148-52.017L1526.6,541.216l.148,52.017Z" transform="translate(-1179.117 -541.216)" fill="#041ddb"/>
    </clipPath>
  </defs>
  <g transform="translate(-645.604 -541.216)">
    <g transform="translate(645.604 552.625)" style="isolation: isolate">
      <g class="line-1-container">
        <g style="isolation: isolate">
          <g clip-path="url(#{{section}}-clip-path)">
            <g class="line-1" transform="translate(11.355 3.022)" fill="#fff">
              <path d="M722.9,902.8l-10.207-5.893q-.757,4.154-6.09,7.253a21.316,21.316,0,0,1-10.878,2.91,21.592,21.592,0,0,1-10.978-2.948q-5.225-3.018-5.253-6.383t5.055-6.311a29.065,29.065,0,0,1,12.568-3.513l-10.215-5.9a32.31,32.31,0,0,0-12.883,4.309,23.188,23.188,0,0,0-6.82,5.63,9.927,9.927,0,0,0-2.305,6.194,10.337,10.337,0,0,0,2.375,6.31,23.8,23.8,0,0,0,7.01,5.742,39.625,39.625,0,0,0,9.944,4.047,42.339,42.339,0,0,0,10.835,1.316,41.314,41.314,0,0,0,10.694-1.322,38.513,38.513,0,0,0,9.757-3.964q6.182-3.592,7.389-7.481" transform="translate(-664.891 -695.813)" />
              <path d="M742.951,870.3q-5.225-3.016-5.965-6.233t3.357-5.6a16.689,16.689,0,0,1,9.709-2,24.849,24.849,0,0,1,10.846,3.4q5.238,3.024,5.906,6.277c.449,2.166-.7,4.041-3.423,5.625a16.316,16.316,0,0,1-9.643,1.967,25.142,25.142,0,0,1-10.787-3.439m28.481-16.551a39.392,39.392,0,0,0-9.676-3.93,45.639,45.639,0,0,0-10.71-1.506,41.108,41.108,0,0,0-10.519,1.113,34.588,34.588,0,0,0-9.406,3.721,19.368,19.368,0,0,0-6.3,5.407,9.314,9.314,0,0,0-1.861,6.083,11.2,11.2,0,0,0,2.643,6.194,23.7,23.7,0,0,0,6.816,5.591,38.876,38.876,0,0,0,9.642,3.911,45.713,45.713,0,0,0,10.676,1.5,42.556,42.556,0,0,0,10.528-1.079,33.594,33.594,0,0,0,9.348-3.649,19.023,19.023,0,0,0,6.226-5.4,10.2,10.2,0,0,0,1.986-6.194,11.211,11.211,0,0,0-2.61-6.184,23.36,23.36,0,0,0-6.782-5.572" transform="translate(-688.766 -681.948)"/>
              <path d="M854,821.972l-40.186-23.2-10.073,5.854L825.859,817.4l-37.536-3.813-9.747,5.664,40.186,23.2,10.073-5.854-23.492-13.563,40.2,3.852L854,821.972" transform="translate(-711.648 -661.575)"/>
              <path d="M908.893,783.088a21.984,21.984,0,0,0-10.156-2.929A38.332,38.332,0,0,0,886,782.141l-7.886,2.458a14.932,14.932,0,0,1-3.871.738,5.018,5.018,0,0,1-2.646-.666c-.909-.525-1.165-1.2-.724-2.035a7.845,7.845,0,0,1,3.113-2.686q6.37-3.7,16.084-4.717l-9.684-5.592a51.234,51.234,0,0,0-8.048,2.055,43.7,43.7,0,0,0-7.512,3.5,22.059,22.059,0,0,0-5.069,3.891,8.871,8.871,0,0,0-2.384,4.153q-.956,4.576,4.741,7.861a21.332,21.332,0,0,0,10.089,2.929,37.063,37.063,0,0,0,12.284-2.059l7.81-2.493a16.661,16.661,0,0,1,4.013-.743,5.393,5.393,0,0,1,2.772.738q3.218,1.858-2.964,5.446a34.259,34.259,0,0,1-7.723,3.153,58.26,58.26,0,0,1-9.274,1.87l9.685,5.592a43.066,43.066,0,0,0,8.275-2.041,45.95,45.95,0,0,0,8.064-3.663q7.41-4.307,8.6-8.788t-4.85-7.952" transform="translate(-744 -649.595)"/>
              <path d="M972.983,755.544l-9.1-5.251-18.266,10.615L938.68,756.9l16.7-9.706-8.827-5.1-16.7,9.706-6.285-3.629,18.266-10.615-9.037-5.217-28.539,16.585,40.186,23.2,28.54-16.585" transform="translate(-763.339 -634.254)"/>
              <path d="M980.743,716.185l6.5-3.78a11.16,11.16,0,0,1,5.275-1.622,9.228,9.228,0,0,1,4.964,1.288c1.573.908,2.317,1.86,2.239,2.871s-1.012,2.03-2.784,3.061l-6.5,3.78-9.693-5.6m54.892,4.42-23.759-2.871a6.021,6.021,0,0,0,1.333-6.01c-.716-2.011-2.538-3.877-5.509-5.592a26.525,26.525,0,0,0-14.185-3.512,29.63,29.63,0,0,0-7.2,1.151,30.175,30.175,0,0,0-6.8,2.891l-17.948,10.43,40.186,23.2,10.341-6.009-13.286-7.671,3.645-2.118,21.6,2.837,11.578-6.729" transform="translate(-786.91 -622.026)"/>
              <path d="M1058.661,654.552l-10.725,6.233,16.938,20.258-35.02-9.75-11.177,6.495,55.074,14.549,10.207-5.932-25.3-31.854" transform="translate(-810.399 -602.26)"/>
              <path d="M1143.1,664.022l-40.186-23.2-10.466,6.082,40.186,23.2,10.466-6.082" transform="translate(-840.738 -596.613)"/>
              <path d="M1195.811,623.332l-40.186-23.2-10.073,5.854,22.121,12.771-37.536-3.813-9.747,5.664,40.186,23.2,10.073-5.854-23.493-13.563,40.2,3.852,8.452-4.911" transform="translate(-852.232 -579.877)"/>
              <path d="M1265.867,583.561l-17.737-10.241-15.022,8.73,8.38,4.839,5.785-3.362,3.93,2.269q-.38,1.887-3.694,3.814a19.339,19.339,0,0,1-10.428,2.492,22.813,22.813,0,0,1-10.979-3.094,12.729,12.729,0,0,1-3.792-3.138,5.5,5.5,0,0,1-1.328-3.362,5.337,5.337,0,0,1,1.215-3.289,11.93,11.93,0,0,1,3.573-2.982,35.633,35.633,0,0,1,15.238-4.616l-10.206-5.892a39.868,39.868,0,0,0-7.589,1.759,38.043,38.043,0,0,0-7.128,3.158,24.958,24.958,0,0,0-7.171,5.873,10.481,10.481,0,0,0-2.547,6.364,10.359,10.359,0,0,0,2.292,6.408,22.759,22.759,0,0,0,6.977,5.8,39.864,39.864,0,0,0,9.709,3.989,42.98,42.98,0,0,0,21.362.131,38.309,38.309,0,0,0,9.832-4.008q8.778-5.1,9.328-11.64" transform="translate(-887.592 -565.728)"/>
            </g>
          </g>
        </g>
      </g>
    </g>
    <g transform="translate(875.731 577.239)" style="isolation: isolate">
      <g class="line-3-container">
        <g style="isolation: isolate">
          <g clip-path="url(#{{section}}-clip-path-2)">
            <g class="line-3" transform="translate(11.338 3.022)" fill="#fff">
              <path d="M1113.783,871.686l-10.207-5.893q-.757,4.154-6.09,7.253a21.272,21.272,0,0,1-10.878,2.91,21.557,21.557,0,0,1-10.978-2.948q-5.238-3.025-5.253-6.383t5.055-6.311A29.106,29.106,0,0,1,1088,856.8l-10.215-5.9a32.214,32.214,0,0,0-12.883,4.309,23.2,23.2,0,0,0-6.821,5.63,10.014,10.014,0,0,0-2.322,6.194,10.3,10.3,0,0,0,2.393,6.311,23.61,23.61,0,0,0,7.01,5.742,39.224,39.224,0,0,0,9.936,4.042,44.422,44.422,0,0,0,21.529,0,38.591,38.591,0,0,0,9.765-3.969q6.169-3.585,7.389-7.481" transform="translate(-1055.761 -707.631)" />
              <path d="M1156.507,823.46,1132.678,809.7l-10.4,6.043,22.844,13.19c2.836,1.637,4.371,3.23,4.623,4.78s-.73,2.968-2.937,4.25a13.011,13.011,0,0,1-7.4,1.754,18.4,18.4,0,0,1-8.268-2.662l-22.844-13.19-10.407,6.048,23.762,13.719a33.1,33.1,0,0,0,17.277,4.591,34.778,34.778,0,0,0,17.233-4.858q8.05-4.679,8.255-9.954t-7.915-9.954" transform="translate(-1073.09 -690.685)" />
              <path d="M1185.54,793.222l6.5-3.78a11.156,11.156,0,0,1,5.274-1.622,9.223,9.223,0,0,1,4.964,1.287c1.574.908,2.317,1.86,2.238,2.871s-1.011,2.031-2.783,3.061l-6.5,3.78-9.693-5.6m54.892,4.421-23.76-2.871a6.019,6.019,0,0,0,1.334-6.009q-1.061-3.025-5.508-5.592a26.524,26.524,0,0,0-14.185-3.512,29.643,29.643,0,0,0-7.2,1.151,30.18,30.18,0,0,0-6.8,2.89l-17.948,10.43,40.186,23.2,10.341-6.009-13.286-7.67,3.645-2.118,21.6,2.837,11.578-6.728" transform="translate(-1101.25 -678.325)" />
              <path d="M1276.166,763.635l-7.229-8.919,15.422,4.158-8.193,4.761m41.193-4.912-55.4-14.36-10.667,6.2,24.972,32.043,10.341-6.01-4.991-6.126,14.5-8.423,10.65,2.837,10.6-6.16" transform="translate(-1136.18 -663.812)" />
              <path d="M1335.1,702.4l-9.037-5.217-35.11,20.4,9.037,5.217,12.288-7.141,31.149,17.984,10.466-6.082-31.149-17.984,12.355-7.18" transform="translate(-1152.492 -644.409)" />
              <path d="M1408.527,705.824l-40.186-23.2-10.466,6.082,40.186,23.2,10.466-6.082" transform="translate(-1180.016 -638.419)" />
              <path d="M1461.241,665.134l-40.187-23.2-10.073,5.854,22.121,12.772-37.536-3.813-9.747,5.664,40.187,23.2,10.073-5.854-23.492-13.563,40.2,3.852,8.451-4.911" transform="translate(-1191.509 -621.684)" />
              <path d="M1531.288,625.371l-17.737-10.241-15.014,8.725,8.38,4.839,5.785-3.362,3.922,2.264c-.253,1.258-1.479,2.536-3.694,3.823a19.331,19.331,0,0,1-10.419,2.487,22.821,22.821,0,0,1-10.979-3.094,13.028,13.028,0,0,1-3.808-3.138,5.574,5.574,0,0,1-1.311-3.362,5.338,5.338,0,0,1,1.214-3.289,11.929,11.929,0,0,1,3.573-2.982,35.563,35.563,0,0,1,15.23-4.611l-10.206-5.892a39.557,39.557,0,0,0-7.58,1.754,37.5,37.5,0,0,0-7.128,3.158,24.959,24.959,0,0,0-7.171,5.873,10.481,10.481,0,0,0-2.548,6.364,10.242,10.242,0,0,0,2.292,6.407,22.767,22.767,0,0,0,6.977,5.8,39.865,39.865,0,0,0,9.709,3.989,42.974,42.974,0,0,0,21.362.131,38.309,38.309,0,0,0,9.832-4.007q8.778-5.1,9.319-11.635" transform="translate(-1226.87 -607.538)" />
            </g>
          </g>
        </g>
      </g>
    </g>
    <g transform="translate(729.662 598.052)" style="isolation: isolate">
      <g class="line-2-container">
        <g style="isolation: isolate">
          <g clip-path="url(#{{section}}-clip-path-3)">
            <g class="line-2" transform="translate(0.017 5.713)" fill="#fff">
              <path d="M823.744,886.392l-35.329,21.182.2,10.277,12.368-7.412.707,35.443,10.534-6.314-.707-35.443,12.435-7.46-.206-10.272" transform="translate(-788.415 -745.731)" />
              <path d="M892.332,844.761,881.8,851.075l.344,17.349-15.506,9.292-.344-17.349-10.534,6.314.905,45.72,10.534-6.314-.355-18.1,15.506-9.292.355,18.1,10.534-6.324-.9-45.711" transform="translate(-816.112 -728.609)" />
              <path d="M956.726,809.433,928,826.656l.9,45.721,28.724-17.223-.206-10.35-18.384,11.021-.157-7.889,16.811-10.083-.2-10.045-16.819,10.079-.138-7.154,18.384-11.021-.2-10.277" transform="translate(-845.825 -714.079)" />
              <path d="M1018.737,796.748l-.227-11.471,6.083-3.648.206-.121c1.732-1,3.045-1.283,3.946-.862.928.452,1.421,1.591,1.451,3.423a9.492,9.492,0,0,1-1.284,5.07,11.277,11.277,0,0,1-4.093,3.961l-6.083,3.648m7.226-26.1q-.226.13-.455.268l-17.6,10.549.9,45.721,10.4-6.236-.276-14.222,7.194-4.318a29.914,29.914,0,0,0,10.581-10.525,25.783,25.783,0,0,0,3.7-13.934q-.148-7.439-4.156-9.26-3.876-1.747-10.292,1.957" transform="translate(-878.689 -697.091)" />
              <path d="M1077.058,766.146l3.867-15.355,4.378,10.41-8.245,4.945m9.085-32.8-10.728,6.436-14.408,54.891,10.4-6.227,2.642-10.551,14.589-8.752,3.054,7.136,10.669-6.392-16.218-36.54" transform="translate(-900.528 -682.787)" />
              <path d="M1148.693,695.969q-.371.215-.751.442a34.085,34.085,0,0,0-5.9,4.469,32.119,32.119,0,0,0-4.763,5.607q-4.368,6.618-4.236,13.089c.069,3.63.969,6,2.683,7.128s4.411,1.2,8.049.224l6.123-1.637a4.781,4.781,0,0,1,2.688-.031c.507.25.778.868.8,1.864q.073,3.647-6.148,7.375-.178.107-.357.21a21.432,21.432,0,0,1-6.277,2.448,17.625,17.625,0,0,1-6.345.3l.217,11.021a15.343,15.343,0,0,0,5.973-.834,32.974,32.974,0,0,0,6.7-3q.272-.157.545-.32a37.613,37.613,0,0,0,11.869-10.891,22.3,22.3,0,0,0,4.278-13.258c-.077-3.519-.977-5.9-2.726-7.142s-4.487-1.389-8.219-.466l-6.131,1.564a4.283,4.283,0,0,1-2.613.065c-.506-.25-.778-.82-.789-1.714a5.015,5.015,0,0,1,1.356-3.262,14.508,14.508,0,0,1,3.876-3.187c.135-.081.269-.16.4-.237q6.192-3.575,11.853-2.519l-.217-11.022a19.019,19.019,0,0,0-5.872.921,30.958,30.958,0,0,0-6.075,2.792" transform="translate(-930.156 -665.886)" />
              <path d="M1222.274,647.463l-35.337,21.187.206,10.272,12.368-7.412.7,35.439,10.534-6.314-.7-35.448,12.427-7.446-.2-10.277" transform="translate(-952.322 -647.463)" />
              <path d="M1249.368,698.431l-.152.089a12.433,12.433,0,0,0-4.32,4.441,10.64,10.64,0,0,0-1.635,5.689,3.813,3.813,0,0,0,1.324,3.274,3.362,3.362,0,0,0,3.245.16l-4.737,11.51,6.479-3.886,3.473-8.339q2.4-5.873,2.334-9.23c-.048-2.238-.651-3.653-1.807-4.263-1.123-.6-2.528-.411-4.2.556" transform="translate(-975.417 -668.055)" />
            </g>
          </g>
        </g>
      </g>
    </g>
    <g transform="translate(959.691 541.216)" style="isolation: isolate">
      <g class="line-4-container">
        <g style="isolation: isolate">
          <g clip-path="url(#{{section}}-clip-path-4)">
            <g class="line-4" transform="translate(0.017 0.355)" fill="#041ddb">
              <path d="M1214.476,856.6l-35.329,21.017.164,10.3,12.368-7.354.573,35.511,10.534-6.266-.573-35.511,12.436-7.4-.173-10.292" transform="translate(-1179.147 -671.285)" />
              <path d="M1283.073,815.276l-10.534,6.266.277,17.388-15.506,9.224-.277-17.388-10.542,6.271.745,45.813,10.534-6.266-.287-18.137,15.507-9.224.287,18.138,10.534-6.266-.737-45.818" transform="translate(-1206.844 -654.288)"/>
              <path d="M1347.459,780.236l-28.725,17.088.745,45.813,28.725-17.088-.164-10.374-18.393,10.938-.123-7.909,16.819-10-.163-10.074-16.819,10-.122-7.154,18.393-10.948-.172-10.292" transform="translate(-1236.557 -639.876)"/>
              <path d="M1426.925,733.158l-28.27,16.816.745,45.813,10.4-6.188-.265-16.185,16.432-9.778-.172-10.147-16.424,9.773-.144-9.107,17.863-10.623-.164-10.374" transform="translate(-1269.427 -620.513)"/>
              <path d="M1489.231,693.283l-10.467,6.227.42,26.041a18.071,18.071,0,0,1-1.713,8.446,13.191,13.191,0,0,1-5.134,5.579l-.154.09q-3.284,1.9-5.12.525-1.875-1.416-1.948-6.265l-.42-26.041-10.475,6.232.439,27.085q.153,9.325,4.913,11.613,4.627,2.229,12.484-2.3c.15-.087.3-.176.455-.267a35.471,35.471,0,0,0,12.716-12.687,32.25,32.25,0,0,0,4.444-17.111l-.44-27.163" transform="translate(-1292.281 -604.114)"/>
              <path d="M1555.579,653.68,1520.249,674.7l.164,10.306,12.368-7.364.572,35.521,10.534-6.266-.573-35.521,12.427-7.4-.164-10.3" transform="translate(-1319.438 -587.825)"/>
              <path d="M1621.83,614.407l-10.476,6.232.428,26.037a17.962,17.962,0,0,1-1.721,8.44,13.154,13.154,0,0,1-5.125,5.574l-.156.091c-2.2,1.268-3.9,1.445-5.118.523q-1.876-1.4-1.948-6.255L1597.287,629l-10.467,6.227.439,27.086q.154,9.339,4.913,11.622,4.627,2.229,12.482-2.311c.151-.087.3-.177.457-.268a35.3,35.3,0,0,0,12.708-12.673,32.267,32.267,0,0,0,4.452-17.116l-.439-27.163" transform="translate(-1346.817 -571.673)"/>
              <path d="M1666.482,614.316l-.183-11.041,6.546-3.9.159-.093c1.706-.985,3.017-1.286,3.917-.895.937.4,1.412,1.49,1.442,3.283a9,9,0,0,1-1.309,4.921,11.335,11.335,0,0,1-4.035,3.83l-6.537,3.891m7.655-25.874c-.114.066-.23.134-.345.2l-18.056,10.744.737,45.818,10.408-6.193-.245-15.15,3.66-2.171,8.626,10.157,11.644-6.927-9.689-10.811a27.389,27.389,0,0,0,5.808-8.651,24.245,24.245,0,0,0,1.953-9.9q-.122-7.309-4.249-9.149a7.832,7.832,0,0,0-4.661-.243,19.271,19.271,0,0,0-5.59,2.275" transform="translate(-1375.161 -559.963)"/>
              <path d="M1748.245,541.818l-28.724,17.088.745,45.813,28.725-17.088-.164-10.374L1730.433,588.2l-.123-7.909,16.811-10.006-.155-10.07-16.819,10-.121-7.164,18.393-10.939-.173-10.292" transform="translate(-1401.395 -541.818)"/>
            </g>
          </g>
        </g>
      </g>
    </g>
  </g>
</svg>