<svg xmlns="http://www.w3.org/2000/svg" xmlns:xlink="http://www.w3.org/1999/xlink" width="899" height="907" viewBox="0 0 899 907">
  <g transform="translate(7058.339 -1683.143)">
    <g>
      <g>
        <g class="bg-map-white">
          <g transform="translate(-7058.761 1497.406)" opacity="0.564">
            <g>
              <path d="M582.727,402l-.986,1.747,1.44-.676.837-1.357-.281-.07Zm-3.608-36.472-.45,1.928.211.859.688-.489.442-.638.307-.789-.486-1.427Zm2.712,30.863,1.355,1.168.4.1.287-.466.24-.9-.793-1.217Zm224.149-64.2-1.323-2.927-1.325-2.933-.924-2.05-1.559-.722-.945-2.17-.962-2.222-.968-2.225-.966-2.225-.965-2.225-.968-2.228-.965-2.225-.965-2.228-.969-2.228-.965-2.231-.966-2.231-.965-2.228-.969-2.234-.965-2.231-.966-2.237-.966-2.234-.965-2.234-5.123.708-4.974.684-5.6.772-6.729.929-5.278.731-7.7,1.06-6.9.952-6.48.894-6.481.891-5.518.76-3.28.882-3.868,1.937-5.933,2.965-6.05,3.023-3.133,1.564-3.286,4.016-1.662,2.03-3,3.669-2.273,2.769-2.706,3.305-1.185,2.941-1.826,4.54-1.574,1.144-2.584,1.477-2.349,1.051-3.663-.151-2.092-2.79-2.212-2.959-1.112-1.188-.995-.064-3.681.373-4.432.454-5.228-.486-6.033-.562-5.652-.524-2.812-.4-3.707-1.922-.96-.384-.974-.087-4.4-.05-4.359-.047-4.371.609-4.187-.221-4.336.352-1.527.731-1.7-.041-1.059.649-.93.3-1.106-.553-1.354.122-1.992-.478-1.3-1.252-1.226-1.1-1.264-.609-1.422-.382-1.226-.009-1.571.673-.957.649-2.428,2.167-.1.772,1.1,1.3-.339.6-1.428.763-.436,2.044-.213,1.124-.211,2.676.635,2.114.848.778.041.906-.465,1.811-1.316.559-.959,1.721-.591.8-1.033.917-4.081,3.043.88,7.528-2.674,8.352,1.805,6.258-.018,1-.231,1.34-1.138-.617-.84-.722-.875,2.065,4.318,2.207.9,2.813.86,1.476.018.894-.53.772.2,1.011.541.976,1.618,4.811-.05.751-.272.833.84,3.119,1.059,3.037-.094,4.24,3.166,3.346,1.056,3.661,0,1.159-1.106,8.192,5.313,9.4.266,3.075,3.2-1,4.386,1.538,2.063,1.267,1.659.195,2.305-.681,3.25-.131,2.142-.536,5.658-3.247,3,1.174,2.937-.451,3.248-.693,1.55-2.691,1.182-1.313,5.012-1.509,3.066-3.655,2.692-2.312,5.725-1.22,6.185-.649,6.524.183,3.523-.379,2.738-.722,4.078-1.8,5.825-1.36,3.6-1.15,4.927-4.328,4.836-2.167,1.331-1.232,1.615-.775,6.281,1.11,3.736-.181,3.16-.888,1.627-.087,2.437-1.622,3.244-3.163,1.659-1.928.948-2.237,1.2-.958,5.392-3.037,4.336-1.867,7.806-2.333,5.688-.5,3.748-1.68,4.114-2.452,10.652-2.263,6.706-1.89,6.138-2.443,1.7-.935,1.463-1.348,1.794-.422,2.946-1.689,2.654-1.112,2.841-1.538.1-2.324-1.047-4.345,1.381-4.753,1.972-2.705,2.636-2.167,2.9-1.756,11-3.949-1.325-2.927Zm26.694,93.729-5.869.1-2.045.76-1.346-.265-2.721-1.546-2.259-.184-2.27,1.145-.591.664-.334.69-1.589,1.506,4.008,2.365,2.159,1.817,2.63.513,8.962-.911,3.1-1.887,3.107-.8.793-.879,1.334-.644Z" transform="translate(-119.888 342.513)" fill="none" stroke="#fff" stroke-linecap="round" stroke-linejoin="round" stroke-width="0.25"/>
              <path d="M559.868,434.524,559,432.148l-.426-.13-.7-.521-.895-2.236-.677-2.045-.42-.515-2.926-1.788L551.5,420.7l-1.632-.94-.886-4.191-.172-1.192.926-4.182-.09-.959-.978-.883-2.746-.9-2.227-1.724.288-.6.164-.624-1.171-.42-3.4-7.155L534.459,402l-3.778,3.75-.631.533-1.1.692-3.6.016-3.717-.44-3.423-2.279-3.474,1.765-2.2.557-1.313.206-3.1.286-4.344.946-1.97,1.186" transform="translate(-267.9 555.14)" fill="none" stroke="#fff" stroke-linecap="round" stroke-linejoin="round" stroke-width="0.25"/>
              <path d="M658.376,122.6l-.848-.063-.759,1.11.6,3.938,1.185,3.567.205-1.186-1.188-5.943Z" transform="translate(30.508 30.457)" fill="none" stroke="#fff" stroke-linecap="round" stroke-linejoin="round" stroke-width="0.25"/>
              <path d="M673.884,111.15l-2.073-.322-2.109.984-1.98.26-3.076-.689-1.021-.4-1.869-1.669-1.351-1.806-1.183-2.016-1.182,4.5-.859,4.573-1.421,3.569-1.116,3.8.234,4.585,1.315,4.239,2.042,3.614,1.454,2.007,1.542,1.516-1.82-3.087.771-2.352,3.3.227,3.273.528,2.524-.06,1.094.5.72.8-.633,1.995-.171,2.108.475,2.031,1.332.689,1.072.875.452,1.537-2.307.348-2.352-.079-1.847-.526-1.513-1.309-2.42,4.487-.017,2.17.712,2.074,1.019-1.315,1.385-.657,1.518.047,3.027.891,1.407.8,1.705,1.475,1.9.163.112,1.423.313,1.277,1.983,2.156,1.171,1.741.364,2.155-.253,3.087-.483,3.035-.253,2.695.257,2.748.049,3.028-.631,6-.035,2.987.53,6.476,1.091,6.4.356,1.748,6.055.277,2.361-.528,3.468-1.347,2.625-.816,1.325-.113,1.3-.635,1-.794,2.258-5.524,1.123-1.385,3.83-3.123,3.254-1.979,3.41-1.753,4.311-1.221,5.736.129,4.562.429,2.639-.02,1.257.125.944-.177.544-.362.592-2.421" transform="translate(26.416 -2.128)" fill="none" stroke="#fff" stroke-linecap="round" stroke-linejoin="round" stroke-width="0.25"/>
              <path d="M665.653,110.585l-2.319-.437-1.528-2.075" transform="translate(40.208 2.804)" fill="none" stroke="#fff" stroke-linecap="round" stroke-linejoin="round" stroke-width="0.25"/>
              <path d="M652.855,98.9l2.52,6.506,3.011,4.247,1.709,3.477.541.789.249-.251-.69-3.406,1.136-7.037" transform="translate(22.971 -14.739)" fill="none" stroke="#fff" stroke-linecap="round" stroke-linejoin="round" stroke-width="0.25"/>
              <path d="M671.983,142.779l-1.006-3.017-.968-1.172-.458-.141-.978-.375-.761.215-2.357,2.061-3.777,1.238-3.127.754-4.977.922-3.84.457-1.635.036-3.548-.411-3.125-.581-3.127.027-2.4.26-5.572,2.212-9.472,4.55-7.2,2.174-4.038.9-3.162.513-5.417.025-4.408-.35-3.052.038-1.7-.545-2.419-1.84-2.931-1.819-1.3-.423-1.706-.351-2.492-.2-6.221,2.659-1.935.723-2.132.544-4.294,1.624-1.9.869-2.385-.081-3.047-.232-2.646.082-1.765-1.236-.951-1.392-3.605-.852-2.575-.245-.659.618-.689,1.9-1.1,4.841-.2,1.213,2.268,4.8-.1.732-1.622.249-1.864.079-1.212.427-1.006.8-.608,4.146-2.155.762-1.023.867-1.055,2.559-.573.06-3.487-1.939-1.635-.161L529.7,174.01l-1.64,6.844,3.012,3.713.3,1.724.046,1.255.545,1.859-1.159,4.013-.046,2.738.25,2.364,1.68,5.453,3.814.014,2.456-.1.713-1.121,1.912.509,1.072,1.085-.968,1.139-1.361,1.308.079.336,1.016.108,1.726.709,1.066.825,1.758,5.15-1.086,2.117-1.695,1.885-.758.171-1.483.938-1.245,1.281-.436.811.1.757,1.759.949.05.383-.36.3-1.422-.207-1.833-.1h-1.083l-1.257.193-1.6,1.157-.716.76-.384.491-.569,1.575.639,1.079,1.2.611.17.313-.267.546-1.193.677-.9.831-.257.847-1,.814-.385,1.485-.314.967,0,1.266.475.694.648,1.381.4,1.374-.841,1.139.081,1.19.224,1,.685,1.171-1.235,2.107-1.208,1.932-.308,1.143,2.344.51,1.347,1.134,2.248,3.2,3.5.931,1.408.906,1.917,1.7,2.338.616,7.4,1.059,5.906-3.566,4.989-3.015,5.671-3.43,3.857-2.334,6.584-3.984,4.333-2.522,5.7-3.323,5.63-3.283,6.181-3.437,4.618-2.571,6.462-3.6,6.232-3.476,5.936-3.316L629.7,214.5l5.849-3.273L640.9,209.9l1.134-1.036,2.445-4.477,2.09-3.833.1-.889.009-5.44.366-6.4.7-3.424,1.2-3.029,1.108-2.213.115-2.074-.147-2.105-1.145-3.183-1.192-3.32.134-3.206.22-1.719.746-2.747,1.27-2.008,1.367-1.246,5.093-1.285,3.02-.763,4.047-3.568,2.4-2.117,3.346-3.362,2.462-2.476.2-.858Z" transform="translate(-217.349 60.171)" fill="none" stroke="#fff" stroke-linecap="round" stroke-linejoin="round" stroke-width="0.25" fill-rule="evenodd"/>
              <path d="M618.138,523.446l1.97-1.186,4.344-.946,3.1-.286,1.313-.206,2.2-.557,3.474-1.765,3.423,2.279,3.717.44,3.6-.016,1.1-.692.631-.533,3.778-3.75,5.117-5.078,4.382-4.3,4.437-4.359,5.667-5.511,5.2-5.064,4.5-4.377,4.013-3.905-.347-.407-1.921-1.518-1.8-1.991-1.091-2.2-1.054-1.806-.538-4.043-1.334-2.486-1.3-3.04-1.94-5.8-.842-2L670.371,457l-1.658-1.25L667,453.175l-4.475-2.264-1.722-1.773-2.971-3.062-.745-1.545-.213-1.54-.928-1.446-1.647-1.627-5.157-3.5-1.422-.422-1.848-.375-2.707-.348-3.63-.8-3.169-1.37-1.443-.973-.342-.671.3-1.13,1.15-1.932,2.181-4.575,1.507-3.157,1.021-.889,2.8-.227,2.967.094,2.171.236,3.062.033,3.673-.269,1.448-1.058,1.158-1.155.475-.8.158-2.046,0-1.641-.23-6.3-.14-3.857-.163-4.408.022-.882h-.029l-4.057-.016-.065-.028-.066-.063-.059-.106-.072-.142-.161-.618-.081-.962.137-1.664.457-1.98,1.4-2.78.072-.23.018-.13v-.15l-.131-.5-.163-.428-.08-.65.243-1.444.023-.449-.034-.576-.109-.364-.979-2.41-.324-.383-9.451-7.675-1.73-2.081-.185-.142-.232-.111-4.8-1.748-.234-.176.03-.257.15-.332.576-1.011.082-.267.081-.408-2.163-16.2.006-.319.1-.212.081-.131.286-.345.249-.357.285-.624.072-.236.3-2.9-.023-2.54,1.265-4.235.137-1.8-10.42-.128-.064.093-.008.112.028.126.014.136-.008.284-.083.526-.022.277.011.283.158,1.015.274.764.045.254.013.278-.034.527-14.5.065,5.742,6.363.068.129.1.347.041.253.109,2.239-.309,3.538.068,2.275.335,1.477,1.554,2.905-.1.544-.365.683-10.281,8.631-.286.408-1.432,3.6-1.36,2.092-.605.6-2.387,2.935-9.384,9.195-1.537.617-4.674.253-2.472.066-.282.07-.419.158-.257.238-.306.177-.3-.1-.348-.25-5.78-5.148L569.2,379.711l-.985.592-5.824,2.8-1.2.725-.666.513-.034,3.133-1.015,1.593-1.838,1.736-5.036,1.1-2.62.947-2.679,1.4-.437.353v0l-1.031.974-2.027,1.968-.219,1.53.329,1.365-17.362-.055-1.149-1.092-2.411-4.809-.109-.043-1.768.3-15.837-.565-2.263.505-4.525,1.991-2.281.328-2.342-.908-8.334-9.588-1.8-1.144-.655-.618-1.232-1.671-1.777-1-.6-.728-.19-1.023.053-2.1-.591-1.319-1.313-.306-11.194,2.224-1.6-.249-2.352.4-.808.392-.946,1.266-.192,1.307.03,1.322-.29,1.308L459.217,386l-3.191,3.252-.707,1.416.151,3.58-.209,1.807-.486.837-1.39,1.375-.5.793-.234,1.114-.077,2.354-.247,1.107-1.742,2.772-.411.977-.1,2-.281.608-5.057,1.58-1.892,1.011-1.159,1.556-.285.667,1.036.267.569.979-.893,3.2.62,2,1.812,1.689,1.836.716,1.758.413,6.125,1.041,2.545,1.173,3.358,3.751,4.217,3.408,1.025,1.808-.189,1.642-1.252,1.991.192.822" transform="translate(-384.231 440.911)" fill="none" stroke="#fff" stroke-linecap="round" stroke-linejoin="round" stroke-width="0.25" fill-rule="evenodd"/>
              <path d="M604.992,602.619l16.49-17.2,5.454-5.1,6.877-5.352,6.548-6.152,12.821-9.048,19.774-10.788,4.908-3.568,18.063-17.5,13.807-14.75,10.123-11.43,5.646-9.854,9.059-11.721,8.736-14.707.946-5.074,3.1-8.008,2.479-4.623,4.835-6.646,2.207-3.745,1.965-4.123,1.982-6.58,5.474-5.153,3.992-6.729.774-2.394,2.37-4.907,4.543-5.743,1.03-2.869,3.051-4.072.17-6.148.894-4.657.539-7.17.69-1.8,2.311-1.083,3.771-1,1.3.61,2.541.363.123-.788-.46-1.148-1.6-.512-2.243-1.221-.162.543.059,1.092-2.729,1-.685-.237.415-.593.939-.361.24-1.034.576-1.31.2-1.331-.4-9.168-.829-5.658,1.136-3.706,1.786-3.336.3-1.912.5-1.874-1.387-.248-8.708-3.1-3.412.873-2.349,2.64-1.355,2.093-7.774,4.336-10.213,1.714-5.539,2.366-7.119,1.57-2.7.271-.775.079-4.99-1.482-2.224.047-2.917.664-9.158,3.3-6.695.6-5.209-1.372-1.5.017-3.817,1.621-5.6,3.81-8.913,3.918-2.288.258-4.5-1.024L677.284,365l-4.536-.92-2.636.7-7.818,3.365-8.615,4.649-12.144.142-2.34-.908-2.643-1.723-6.666-5.1-4.837-5.485-4.146-6.8-4.26-3.354-1.89,2.933-2.417,3.745-2.747,4.261-.361.853-.945,1.245-1.159,1.25-1.019,1.29-2.259,3.613-.069.467.28.709,1.219,1.654,1.278,2.664.714,2.449.55,1.184,1.547,1.357,2.231,2.8,1.183,1.883,2.46,1.007.8,2.393,1.848,3.509,1.989,2.8,1.925,2.2,2.151.843.861.072,4.5,4.061,3.428,3.088.852.5,6.186,2.022,7.109,2.327,5.707,1.867,7.277,2.378,7.17,2.344,6.719,2.241,9.443,3.148,7.611,2.537,6,2,1.281.63h21.825l-5.382,5.164-6.084,5.835-6.4,6.132-4.116,3.944-6.535,6.261-5.43,5.2-5.591,5.69-5.06,5.143-6.577,7.122-4.258,4.608-6.672,7.222-4.2,4.535-.631.261-6-.343-5.831-.333-7.45-.428-.858.01-2.169.428-1.315.419-5.363,1.221-.986.316-4.458,1.945-4.546,2.291-2.394,1.754-1.855,2.552-.792,1.821-.831.8-1.419.7L597.2,507.88l-2.767.229-4.459,1.377-2.374,2.3-.686,1.16-2.685,3.805-3.218,4.562-5.93,8.4-4.514,4.419-3.41,3.34-.312.6.013,3.721.036,9.1.073,18.193.07,18.187" transform="translate(-142.651 444.354)" fill="none" stroke="#fff" stroke-linecap="round" stroke-linejoin="round" stroke-width="0.25" fill-rule="evenodd"/>
              <path d="M789.616,353.788l-5.264-3.259-1.087-1.511-.675.5-1.1.335-1.606-1.873-1.181-1.707-3.321-3.265-4.193-3.093-2.844-.517-1.481-.8-1.317-1.5-2.394-6.085-2.469-10.979.311-4.714-1.517-7.388-.115-6.168.865-3.644-1.2-3.949-.346-3.674-.343-1.96.208-2.754,1.46.591.868.863.128-.751-.1-.811-1.024-1.744-2.849-3.168-3.366-5.89-.967-4.127-.245-5.164-7.161,0h-35.8l-7.161,0h-7.161l-7.159,0H666.523l-7.159,0H652.2l-7.159,0H633.794l.7-2.014.43-1.432-.477-.991-1.4-.249-.911.314L630,265.459l-1.124.168H609.659l-8.335,0h-8.341l-8.337,0H567.973l-8.34,0H517.946l-8.339,0-8.337,0h-8.338l0,11.282,0,11.258,0,11.233,0,11.21-.068.041-.069.04-.065.04-.071.04-5.381,0-5.387,0-5.383,0-5.383,0v11.21l.008,9.994.008,9.977.009,9.96.008,9.944.008,9.928.007,9.913.007,9.9.01,9.882v3.275l-.274,1.3-.122.179-.419.219-5.19-.917-2.275-.023-3.186.71-4.682.369-3.018-.118-2.1,1.7-1.644,2.05.778,4.9-.179,1.618-.633,1.678-1.422,1.447-1.42,1.151-.847,1.011-1.055,2.214-.781,1.036.07,1.386-.251,1.459-.852.758-2.177.558-1.4.648-1.125,1.062-.757.765.4,1.02.552,1.388.312,2.182.218,1.276,1.071,1.039.651.745.226.911-.625.758-2.658,1.583-1.065.587-1.218.8-.468.3-1.942,1.5-.979,1.331-.476,1.108.025,1.528.99,2.285,1.078,1.942.416,1.461.244,1.6-.1,1.521-.557,1.322-.974,1.193-3.661,2.239-1.8,2.46-1.438,2.99-.362,1.629.4,1.082.759.918,1.09.467,1.585.136,2.63-.5,2.449-.326,2.595,1.074,1.356,2.5-.528,1.829.983,3.311.877,4-.065,1.346.378.5,1.627.259.363.937-.538,7.016.759,1.961,1.089,1.4,1.229.727,1.238.936.641.654,1.432.146,1.608,1.278.439,1.7-.111,1.642-.936,3.561-.759,2.389,1.543,2.715.734.951,6.362,6.415,1.232,1.525,3.15,4.659,1.929,3.144,2.211,4.515.216,2.452-.294,2.1-.439,5.952-.58,1.713-2.79,3.2-.12,1.443.573,1.2.851.492.521.6-.318,2.771,1,1.087,2.1.725,5.3.495,2.753.4,2.166.558.285-.667,1.159-1.556,1.892-1.011,5.057-1.58.281-.608.1-2,.411-.977,1.742-2.772.247-1.107.077-2.354.235-1.114.5-.793,1.39-1.375.486-.837.209-1.807-.151-3.58.707-1.416,3.191-3.252.852-1.447.29-1.308-.03-1.322.192-1.307.946-1.266.808-.392,2.352-.4,1.6.249,11.195-2.224,1.313.306.591,1.319-.053,2.1.19,1.023.6.728,1.777,1,1.232,1.671.655.618,1.8,1.144,8.333,9.588,2.342.908,2.281-.328,4.525-1.991,2.263-.505,15.837.565,1.768-.3.109.043,2.411,4.809,1.149,1.092,17.362.055-.329-1.365.219-1.53,2.027-1.968,1.031-.974v0l.437-.353,2.679-1.4,2.62-.947,5.036-1.1,1.838-1.736,1.015-1.593.034-3.133.666-.513,1.2-.725,5.824-2.8.985-.592,10.292,6.507,5.78,5.148.348.25.3.1.306-.177.257-.238.419-.158.282-.07,2.471-.066,4.674-.253,1.537-.617,9.384-9.2,2.387-2.935.606-.6,1.36-2.092,1.432-3.6.286-.408,10.281-8.631.365-.683.1-.544-1.554-2.905-.335-1.477-.068-2.275.309-3.538-.109-2.239-.041-.253-.1-.346-.068-.129-5.742-6.363,14.5-.065.034-.527-.013-.278-.045-.254-.274-.764-.158-1.015-.011-.283.022-.277.083-.526.008-.284-.014-.136-.028-.126.008-.112.064-.093,10.42.128-.137,1.8-1.265,4.235.023,2.54-.3,2.9-.072.236-.285.624-.249.357-.286.345-.081.131-.1.212-.006.319,2.163,16.2-.081.408-.082.267-.577,1.011-.15.332-.03.257.234.176,4.8,1.748.232.111.185.142,1.729,2.081,9.452,7.676.324.383.979,2.41.109.364.034.576-.023.449-.243,1.444.08.65.163.428.131.5v.15l-.018.13-.072.23-1.4,2.78-.457,1.98-.137,1.664.081.962.161.618.072.142.059.106.066.063.065.028,4.057.016h.029l.025-1.131.9-4.71.846-2.695.57-1.421,2.32-4.495.43-1.441.08-1.323-.856-6.033,1.49-2.847,1.91-2.821,1.67-1.2,1.395-.814.653.341,1.6,1.3,2.1,1.284.981-.285,1.443-1.121,1.072-1.184-.143-2.126.965-4.361-.183-2.513,1.03-3.129,1.13-4.4.5-2.783.645-1.494,3.059-3.074,2.626-4.348,1.678-3.177,3.2-5.188,1.618-1.895,1.316-.818,1.967-.523,3.644-.469,2.618-.443.386-.671.221-1.059.039-2.322.5-4,1.136-3.9,1.339-2.959.726-1.343.861-1.305.968-2.194,1.232-4.75-.069-3.222,1.755-5.91-.7-6.334-.469-4.237-.5-4.492-.466-4.238,2.075-2.608.963-2.473,2.471-8.055.99-1.6,1.941-4.318.271-1.248,1.918-5.448-.18-3.622-.387-3.663,1.047-2.168.938-1.737-.064-1.464.424-3.422.3-.852,1.146-.053,2.358.441,1.731-.344,2,0,1.541-.1.914-1.044,1.248-3.989.815-.8.622-.242,1.763-.74,1.511-1.162,1.233-.835.455-.167,1.3-.1,1.3-.492.6-.563,1.641-.449,1.606.253,1.083-.492.72-.319.818-.024.753-.463.3-.711.493-.452,1.256-1.038.575-.751.257-.757.254-.6.551-1.017,2.191-2.553,1.89-1.484Z" transform="translate(-417.588 295.077)" fill="none" stroke="#fff" stroke-linecap="round" stroke-linejoin="round" stroke-width="0.25" fill-rule="evenodd"/>
              <path d="M538.8,70l1.732,1.794,1.489,3.121,1.287,1.418,1.829,1.071,1.688.652,2.89.253,3.2-1,7.2,7.447,2.85,1.2,7.07,1.5,1.778.8,13.36,10.378,4.086,4.485,7.791,6.741,2.284,1.4.991-1.714,1.328-1.8,1.432-.439,4.193.713,3.855.811,2.817-.576,3.353,1.424,3.063,1.631,3.08,1.15,6,1.083,2.239,1.5,2.615,1.5,10.246.765.824-.236.752-.215,3.436-.546,3.042.1,3.208,1.818,2.056-.1,2.191-.277,2.825.972,2.217,1.082.188,1.1,1.941,1.593,5.648,2.425,4.581,1.369,1.424.965,3.482,1.59.353.5-.074.65-.992,1.191-.252,1.061.469.606,1.443.582,2.87.131,1.032-.76,2.139-.542,2.115-.976,2.833-1.307,3.85-1.182,1.541,0,1.482.36,1.035.658,1.732,2.431,1.733-3.406.447-.25,1.579.684,2.8.946,1.935.5,1.047.7,2.958,3.1,4.782-.155,2.023.472,1.085.512.485.6-.855,3.074-1.179,3.2.093.772,1.921,1.2,2.607,1.274,1.4,1.023.952.919,2.061.693,2.429.434,1.155.057,1.2.768,3.137,1.449.4.355,2.352.535.317,1.509.418.318.975-.178,1.622-.633,1.288.486,1.664,1.8,2.3,1.895,1.244,1.27.487.878,1.175.851,1.716,1,1.367,1.565,1.22,3.635,1.234.845,4.428,1.379,1.554.283,4.349.486,1.53-.348,2.237-3.133,2.017-3.227,1.882-.675,3.4-1.56,2.035-1.474.857-1.592,1.92-3.011,1.183-1.693-2.1-1.575-1.1-.491-.93-.765-1.761-3.3-1.626-2.623-3.239-4.507-5.626-6.79-1.148-.819-.917-.939-.407-3.413-1.62-2.427-2.311-1.672-.875-.855-.561-.928,1.084-4.832-.028-1.37-.475-2.923.418-3.377,1.287-4.631,1.307-3.2.407-2.084-1.831,1.323-2.178,7.4-.734-5.946-1.477-5.657-1.189-2.914L757.6,90.8l-2.34-1.843-2.161-2.17-2.356-1.169-3.551-.893-.7-.825-.3-1.378.195-1.53.854-2.559,1.875-1.648,2.537-1.719.573-1.15" transform="translate(-196.659 -70)" fill="none" stroke="#fff" stroke-linecap="round" stroke-linejoin="round" stroke-width="0.25"/>
              <path d="M658.375,253.045l-.885-3.144-.915-2.425-.2-1.442-.544-1.67.908-3.632.989-2.283-.637-2.8-3.361-2.513-2.767-3.289-3.365,1.683-2.293,2.292-2.166,5.947-.769,2.571L640.929,245l-.868,1.208-.181,1.048.5,5.109,1.514,6.646-.236.878-.688,1.4,1.118,2.518,1.586,1.941.823.486,1.239.2,1.54.013,1.848-.506,1.964-.47,2.8-.87.687-.532,2.3-5.114,1.167-1.7.481-2.025Z" transform="translate(-2.014 235.648)" fill="none" stroke="#fff" stroke-linecap="round" stroke-linejoin="round" stroke-width="0.25" fill-rule="evenodd"/>
              <path d="M522.467,200.944l-1.966,2.417-4.128,3.85.313.725.717,2,2.25-2.018.041-1.669,3.827-3.894-.032-.381Zm23.078-12.418.813-3.241-.448-3.789-1.466-.148-1.785-1.177-.345-1.019-.538-.349-1.273-.131-2.411-.518-2.8,1.782-1.188,2.941-.243,1.372-.951,2.886.339,1.774.161,2.292.237,1.878L533.4,194.2l-.535.6.161.428.477.157,1.533-.507,1.615.507,1.545.97.126.632-1.1.37-2.589,1.468-1.829,1.7-.474,1.57-1.232,3.34.167.687.6.4,4.222-.355,3.83-1.354,2.882-1.436.913.087.325-1.986.743-2.633,1.3-2.231-.6-5.259Z" transform="translate(-239.851 136.81)" fill="none" stroke="#fff" stroke-linecap="round" stroke-linejoin="round" stroke-width="0.25"/>
              <path d="M753.843,226.206l-6.686-.269-.765.111-2.513,1.055-4.3.758-1.182.426-1.588,1.2-1.148,1.469-.22,1.35-.224.283-2.474-.277-.806,1.175-4.785,1.757-.6.381-.708,1.4-.638,3.921-.575,3.524-.364.515-1.506,1.2-.15.41.209,1.358-.682,2.488-.54,6.88-.6,1.93-.458.369,3.858,1.108,3.585.159,3.962-.553,1.368-1.18,1.014-.42,1.094.633,1.454,1.438,1.656-.405,1.169-1.031,2.787-1.322,2.015-.232,7.645.924,3.383-.7,2.525.63,4.488.385" transform="translate(153.306 228.182)" fill="none" stroke="#fff" stroke-linecap="round" stroke-linejoin="round" stroke-width="0.25" fill-rule="evenodd"/>
              <path d="M740.4,207.836l-10.466-3.194-6.482-1.98-8.317-2.583,4.164,4.616,2.576,2.85,3.627,4.015.461.961-.034,1.576,3.725,6.1,1.313,3.178,1.186,1.864,2.945,2.911,2.878,2.844,3.124,1.3,2.13.286,4.854,1.5,1.766,1.192" transform="translate(142.913 178.735)" fill="none" stroke="#fff" stroke-linecap="round" stroke-linejoin="round" stroke-width="0.25" fill-rule="evenodd"/>
              <path d="M741.9,252.544l-.389.853-.129,1.232.647.1.91-.614.129-.993-.225-.513Zm-1.46-17.167.111,2.365-.4,2.236-.047,2.365-.161,1.281.851,1.054,1.439.451.632-.055.421-.53.2-1.354.483-.984.966-1.214.936-7.033.029-2.3.261-2.755-.363-.556-.752-.119-.7.987-.892,1.817-1.685.358-.679-.218-.717.513-1.834,3.34.787-.125Zm79.79,81.1-2.788-.845-3.5-.734-2.308-1.873-2.586-3.014-2.537-4.063-3.6-3.614L801.9,299.96l-1.568-2.269-1.773-1.444-1.249-2.732-4.26-2.886-1.7-.049-2.335.629-1.5-.131-4.456-2.117-6.445-.973-4.667-1.016-8.543-2.726-2.112-1.325-4.6-3.882-3.019-4.223-2.914-3.113-3.291-5.647-2.224-6.043-.764.137-.857.964-1,1.488-1.381.766-1.094.871-1.047,1.075-.93.227-1.211-1.366-.831-1.395.2-.3.582-.1.225-.719-.351-1.048-.819-.39-1.033-.035-.983.469-1.044.923-.594.993-.088,1.992.275,2.245-.009,1.086-.574,1.354-.2,1.989.407,1.538.374.917.038.775-.98,2.455.849.457,2.815.175.822,1.66.565,1.136-.152.679-1.99.5-2.51.556-1.8-.16-3.245.748-1.735,1.15.509.719.6.553.269,1.52-.506,2.158-.922,2.094L724,293.481l-1.322,3-1.811,4.5-1.536,3.535-.17,2.545.041,1.663-.179,3.32,1.6,2.571,1.325,2.135,1.829,2.935,1.943,3.11,1.855,2.976,1.378,2.213-.731,2.3-.8,2.507-.8,2.5-.8,2.507-.8,2.5-.8,2.5-.8,2.5-.8,2.5-.8,2.5-.8,2.5-.8,2.5-.8,2.5-.8,2.5-.8,2.493-.8,2.49-.8,2.49-.8,2.49-.963,3-2.32.8L708.4,375.34l-3.751,1.287-3.757,1.287-3.754,1.287-3.757,1.287-3.754,1.287-3.754,1.287-3.753,1.284-3.754,1.287-3.756,1.284-3.757,1.287L667.1,389.49l-3.754,1.284-3.754,1.284-3.754,1.281-3.757,1.284L649,395.678l.965,2.234.965,2.234.965,2.237.965,2.231.969,2.234.965,2.228.966,2.231.966,2.231.968,2.228.965,2.228.965,2.225.968,2.228.965,2.225.966,2.225.968,2.225.962,2.222.945,2.17,1.559.722.924,2.05,1.325,2.933,1.323,2.927,1.322,2.927L673.185,448l4.628-1.663,6.814-.812,3.613-2.129,3.906-1.377,2.484-1.948,6.738-.626,4.137.055,2.142.5,2.341.981,6.378-1.651,2.393-2.638,2.212-3.629.448-1.351-.31-1.439-.945-1.3.378-1.8,4.883-5.74,2.94-.955,8.376-1.095,5.951-.347,2.469-.827,3.651-3.972,2.276-9.409,3.73-3.713,2.864-1.663,4.786-1.674,5.486-.92,5.41-.315,1.369-.437,1.6-.888-.465-2.886-.576-2.406-.067-4.01-1-3.917-.023-1.6.591-2.831,1.331-3.372.907-3.666.395-2.842,1.864-2.237,3.4-5.108,1.451-.428,1.65-.221-.293,2.082L785,363.627l1.244.643,1.8.192,2.738-.448,1.311-2.187,3.408-6.832,4.479-6.9,3.777-3.978,5.146-3.308,1.463-1.436,3.189-6.416,2.943-3.83.62-2.321,2.6-3.768.533-1.937.286-2.618Zm-22.6,45.518-3.2,3.585-.006,2.848.395.16,1.375-.341,1.1-1.083,1.369-3.533,2.525-2.076-1.448-3.7Z" transform="translate(15.556 232.561)" fill="none" stroke="#fff" stroke-linecap="round" stroke-linejoin="round" stroke-width="0.25"/>
              <path d="M553.628,166.306l-1.066-.825-1.726-.709-1.016-.108-.079-.336,1.361-1.308.968-1.139L551,160.8l-1.912-.509-.713,1.121-2.456.1L542.1,161.5l.035,2-1.234,1.321-2.555,1.365-3.415,4.614-.787,5.263-2.2,3.708-3.823,9.135-1.841,2.685-1.044,3.237-1.058,2.394-1.014,1.844,2.5-.2,1.867.3,2.234.094,1.789-1.06.859-3.168,1.02-.509.516.747.531-.834,2.34-1.393,1.158-.9,1.162-1.112.62-.39,1-.814.257-.847.9-.831,1.193-.677.267-.546-.17-.313L542,186l-.64-1.079.569-1.575.384-.491.716-.76,1.6-1.157,1.257-.193h1.083l1.833.1,1.422.207.36-.3-.05-.383-1.759-.949-.1-.757.436-.811,1.245-1.281,1.483-.938.758-.171,1.695-1.885,1.087-2.117Z" transform="translate(-226.771 102.647)" fill="none" stroke="#fff" stroke-linecap="round" stroke-linejoin="round" stroke-width="0.25" fill-rule="evenodd"/>
              <path d="M648.93,232.7l-.4-1.412-.7-1.68-1.887-3.241-1.507-1.838-1.823-5.446-.3-1.526-.764-1.884-1.164-.711-1.369.446-1.963.02-2.677-.644.055-.562,2.013-1.663,3.321-3.055,1.718.454.9.434,1.179.157-.161-1.077-1.281-2.3-1.565-2.842-.7-2.6.111-.874-4.906-2.222-1.773-.448-.632-.041-2.815.017-4,.4-2.361.906-1.635.958-.741.938-.269.507-1.276,2.767-1.475,3.55-1.53,3.2-2.981,4.482-1.65,2.071-3.54,3.847,4.219.51,5.617.681,3.417.46,6.425.859,1.922,3.57.7,2.5.652,2.435,1.925,2.225,4.377-.055,3.88-.049,4.781-.07,3.792-.055Zm-5.392-24.343.81,1.273.843.224,1.246-.527,1.416-1.666.155-.6.02-1.479-2.633-3.634-.936-1.008-.57.457-.43,1.488-.409.245-.146.381.026.507L642.2,205.2Z" transform="translate(-62.679 175.027)" fill="none" stroke="#fff" stroke-linecap="round" stroke-linejoin="round" stroke-width="0.25"/>
              <path d="M667.429,494.556l-.07-18.187-.073-18.193-.036-9.1-.013-3.721.312-.6,3.41-3.34L675.473,437l5.93-8.4,3.219-4.562,2.684-3.805-3.192-.03-5.581.342-2.391.369-1.166.067-2.14-.01-1.756-.421-1.161-.626-1.449-1.417-3.233-2.872-2.345-1.788-5.162,2.063-4.642,2.051-6.588,2.913-3.753,2.086-1.131,2.1-2.9,3.811-2.59,2.347-.969.283-5.87-.49-2.121-.478-3.5-.426-4.693-.83-3.159-.888-3.414-.1-4.939-.307-3.037-.645-3.082-2.115-3.973-2.548-4.089-2.622-4.212-2.7-4.973-3.106-5.435-3.394-1.252-.343-.538-.06-5.9-.153-6.136-.162-4.147-.107-1.308-.4-.945-.772-1.285-2.508-1.62-1.791-1.8-2.279-.151-3.082.505-3.355.458-1.11-.259-1.108.065-1.524-1.013-1.415-6.032-1.627-.973.126-1.007.609-1.149.439-.822-.416-.5-.605-.017-.993.1-.744-4.013,3.905-4.5,4.377-5.2,5.064-5.667,5.511-4.437,4.359-4.382,4.3,3.4,7.155,1.171.42-.164.624-.288.6,2.227,1.724,2.746.9.978.883.09.959-.926,4.182.172,1.192.886,4.191,1.632.94,1.453,4.217,2.926,1.788.419.515.677,2.045.895,2.236.7.521.426.13.864,2.376" transform="translate(-243.04 537.073)" fill="none" stroke="#fff" stroke-linecap="round" stroke-linejoin="round" stroke-width="0.25"/>
              <path d="M615.763,195.853l-2.345.475-2.152.615-1.3-4.016,1.662-.5-1.536-5.241-1.584-5.4-1.523-5.226-1.56-5.356-5.63,3.283-5.7,3.323-4.333,2.522-6.584,3.984-3.857,2.334-5.671,3.43-4.989,3.015-5.907,3.566-7.4-1.059-2.337-.616-1.917-1.7-1.408-.906-3.5-.931-2.248-3.2-1.348-1.134-2.344-.51-1.154.144-2.689,1.13-.365.338-.473.654-.085.506-.382,5.4.448,3.79-.813,3.24-.073,2.835.6,5.257-1.3,2.232-.742,2.632-.324,1.986-.606,3.677.014.013-.5,2.252.2.384.645,1.957-1.227,3.578-1.373,2.908-.486,1.38-1.337,3.063-1.366,3.555-.729,2.446.164.869-.34,4.484.2,1.27-1.6,3.88-.323,1.915-.643,2.6-1.1,5.482.192,1.665-.686,3.09,4.648.768,3.828.634,5.59.923,5.786.958,3.384.561,1.157-.237,4.679-3.65,4.218-3.3,2.526-4.038,2.446-3.912,1.12-.813,3.749-.734,5.944-1.166,5.89-1.155.469-.393,1.372-3.147,1.746-4,.355-.419.433-.409,4.216-2.241,2.559-1.363-3.648-4.023-3.437-3.8-3.852-4.259-3.263-3.316-4.894-4.972-3.2-3.259,5.609-1.545,6.063-1.67,6.12-1.685,7.368-2.031,5.764-1.589,8.6-2.374,4.206-1.162.758-.3,3.237-2.809,3.217-2.867Z" transform="translate(-229.038 123.526)" fill="none" stroke="#fff" stroke-linecap="round" stroke-linejoin="round" stroke-width="0.25" fill-rule="evenodd"/>
              <path d="M690.754,223.534l-3.645,1.71-3.262-.879-.223.389.81,1.714-.48,1.05-5.038,2.368-4.033,1.44-1.1-.223-.031.426.359,1.08.631.16,1.818.061,2.608-.8,2.867-1.586,1.586-.154,2.193-.889,1.013-.035,1.313.723,3.069-2.322,2.032-2.787,2-.721-1.429-1.19Z" transform="translate(63.211 222.701)" fill="none" stroke="#fff" stroke-linecap="round" stroke-linejoin="round" stroke-width="0.25"/>
              <path d="M858.131,156.608l-.592,2.421-.544.362-.944.177-1.257-.125-2.639.02-4.562-.429-5.736-.129-4.311,1.221-3.41,1.753-3.254,1.979-3.83,3.123-1.123,1.385-2.258,5.524-1,.794-1.3.635-1.325.113-2.625.816-3.468,1.347-2.36.528-6.055-.277.825,4.039,1.424,5.711.145,1.274-.166,1.285-1.007.78-1.394.14-3-.143-1.948-.863,3.23-.7,1.919-1.222h-3.224l-8.59,1.532-25.841,6.139-9.344.179-14.043-3.181-4.171-1.681-8.6-5.064-4.263-3.376-2.7-4.752-.823-1.021-1-.665-3.269-.943-5.537-.89-5.607-.4-2.131-.583-4.392-2.016-1.97-1.677-1.431-2.718-1.21-2.859-.76-3.137-.519-3.229-.67-6.263-.041-1.082-.621-.046-4.469.971-.936-.312-3.825-4.415-.788-.49-1.652-.2-.966-.728-.788-1.185-.447-.882-3.961-2.4-.585-.877-.082-.772.583-.7.671-.587,1.93-.6,2.258-.515.722-.372.372-.639-.024-1.024-.369-1.011-3.244-1.838-.356-.79-.1-.971.184-1.015.506-.793,2.644-1.083,1.418-1.12-.882-1.252-2.852-2.854-3.387-3.141-2.261-.028-2.606.927-4.17,2.678-2.306,1.145-3,1.894-3.277,2.107-2.683,2.235-1.67,1.844-2.976.806-1.513,1.546-4.986,4.634-1.4-.058-3.773-.152-3.222,1.1-1.215-.221-4.2-.761-7.571-1.642-2.08-.847-1.974-2.27-1.172-1.1-1.737-1.408-1.426-.532-1.078-.98-.614-1.455-.9-1.3-1.559-1.541-3.536-5.229-.458-.544-.765-.016-1.247-.781-3.009-2.214-1.536.952-1.326,1.644-1.454,6.223-1.176.663-2.074-.018-2.54-.215-1.748.312-.452.395.231.67.517,1.021.366,1.291.1,1.058.922.955,1.238.908.056.931-.19,1.314-.285,1-.312.567.574,1.518,1.345,1.8.856.688-.319,3.42.505,1.515.386,2.091-.154,3.471.168.854.461.29,1.225.13,1.2.322.417.567-.007.415-1.5,1.59-.178,1.128-.52,1.59-.425.935-1.342,1.77-.852,1.8-.383,1.485.254.7,2.471.211,1.343,1.067,3.568,2.12.626.859-.974,1.307.018.547.461.693.217,1.211-.088,1.346.019,1.775.656.292,2.423,1.664,1.724,1.665.058.515-.84,1.315.184,1.515-.034.348.006.185.72,1.772,1.8,6.583,1.023.831,1.171.7.824.976.321.982-.1,1.523.038,1.773.481,1.351.669,1.031.625.514.934.047,1.119.254.755,1.02,2.4,7.457.234.971,1.006.31,1.661-.142,1.7.775,1.819,1.205,1.711,2.263,1.156.366,3.6-.334,4.935.366,2.311,1.167-.238.718-1.779.807-3.134.942-.923,1.6-.523,2.067.094,1.166.77,1.279,2.214,2.536.123.918.393,1.278.412.873-.456,1.695-2.008,1.165-2.638,1.267-5.3,5.636-.394,1.215.031,3.329-.525.949-1.673-.017-1.31-.172-.066,1.165-.838,1.552-.475,1.349,1.948,3.182L622.83,255l-.309,1.535-1.8,2.642-1.07,1.781.26.4,1.4.7,4.375,5.8L627.1,269.9l1.846-.533.691.035.544.33.334.685v.871l-.468,1.3,2.353.531.847,1.317,2.75,4.507-.1,1.335-1.318,2.126-.006,1.409.276,1.264.43.44,4.047.179,1.72.507,4.21,2.3,4.782,3.519,3.917,2.883,3.335,2.451,3.575-.179.974.445.905.765,1.024,2.012,2.045,4.549,1.738,1.509,2.686,3.636,2.519,3.4-1.661,4.622-1.624,4.8v9.5l3.424.142,3.8.159.03,3.957.031,3.977.033,4.533,1.117.19,1.778.969.761,1.468.955.8,1.149.131,1.139.721,1.125,1.31.41.993-.3.675.24,1.191.786,1.706.958.8,1.484.982,1.07-.3,1.645-1.261,3.525-.17.822-.638,1.071-1.385-.228-2.858-.382-2.044.558-1.652,2.626-1.264-.769-1.331,2.8-.069,2.056.881.5,1.421-1.241.881-2.056-.745-1.029.226-1.028.553.573.96.57.629,8.2,4.183,2.726,2.4,9.346-4.273,1.931.256,1.251,3.565.873,3,1.337,1.144,3.422,4.582,3.418,3.1,2.314,3.02.4,1.891-.477,3.009.635,1.545,2.626.686,1.751,1.29v1.371l-.715,1.8.523,1.355,3.366,2.07.891,1.315.7,5.024.754,1.8,3.224,5.068.062,2.048,5.23,5.178,1.539,1.071,1.687.45,3.834-.077,4.119.557,3.517,2.5,6.2,2.353,2.767,2.873.776,2.363,1.165,1.6,6.35,4.225,7.838,3.2,2.473,1.424,1.138,2.126,4.334,2.931,2.55.415,5.386-.573,3.878.83,6,2.494,2.681,1.861,2.5.089,2.979-1.2,5.648-3.915,3.046-1.406,2.834.357,2.063-1.379,1.594-2.375,1.28-1.055,6.347-1.4,3.862-2.455,3.63-1.106,1.566-.224,8.12,1.689,1.849.877,2.13,2.218,1.565,2.072,1.175,2.435.784,2.8.706,7.157,2.119,4.924.091,2.814,1.21,2.736,1.607,2.942,8.685,1.539,1.389,1.659,3.065-.89,1.872,1.173,3.942,1.134,2.43.249,4.727-.267,5.828.872,5.417,3.168,3.953-.241,4.993-1.24,3.492,1.8,4.417.054,1.717.9,2.786-.514,8.2,1.671,2.408-2.891,1.679.543.6,1.929,1.065,1.1,9.705,2.265,2.933.964,3.694.919,1.706-1.187.932-.962,1.2-.159.6-1.93.54-6.881.682-2.488-.209-1.358.15-.41,1.506-1.2.364-.515.575-3.524.638-3.921.708-1.4.6-.381,4.785-1.756.806-1.175,2.474.277.224-.283.22-1.35,1.148-1.469,1.588-1.2,1.182-.426,4.3-.758,2.513-1.055.765-.111,6.686.269" transform="translate(-98.711 19.242)" fill="none" stroke="#fff" stroke-linecap="round" stroke-linejoin="round" stroke-width="0.25"/>
              <path d="M726.923,199.059l-5.145-.7-5.6-.766-.729-.286-.636-3.956.277-1.77-.366-3.42.053-2.635.815-4.342" transform="translate(142.11 142.597)" fill="none" stroke="#fff" stroke-linecap="round" stroke-linejoin="round" stroke-width="0.25"/>
              <path d="M749.853,250.437l-1.766-1.192-4.854-1.5-2.13-.286-3.124-1.3L735.1,243.31l-2.945-2.911-1.186-1.864-1.313-3.178-3.725-6.1.034-1.576-.461-.961-3.627-4.015-2.576-2.85-4.164-4.616.542-.608,5.149-5.778,4.966-5.58,4.971-5.6,4.906-5.532" transform="translate(142.913 163.572)" fill="none" stroke="#fff" stroke-linecap="round" stroke-linejoin="round" stroke-width="0.25"/>
              <path d="M762.315,316.43l-.958-.8-.786-1.706-.241-1.191.3-.675-.41-.993-1.125-1.31-1.139-.721-1.149-.131-.955-.8-.761-1.468-1.778-.968-1.117-.19-.033-4.533-.031-3.977-.03-3.957-3.8-.159-3.424-.142v-9.5l1.624-4.8,1.661-4.622-2.519-3.4-2.686-3.636-1.738-1.509-2.045-4.549-1.024-2.012-.905-.765-.974-.445-3.575.179L729.36,255.2l-3.917-2.883-4.782-3.519-4.21-2.3-1.72-.506-4.048-.179-.43-.44-.276-1.264.006-1.409,1.318-2.126.1-1.335-2.75-4.507-.847-1.317-2.353-.531.468-1.3v-.871l-.334-.685-.544-.33-.691-.035-1.846.533-1.408-2.034-4.375-5.8-1.4-.7-.26-.4,1.07-1.781,1.8-2.642.309-1.535-.347-1.685-1.948-3.182.475-1.349.838-1.552.066-1.165,1.31.172,1.673.017.525-.949-.031-3.329.394-1.215,5.3-5.636,2.638-1.267,2.008-1.165.456-1.695-.412-.873-.393-1.278-.123-.918-2.214-2.536-.77-1.279-.094-1.166.523-2.067.923-1.6,3.134-.942,1.779-.807.238-.718-2.311-1.167-4.935-.366-3.6.334-1.156-.366-1.711-2.263-1.819-1.205-1.7-.775-1.661.142-1.005-.31-.234-.971-2.4-7.457-.755-1.02-1.119-.254-.934-.047-.625-.514-.669-1.031-.481-1.351-.037-1.773.1-1.523-.321-.982-.825-.976-1.171-.7L683.8,151.7l-1.8-6.583-.72-1.772-.006-.185-.746-.57-1.345-.208-1.383-.06-.873.443-1.528,1.19-2.052,1.3-1.667,1.19-.955.814-.789-.131-.615-.711-.346-.995.147-3.761-.363-1.178-.776-.827-.912-.472-1.087-.263-1.124-.026-1.6,1.1L661,141.137l-3.505-.093-2.353-.214-1.137-.217-4.564-1.751-.952-.047-1.7-.707-2.024-.562-3.4,1.065-1.473-.255-2.063-.922-.731.248L634.79,140.5l-3.92,3.006-2.114.5v.339l-.2.858-2.462,2.476-3.346,3.362-2.4,2.117-4.047,3.568-3.02.763-5.094,1.285-1.367,1.246-1.27,2.008-.746,2.747-.22,1.719-.134,3.206,1.192,3.32,1.145,3.183.147,2.105-.115,2.074-1.109,2.213-1.2,3.029-.7,3.424-.366,6.4-.009,5.44-.1.889-2.09,3.833-2.445,4.477-1.134,1.036-5.359,1.331-5.849,3.273-6.537,3.656L574,222.7l-6.232,3.476-6.463,3.6-4.618,2.571-6.181,3.437,1.56,5.356,1.523,5.226,1.584,5.4,1.536,5.241-1.662.5,1.3,4.016,2.152-.615,2.345-.475.989,2.575-3.217,2.867,4.873.786,7.322,1.183,7.066,1.139,7.453,1.345,2.392,1.094,7.19,4.023,4.672,2.611,5.456,3.046,6.823,3.805,4.684,2.612,5.995,3.338,4.674,3.811,5.919,4.823,6.5,5.29L645,308.885l7.37,5.647,7.266,5.557,7.112,5.434,5.7,4.344,7.2,5.491.561.206,7.285.626,9.791.837,9.838.84,8.877.758,3.819-.768,3.542-3.849,1.65-2.07,2.979-4.483,1.53-3.2L731,320.71l1.275-2.768.268-.505.74-.937,1.636-.96,2.359-.906,4-.4,2.814-.019.633.041,1.771.449,4.907,2.222.082-.675,1.97-.756,1.5.054,4.647,1.993,2.175.432,2.015-.565Z" transform="translate(-174.124 58.949)" fill="none" stroke="#fff" stroke-linecap="round" stroke-linejoin="round" stroke-width="0.25" fill-rule="evenodd"/>
              <path d="M552.447,181.2l-.224-1-.081-1.19.841-1.139-.4-1.374-.648-1.381-.475-.694,0-1.266.314-.967.384-1.485-.62.39-1.162,1.112-1.158.9-2.34,1.393-.53.834-.516-.747-1.02.509-.859,3.168-1.789,1.06-2.234-.094-1.867-.3-2.5.2-.689,2.816-1.554,3.394-1.832,5.124-2.577,10.049-2.736,7.215L521.934,215l-.146.177,1.022,1.033.032.384-3.828,3.893-.041,1.667-2.248,2.019,1.817,5.087,1.58,3.982,1.942,5.506.608,2.112.26,1.457,2.814,6.039,1.668,4.961,1.224,4.021,1.717,5.864.752,2.044,1.51-1.833,1.1-5.482.643-2.6.323-1.915,1.6-3.88-.2-1.27.34-4.484-.164-.869.729-2.446,1.366-3.555,1.337-3.063.486-1.38,1.373-2.908,1.227-3.578-.645-1.957-.2-.384.5-2.252-.015-.013.605-3.677-.914-.087-2.883,1.436L535.4,220.4l-4.221.356-.6-.4-.168-.686,1.232-3.34.475-1.571,1.827-1.7,2.591-1.467,1.1-.372-.123-.63-1.547-.97-1.615-.507-1.531.507-.479-.158-.16-.428.536-.6.249-1.124-.238-1.879-.162-2.292-.337-1.772.951-2.886.241-1.373,1.189-2.942,2.8-1.782,2.412.517,1.271.132.538.348.347,1.02,1.784,1.178,1.465.148.382-5.4.085-.506.473-.654.365-.338,2.689-1.13,1.154-.144.308-1.143,1.208-1.932,1.235-2.107Z" transform="translate(-239.172 122.578)" fill="none" stroke="#fff" stroke-linecap="round" stroke-linejoin="round" stroke-width="0.25" fill-rule="evenodd"/>
              <path d="M704.423,140.981l-2.405-1.6-2.7-1.405-1.736-1.238-1.108-2.447-1.117-.271-.283-.319-.184-.835.047-1.169.383-.9,1.091-.386,1.107-.138,1-.859,1.249-1.685.533-.932-.4-.356-3.137-1.448-1.2-.768-1.156-.057-2.429-.434-2.061-.693-.952-.919-1.4-1.023-2.607-1.274-1.921-1.2-.093-.772,1.179-3.2.855-3.074-.484-.6-1.085-.511-2.023-.473-4.782.155-2.958-3.1-1.047-.7-1.935-.5-2.8-.946-1.58-.684-.447.25-1.732,3.406-1.732-2.431-1.035-.658-1.482-.36-1.541,0-3.85,1.182-2.833,1.307-2.115.976-2.141.542-1.032.76-2.868-.13-1.443-.584-.469-.606.251-1.061.993-1.19.073-.65-.352-.5-3.482-1.59-1.424-.965-4.581-1.369L627.386,98.1l-1.941-1.592-.187-1.1-2.217-1.082-2.825-.972-2.191.277-2.056.1-3.208-1.818-3.042-.1-3.436.546-.752.215-.825.237-10.244-.766-2.616-1.5-2.238-1.5-6-1.083-3.08-1.15-3.064-1.631-3.352-1.424-2.819.577-3.854-.812-4.193-.713-1.432.439-1.328,1.8-.991,1.716,4.634,2.832,5.925,4.389,1.352.648,6.822,1.512,4.911,3.484,1.464,2.7,6.346,2.371,1.513,2.051,1.942,6.837,1.866,6.547,2.177,4.6-.05,2.215-.042,1.759-1.245,2.9-4.183,4.871,1.451.523,2.733.665,1.694.8.963.21,2.231-1.638,3.318.041,2.91.19,1.5.3,1.842.544,2.227.366.905-.782L616,135.4l.5-.3.358-.209,1.65-.18,1.565.178.737.393.737,1.848,1.856.66,3.283,2.95,2.005,1.183.486.5-.661.6.257.734,1.149.962,1.611.36,1.741-.126.946.35.678.544.178.762-.047.487,1.147-.218,3.339-.029,3.233-.372,2.533-.721,3.667-.608,1.512-.538,1.765-.257,5.362.576,2-.444,6.036-.082.156-.228-.821-.733.009-.28,3.591-.468.557-.348,4.71-3.42,1.391-.682,3.084.628,6.4,2.267-.435,1.257.651.708,1.467.961,2.82.973,2.385.5,1.207-.428,1.837-.362,2.385,1.121,2.2,1.422,1.1.574.589.177,1.669-.473,2.008-1.836.786-2.216.222-1.068Z" transform="translate(-156.817 -45.507)" fill="none" stroke="#fff" stroke-linecap="round" stroke-linejoin="round" stroke-width="0.25" fill-rule="evenodd"/>
              <path d="M826.917,467.283H812.524l-1.281-.63-6-2-7.611-2.537-9.443-3.148-6.719-2.241-7.17-2.344L767.025,452l-5.707-1.867-7.109-2.327-6.186-2.022-.852-.5-3.428-3.088-4.5-4.062-.86-.072-2.151-.843-1.925-2.2-1.989-2.8-1.848-3.509-.8-2.393-2.46-1.007-1.183-1.883-2.231-2.8-1.547-1.357-.55-1.184-.714-2.449-1.278-2.664-1.219-1.654-.28-.709.069-.467,2.259-3.613,1.019-1.29,1.159-1.25.945-1.245.361-.853-1.715.029-1.335-.247-.912-.723-1.882-.786-2.122-.053-2.021.735-3.428.914-3.1.3-2.49.508-2.067.6-1.861-.323-1.612-.539-.354-4.529-.379-4.921.04-3.853.572-2.12.5-.827,2.925-2.933,1.01-1.193,3.343-4.856,2.866-4.165,2.141-3.115-1.933-2.276-1.418-2.011-1.98-2.4-1.913-1.079-2.062-1.355-2.02-3.15-2.063-3.471-3.056-2.839-5.721-4.1-5.25-5.2-4.01-5.434-2.585-2.83-1.1-.723-5.349-1.777-3.737-2.487-2.874-2.051-1.765-.549-1.714-.067-3.644.407-3.032-1.286h-1.27l-2.032-.375-1.594-.455-1.871.547-3.841.915-1.574-.2-.86-1.279-.505-.98-1.336-1.02h-1.1l-.614.911L634.3,325.5l-6.714,1.277-1.592-.093-1.19-.922-3.394-3.952-.969-.642-.765-.059-1.574-.469-1.469-.758-1.29-1.619-1.294-.92-1.394,3.171-2.443,5.54-1.308,2.967-1.686,3.822-.533.114-.863-.277-3.35-4.758-2.105-1.793-1.574.172-1.147.879-.724,1.588-.785.985-.85.38-1.829-.189-2.811-.759-2.9.165-2.984,1.088-.394.029-1.755,5.909.069,3.222-1.232,4.75-.968,2.194-.861,1.305-.726,1.343-1.339,2.959-1.136,3.9-.5,4-.039,2.322-.221,1.059-.386.671-2.618.443-3.644.469-1.967.523-1.316.818-1.618,1.895-3.2,5.188-1.678,3.177-2.626,4.348-3.059,3.074-.645,1.494-.5,2.783-1.13,4.4-1.03,3.129.182,2.513-.964,4.361.143,2.126-1.072,1.184-1.443,1.121-.981.285-2.1-1.284-1.6-1.3-.653-.34-1.395.814-1.67,1.2-1.91,2.821-1.49,2.847.856,6.033-.08,1.323-.43,1.441-2.319,4.495-.57,1.421L531.9,429.6l-.9,4.71-.025,1.131-.022.882.163,4.408.14,3.857.23,6.3,0,1.641-.158,2.046-.475.8-1.158,1.155-1.448,1.058-3.673.269-3.062-.033-2.171-.236-2.967-.094-2.8.227-1.021.889-1.507,3.157-2.181,4.575-1.15,1.932-.3,1.13.342.671,1.443.973,3.169,1.37,3.63.8,2.707.348,1.848.375,1.422.422,5.157,3.5,1.647,1.627.928,1.446.213,1.54.745,1.545,2.971,3.062,1.722,1.773,4.475,2.264,1.711,2.571,1.658,1.25,1.568,1.34.843,2,1.94,5.8,1.3,3.04,1.334,2.486.538,4.043,1.054,1.806,1.091,2.2,1.8,1.991,1.92,1.518.347.407-.1.744.017.993.5.605.822.416,1.149-.439,1.007-.609.973-.126,6.032,1.627,1.013,1.415-.065,1.524.259,1.108-.458,1.11-.505,3.355.151,3.082,1.8,2.279,1.62,1.791,1.285,2.508.945.772,1.308.4,4.147.107,6.136.162,5.9.153.538.06,1.252.343,5.435,3.394,4.974,3.106,4.212,2.7,4.089,2.622,3.973,2.548,3.082,2.115,3.037.645,4.939.307,3.414.1,3.159.888,4.693.83,3.5.426,2.121.478,5.87.49.969-.283,2.59-2.347,2.9-3.811,1.131-2.1,3.753-2.086,6.588-2.913,4.642-2.051,5.162-2.063,2.345,1.788,3.233,2.872,1.449,1.417,1.161.626,1.756.421,2.14.01,1.166-.067,2.391-.369,5.582-.342,3.192.03.686-1.16,2.374-2.3,4.459-1.378,2.767-.228,9.525-1.724,1.419-.7.831-.8.792-1.821,1.855-2.552,2.394-1.754,4.546-2.291,4.459-1.945.986-.316,5.363-1.221,1.315-.419,2.169-.428.858-.01,7.45.428,5.831.333,6,.343.631-.261,4.2-4.535,6.672-7.222,4.258-4.608,6.577-7.122,5.06-5.143,5.591-5.691,5.43-5.2,6.535-6.261,4.116-3.944,6.4-6.132,6.084-5.835,5.382-5.164Z" transform="translate(-257.076 402.962)" fill="none" stroke="#fff" stroke-linecap="round" stroke-linejoin="round" stroke-width="0.25" fill-rule="evenodd"/>
              <path d="M613.387,338.2l-.734-2.14-.617-.489-.2.521-.939.847.357.446Zm64.88,69.663-1.831-1.643-.644,2-3.78-1.229-1.349-3.387-4.617-4.453-2.7.2-1.153-4.077-2.212-4.164-12.812-8.7-3.894-5.74-6.618-8.3-8.233-2.705-3.6-3.09-1.922-1.115-2.4-.67-2.864-.224-2.206-.882-2.621-3.046-.573-1.439-.366-2.592-1.369-1.3-2.5-1.707-1.1,1.255-.5,2.091.55,1.625.085.976-.74,1.686-1.413-1.963-1.954-5.277-1.144-1.549-1.577-.21-1.84-5.632-2.692-2.973-1.668-6.04-1.744-11.873-2.361-7.915-2.68-7.6-6.595-12.872-1.893,1.482-2.191,2.554-.55,1.016-.255.6-.257.754-.573.751-1.258,1.04-.491.451-.3.711-.752.463-.819.026-.72.317-1.083.492-1.606-.253-1.641.449-.6.565-1.3.492-1.3.1-.456.166-1.232.836-1.513,1.162-1.761.74-.623.242-.813.8-1.249,3.99-.913,1.043-1.542.1-2,0-1.732.344-2.358-.44-1.144.052-.3.85-.424,3.422.064,1.465-.939,1.739-1.047,2.167.386,3.664.182,3.623-1.919,5.446-.269,1.249-1.943,4.316-.989,1.608-2.469,8.052-.965,2.475L533,357.072l.468,4.24.494,4.491.468,4.237.7,6.334.4-.029,2.984-1.086,2.9-.166,2.812.76,1.828.189.851-.381.784-.984.725-1.587,1.147-.879,1.574-.172,2.1,1.791,3.35,4.758.863.277.532-.114,1.688-3.824,1.308-2.965,2.443-5.542,1.393-3.171,1.293.92,1.29,1.619,1.472.76,1.571.469.766.058.969.644,3.394,3.952,1.191.92,1.592.093,6.714-1.278,4.008-2.3.615-.912h1.1l1.334,1.022.506.979.86,1.278,1.574.2,3.841-.914,1.87-.547,1.594.454,2.033.376h1.27l3.031,1.287,3.646-.408,1.715.067,1.764.55,2.873,2.05,3.739,2.487,5.348,1.776,1.106.722,2.584,2.831,4.011,5.434,5.249,5.2,5.723,4.1,3.054,2.839,2.066,3.468,2.019,3.151,2.063,1.354,1.913,1.08,1.978,2.4,1.419,2.012,1.931,2.277.658-.614.9-.591.641.169,4.163,3,.734-.082,1.39-.932,1.261-3.209.89-1.174.377.032,2.671-.9,2.425-1.016Zm-65.743-62.819-.155.236-.863.227-1.667-.9.605,1.852,2.616.478,2.2-.16,2.376.457,2.06-.055.2-1.089-3.452-1.643-.348.83-.494.393-.632.114-.9-1.177-.193-2.193-.775-.955-1.185-.821-1.872-.306.954,1.351-.459.48-.746.387-.114.987,1.665.247Z" transform="translate(-207.836 357.051)" fill="none" stroke="#fff" stroke-linecap="round" stroke-linejoin="round" stroke-width="0.25"/>
              <path d="M711.091,409.558,710.2,407.7l-9.06-6.729-4.036-5.331-6.9-2.52-1.475-1.048-1.058-1.434-2.172-2.218-2.914-7.4-.908-3.91-.4-7.692.236-1.453.558-1.779,1.158-.5.834-.179,3.314.288-3.475-2.933-3.205-2.033-1.762-2.64-4.429-4.7-7.442-15.274-3.8-6.974-2.492-5.735-5.146-7.7-6.106-12.191-1.975-2.281-1.441-9.3-.955-3.151-1.04-1.938-2.278-1.7-.87-2.085-2.348-4.123.2-2.191-.255-4.6-1.14-1.784-2.676-1.779-3.713-3.692-3.914-5.482-2.719-2.884-.91-1.535-.59-1.7-.984-1.967-2.74-3.317-.59-1.517.137-4.472-.853-3.293-.741-1.518-3.662-3.479-.818-2.288,1.065-2.8,1.766-2.417-.359-1.749,2.023-1.148,1.778,4.153,1.622,6.535.986,1.7.983,1.179,1.285,2.682,4.479,5.023,1.185,2.229,1.605,4.714-.039,1.929,1,3,3.674,4.172,3.885,3.146,3.626,4.866,6.217,5.116,3.818,1.509,2.149-2.913,1.772-2.97.6-2.117.422-5.875,3.725-9.4,2.6-12.064,2.448-3.808,1.216-1.067-.752-2.044-1.717-5.864-1.224-4.021-1.668-4.961L660,214.221l-.26-1.457-.608-2.112-1.942-5.506-1.58-3.982-1.817-5.087-.717-2-.313-.724-.477.448-5.974,2.934-5.151,1.205-6.3-.013-4.007,1.108-.821-.995-.586-1-4.983,1.365-1.026-.162-3.709,1.042-1.773.125-1.54-.762-4.566-3.707-1.593-.928-.749.028.579,1.127.852,1.09-1.643,1.952-2.287.624-.788-1.434-1.248-1.611-2.323-.469-2.86-1.251,2.288-2.895.355-1.642,4.014,3.3,1.308.082-3.748-3.847-1.644-.941-1.084.361-5.08,1.687-1.792-.059-7.212-3.093-2.423-.375-.676.28-.461,2.009L583.008,190l-3.5.547-3.076.86-3-.313,7.009-2.519.86-1.064-7.7,2.244-3.839.368-1.12,1.311-.687,1.091-1.091.96-.865,1.4-2.075.065-1.705-.232-2.61.9-7.382,5.15-3.558,2-3.265,1.441-2.6.77-1.919.1-2.168-.629-3.617-2.046-6.374-2.569-11.945-1.12-3-2.328-4.58.078-1.748-.5-6.373-3.942-10.462-2.211-6.8-1-12.311-2.6L460.362,188.8l-3.42-.5-1.636-2.9-.84.671-1.2,1.429-.755,1.272-2.022,2.068-1.686,2.214.158,3.239.383,3.289,1.134,3.212.969,3.568-.272,2.332-.838,2.864-.993,2.388-3.3,4.91-.506,1.173.182,1.649,2.01,5.812.155,1.829,1.2,5.635,1.1,4.578,1.212,3.594.187.988V410.01h8.338l8.337,0,8.339,0h41.687l8.339,0H543.3l8.337,0h8.341l8.335,0h19.219l1.124-.168,2.136-4.225.911-.314,1.4.249.477.991-.43,1.432-.7,2.014H603.7l7.159,0h7.163l7.159,0h21.485l7.159,0h7.161l7.161,0h35.8l7.161,0Z" transform="translate(-376.245 150.673)" fill="none" stroke="#fff" stroke-linecap="round" stroke-linejoin="round" stroke-width="0.25" fill-rule="evenodd"/>
              <path d="M607.495,341.019l-1.2-2.122-3.662-4.311-.308-1.055-2.423,1.015-2.672.9-.378-.033-.887,1.172L594.7,339.8l-1.391.932-.732.082-4.164-3-.642-.168-.9.591-.657.614-2.141,3.115-2.866,4.165-3.343,4.856-1.01,1.193L573.93,355.1l-.5.827-.572,2.12-.04,3.853.379,4.921.354,4.529,1.612.539,1.861.323,2.067-.6,2.49-.508,3.1-.3,3.428-.914,2.021-.735,2.122.053,1.882.786.912.723,1.335.247,1.715-.029,2.747-4.261,2.417-3.745,1.89-2.933-1.839-1.447-2.6-.491-2.864.041-2.658.544-2.992,1.14-1.5.28-.961-.165-.392-1.485,2.58.263,3.47-3.922,5.435-1.961,4.889-3.075,1.411-1.258.951-1.408.643-2.161Z" transform="translate(-131.156 433.924)" fill="none" stroke="#fff" stroke-linecap="round" stroke-linejoin="round" stroke-width="0.25" fill-rule="evenodd"/>
              <path d="M549.411,153.688,551.438,152l-3.163.808-3.029,1.461-1.743.6-2.816,1.765-9.949,2.946-3.246.449-3.3-.138-4.024-.41-3.969-.792-.332,2.76-1.015,2.4-2.346.515-1.3-.28-1.318-.286-2.1.661-1.766,1.614-1.836.985-1.963-.813.354,3.178,2.108,4.293.77,1.189,1.233.568,4.091,1.392,1.246.037,2.556-.326,1.028.627.6,1.458,1.442.153.351-.742.02-.9.817-.926,1.162-.508,1.321-.06,2.63-.481,2.583-.811,2.172-1.361,4.038-4,1.3-.082,1.385.179,2.49-.137,2.48-.413-.579-1.4-.418-.482-1.6-1.844-.51-1.522.745-2.2Z" transform="translate(-267.103 86.798)" fill="none" stroke="#fff" stroke-linecap="round" stroke-linejoin="round" stroke-width="0.25" fill-rule="evenodd"/>
              <path d="M501.783,422.085l-.192-.822,1.252-1.991.188-1.642-1.025-1.808-4.217-3.408-3.358-3.751-2.545-1.173-6.125-1.041L484,406.036l-1.836-.716-1.812-1.689-.62-2,.893-3.2-.569-.979-1.036-.267-2.166-.558-2.753-.4-5.3-.494-2.1-.725-1-1.088.318-2.771-.521-.6-.851-.492-.573-1.2.12-1.443,2.79-3.2.58-1.713.439-5.952.294-2.1L468.088,372l-2.211-4.515-1.929-3.144-3.15-4.659-1.232-1.525-6.362-6.415-.734-.951-1.543-2.715-.931-.165-1.9-.586-2.317-.509-2.84-.414-2.707.978-2.922,1.252-.922.934-.816.553-1.29-.088-1.18.161-.642.888-1.067.99-4.221,2.049-.89.745-.527.74v.8l.428,1.665-.008,2.073-.939,1.674-1.091,1.125-1.242.431-1.042.233" transform="translate(-421.858 458.532)" fill="none" stroke="#fff" stroke-linecap="round" stroke-linejoin="round" stroke-width="0.25" fill-rule="evenodd"/>
              <path d="M641.06,231.925l-1.134-1.71.613-.982-.476-.132-2.055.4-.382.883.807,3.063-.514,2.149,1.705,3.051.673.617.706-1.762.224-2.756Z" transform="translate(-6.354 234.233)" fill="none" stroke="#fff" stroke-linecap="round" stroke-linejoin="round" stroke-width="0.25" fill-rule="evenodd"/>
              <path d="M716.1,136.083l-1.284-1.27-1.428-1.107-1.384-.76L709.2,131.86l-3.031-.012-1.653-.175-1.258-.617-3.54-2.781-2.171-2.149-5.023-5.83-1.129-2.318-.687-2.624-.8-2.17-1.217-1.867-4.953-6.619-3.476-4.077-2-1.5-1.182,1.689-1.922,3.011-.857,1.593-2.033,1.474-3.4,1.561-1.881.676-2.019,3.224-2.235,3.134-1.53.349-4.351-.486-1.553-.282-4.427-1.38-1.235-.845-1.22-3.634-1.366-1.564-1.717-1-1.173-.85-.489-.877-1.243-1.273-2.3-1.9-1.665-1.794-1.287-.486-1.624.632-.974.178-.418-.317-.316-1.509-2.352-.533-.532.932-1.249,1.686-1,.859-1.106.137-1.091.387-.383.9-.047,1.171.181.833.284.32,1.118.271,1.109,2.446,1.735,1.238,2.7,1.407,2.4,1.6,1.17,1.471-.222,1.069-.784,2.216-2.01,1.835-1.668.475-.588-.178-1.094-.574-2.2-1.424-2.384-1.121-1.837.364-1.208.428-2.384-.5-2.82-.973-1.466-.961-.652-.708.436-1.258-6.4-2.266-3.084-.629-1.39.681-4.71,3.422.468,1.168,1.352,1.3,1.474.524.79.716.035.542-2.607.661-.178.326.173.323.775.16,3.654,1.628,2.086.035,1.094.5.547.97,1.741,1.322,1.387,1.281.085.443-.263.649-3.885,2.5-.489.862-.059.912L610.2,133l2.513,2.962,3.628,2.248,4.994,2.44.064,1.511-.793,1.794-.679,1.214-.31.824-.605.347-4.977-.073-.746.288-.328.352-.026.294,1.791.545,2.791,1.916,1.606,1.858,1.673.81,1.875,1.479,1.5,1.377,2.341,1.782,2.613-.585,3.487,1.584.143,1.078-.217.961-2.194,1.045-.272.434,0,.367.286.513,1.284.856,1.516,1.27,1.7,1.9-.758.565-1.592.084-1.24-.236-.436.387.026.62,1.615,1.442.313,1.048-.067,1.823.085,2.3,1.4.058,4.985-4.633,1.513-1.546,2.976-.807,1.67-1.843,2.683-2.237,3.277-2.106,3-1.893,2.305-1.147,4.169-2.676,2.607-.929,2.262.029,3.385,3.139,2.852,2.854.884,1.252-1.419,1.121-2.642,1.083-.509.792-.181,1.016.1.97.357.789,3.242,1.841.369,1.011.026,1.022-.374.641-.72.37-2.259.515-1.931.6-.67.588-.582.7.082.772.585.877,3.961,2.4.448.882.787,1.185.966.728,1.653.2.787.489,3.827,4.418.933.312,4.47-.973.62.047-.389-9.59.079-.591,1.565-3.113.775-2.962,1.13-1.4,2.136,1.246-.059,1.41.269.638.969-.667.752-1.075,1.515-5.388,1.135-1.112.907-.524.1-1.241-.869-2.612-.07-2.729,1.981-5.9L698,144.4l1.612-2.735,2.572-1.4,2.683-1,2.771-.728,4.895-.175,4.863,1.118Zm-103.765-5.23-.831.422-.775-.192v-1.06l.562-.425.646.02.614.384Zm-12.01-10.289.471-.294.111-.684-.167-.623-.585-.2-.72.163-.056.687.222.655Zm22.78,51.057-2.051-4.071.559-1.669-1.144-.964-2.759-1.736-.7-.716.389-.984.269-1.8-.263-1.462-.74-.443-1.378-.029-1.671.364-3.362,1.41-2.335-.9-1.343-.909-.781-.763-1.744.632-.433-.306-.091-1.881L603,154.378l-1.05-1.185-.98-.568-3.587,1.174-2.159.4.328.48.74.874.456.542,3.537,5.23,1.559,1.541.9,1.3.614,1.456,1.077.981,1.428.53,1.735,1.407,1.173,1.1,1.975,2.272,2.08.847L620.4,174.4l4.2.76-.807-1.951Z" transform="translate(-88.008 -16.625)" fill="none" stroke="#fff" stroke-linecap="round" stroke-linejoin="round" stroke-width="0.25"/>
              <path d="M629.82,119.812v1.06l.775.192.831-.422.216-.85-.614-.384-.646-.02Zm21.788,37.02,1.592-.084.758-.565-1.7-1.9-1.516-1.27-1.284-.856-.286-.513,0-.367.272-.434,2.194-1.045.217-.961-.143-1.077-3.487-1.584-2.613.585-2.34-1.782-1.5-1.377-1.875-1.479-1.673-.81-1.606-1.858-2.791-1.916-1.791-.545.026-.294.328-.352.746-.288,4.977.073.606-.347.31-.824.679-1.214.793-1.794-.064-1.511L635.428,128l-3.628-2.248-2.513-2.962-1.706-2.717.059-.912.489-.862,3.885-2.5.263-.649-.085-.443-1.387-1.281-1.741-1.322-.547-.97-1.094-.5-2.086-.035-3.654-1.628-.775-.16-.173-.323.178-.326,2.607-.661-.035-.542-.79-.716-1.474-.524-1.352-1.3-.468-1.168-.559.347-3.59.469-.009.28.822.734-.158.227-6.036.082-2,.443-5.36-.577-1.764.259-1.513.536-3.669.609-2.534.719-3.233.373-3.338.029-1.147.218.345,1.092,1.358,1.543,1.621.944.872,1.013,1.416,3.468.571,1.922-.214,1.843-.983,1.893-2.15,2.353.532.984.483,1.3L589,127.3l1.521,3.005.7,1.864-.582.428-.371.6L593,134.626l3.28,1.2,1.384.23,3.768-.55,2.428-.119,2.4,1.142,3.511,2.761,3.786,3.6.752,1.095,2.159-.4,3.587-1.174.98.568,1.05,1.185.523,1.013.091,1.881.433.306,1.744-.632.781.763,1.343.909,2.335.9,3.362-1.41,1.671-.364,1.378.029.74.443.263,1.462-.269,1.8-.389.984.705.716,2.759,1.736,1.144.964-.559,1.669,2.051,4.071.69,1.584.807,1.951,1.214.221,3.221-1.1,3.774.151-.085-2.3.067-1.823-.313-1.048-1.615-1.442-.026-.62.436-.387Zm-31.72-46.773-.471.294-.723-.294-.222-.655.056-.687.72-.163.585.2.167.623Z" transform="translate(-107.097 -6.414)" fill="none" stroke="#fff" stroke-linecap="round" stroke-linejoin="round" stroke-width="0.25"/>
              <path d="M735.673,192.149l-4.906,5.532-4.971,5.6-4.966,5.58-5.69,6.386,8.317,2.583,6.482,1.98L740.4,223" transform="translate(142.913 163.572)" fill="none" stroke="#fff" stroke-linecap="round" stroke-linejoin="round" stroke-width="0.25" fill-rule="evenodd"/>
              <path d="M715.591,181.179l-.815,4.342-.053,2.635.366,3.42-.277,1.77.636,3.956.729.286,5.6.766,5.145.7" transform="translate(142.11 142.597)" fill="none" stroke="#fff" stroke-linecap="round" stroke-linejoin="round" stroke-width="0.25" fill-rule="evenodd"/>
              <path d="M694.635,275l.6-.4,2.221.224-.009-.775-.743-.868-1.308-1-3.145,1.1-1.205.938,1.776.562Zm-10.19-2.819,1.1-.51.576-.62.793-1.45-.717-.914-.907,1.069-.836.524-3.09,1.159,1.469.871Zm23.926-3.818.614.041.193-.446-.849-.649-.614-.81-.424.041-.966.769.5.649ZM750.8,254.733l-.2-12.694-1.431-1.875-.421.53-.632.055-1.439-.451-.851-1.054.161-1.281.047-2.365.4-2.236L746.323,231l-1.112-.478-.787.125-.126.23-1.08,3.163-1.831,2.819-9.131,6.826-1.951,2.391-2.44,2.181-.395,1.453-4.482,4.494-7.668,5.312-1.916,2.181-.761,2.167-.954,1.325-1,.746-.781,1.567-.884,2.4-1.337,1.835-2.025.547-3.411,1.9-5.559,2.155-2,.172-10.3-.664-6.618-1.118-8.253-.166-2.984.964-5.688,2.685-2.888.55-4.637-.326-1.375-.582-1.123-1.462-.524-4.115-.717-.192-1.533.283-.9-1.159-.383-.859-.81,1.2v.646l.082,2.97.445,1.13.8,1,1.2,1.5,1.2,1.5,1.2,1.5,1.2,1.5,1.2,1.5,1.2,1.5,1.2,1.5,1.2,1.494,1.2,1.5,1.2,1.494,1.2,1.494,1.2,1.494,1.2,1.494,1.2,1.491,1.2,1.494,1.2,1.491.992,1.232,1.834.236.585.073,1.653.213,2.566.326,3.332.425,3.938.5,4.4.559,4.7.6,4.86.617,4.854.62,4.7.6,4.4.559,3.941.5,3.329.422,2.566.326,1.653.213.585.073,1.732.218.331-.055,1.448-1.82.179-3.32-.041-1.663.17-2.545,1.536-3.535,1.811-4.5,1.323-3,1.144-2.609.922-2.094.506-2.158-.269-1.52-.6-.553-.509-.719,1.735-1.15,3.245-.748,1.8.16,2.51-.556,1.99-.5.152-.679-.565-1.136-.822-1.66L738.3,273l-.849-.457.98-2.455-.038-.775-.374-.917-.407-1.538.2-1.989.574-1.354.009-1.086-.275-2.245.088-1.992.594-.993,1.044-.923.983-.469,1.033.035.819.39.351,1.048-.225.719-.582.1-.2.3.831,1.395,1.211,1.366.93-.227,1.047-1.075,1.094-.871,1.381-.766,1-1.488.857-.964.764-.137Zm-1.984-5-.91.614-.647-.1.129-1.232.389-.853.942.067.225.513ZM668.836,271.49l.886-1.011-.614-1.011-1,.559-.029.393.386,1.235Z" transform="translate(9.677 236.942)" fill="none" stroke="#fff" stroke-linecap="round" stroke-linejoin="round" stroke-width="0.25"/>
            </g>
          </g>
          <path d="M566.008,335.946l-3.464-1.412-.758-.588-.448-1-.638,1,.567,1,4.184,1.558.913.772.9,1.15,1.53,1.561h.579l1.159-.728-.664-.253Zm-4.389-5.839-.055,1.785.922.81.2-.315,0-.507-.345-1.4.061-1.389ZM976.974,415.05l-1.852-2.976-1.943-3.113-1.826-2.933-1.328-2.135-1.6-2.574-1.448,1.823-.331.055-1.732-.218-.582-.073-1.656-.213-2.566-.326-3.332-.422-3.938-.5-4.4-.559-4.7-.6-4.854-.62-4.857-.617-4.7-.6-4.4-.559-3.938-.5-3.332-.425-2.566-.329-1.653-.21-.585-.073-1.834-.236-.992-1.232-1.2-1.491-1.2-1.494-1.2-1.491-1.2-1.494-1.2-1.494-1.206-1.494-1.2-1.494-1.2-1.5-1.2-1.494-1.2-1.5-1.2-1.5-1.2-1.5-1.2-1.5-1.2-1.5-1.2-1.5-1.2-1.5-.8-1-.445-1.13-.082-2.97V365.2h-.734l-1.267-.5-1.779-.242-1.864-.5,1.311-3.131,1.059-1.241-.155-.914-1.589.148-1.539-.984-1.963.472-1.849.507-1.539-.014-1.24-.2-.822-.486-1.586-1.942-1.121-2.516-1.717-1.843-1.281-2.17-2.378-2.828-1.077-5.064-1.164-2.723-3.8-3.259-.922-1.311-1.077-3.066-1.3-2.1-1.074-2.65-1.08-3.46.486-.277.919.1.857.416.442,0,1.276-4.814-.632-2.234-1.621-1.182-1.82-1.645-.348-1.9-.07-1.619.4-.48,1.314.53,1.05.393.328-.076-3.569-3.859-5.887-2.95-3.9-4.558-2.888-.679-2.7-3.017-2.323-2.962,1.36-1.284-1.747-.827-1.539-.475-3.938-1.878-2.387-2.225.219-.955.559-.827-.521-2.225-.769-1.477-3.215-4.06-2.256-5.21-.535-2.2-1.223-2.2-3.792.055-4.781.07-3.88.049-4.377.055-1.925-2.225-.652-2.435-.7-2.5-1.925-3.567-6.425-.859-3.417-.46-5.617-.681-4.219-.51-3.821.766-8.876-.754-9.839-.842-9.792-.839-7.282-.623-.562-.207-7.2-5.489-5.7-4.345-7.112-5.434-7.267-5.556-7.37-5.647-5.354-4.109-6.5-5.289-5.919-4.823-4.675-3.812-5.995-3.34-4.684-2.609-6.823-3.806-5.456-3.046-4.672-2.609-7.191-4.025-2.39-1.1-7.452-1.342-7.069-1.142-7.32-1.179-4.871-.786-3.239,2.807-.758.3-4.2,1.162-8.6,2.373-5.763,1.587-7.367,2.033-6.121,1.686-6.062,1.669-5.608,1.543,3.2,3.259,4.892,4.974,3.265,3.314,3.85,4.26,3.438,3.8,3.646,4.025-2.557,1.36-4.216,2.242-.43.408-.357.419-1.744,4-1.375,3.148-.468.393-5.889,1.153-5.945,1.165-3.748.737-1.12.813-2.446,3.911-2.528,4.039-4.219,3.3-4.678,3.649-1.156.236-3.385-.559-5.784-.958-5.591-.923-3.827-.632-4.649-.769-3.312,14.9-.418,5.006-2.107,5.7-1.466,2.711.193,1.963,2.118-1.549,2.3.518,5.471.5,2.229,1.22,5.313,7.036,3.438,7.03,3.964,4.048,1.934,4.383,3.938,4.4,1.346,2.676,3.4,3.969,5.872,11.352,3.414,1.526.6,3.145,1.314,3.5,2.127,1.36,1.322,1.182,4.98,8.073,1.518,3.233.547,1.779.5,2.609-1,1.992-.866,1.226,3.443,4.689,2.016,3.6,2.449,3.838,2.074.317,1.641.076,2.349,1.992,2.156.05,1.267,1.392,2.636,1.523,4.152,3.367,3.827,4.552,1.7,3.515,3.575,5.76,1.112,2.537.872,3.32.842,1.354,2.306,2.443-1.273-.006,1.22,1.759,1.5.789-.135,1.616,1.322,2.429.74,4.531-.565,2.251-.787,2.047-.278,3.853-.726,3.439.913,2.394,1.337,2.536,1.223,3.282.079,1.951-1.246,2.766,3.985,7.6,4.693,5.344,2.674,4.942,2.5,2.866,3.4,2.193,4.289.609,8.765,6.124,2.917,3.844,3.128,1.5.389.865.319,1.584,1.226,2.044,1.428,1.459,4.427,9.141.614,2.085,1.018,2.638.653,2.371.19,1.94,4.415,5.05L669.9,501.5l3.282,5.542,2.007,2.72,6.6,4.82,5.275,5.219.84,3.966,1.109,2.985,2,1.613,1.51,2,.19,2.024,2.063,1.491,1.12,1.43.6,1.855.091,1.855,1.3,2.624.2,1.768,4.081-3.046,1.033-.914.591-.8.959-1.721,1.316-.559.465-1.811-.041-.906-.848-.778-.635-2.114.211-2.676.214-1.124.439-2.044,1.425-.763.339-.606-1.1-1.3.1-.772,2.428-2.167.96-.649,1.568-.673,1.226.009,1.422.382,1.264.609,1.226,1.1,1.3,1.252,1.992.478,1.354-.122,1.106.553.93-.3,1.059-.65,1.7.041,1.527-.734,4.336-.352,4.187.224,4.371-.609,4.359.047,4.4.049.974.09.96.381,3.707,1.922,2.812.393,5.652.527,6.033.562,5.228.486,4.433-.454,3.681-.373.995.064,1.109,1.188,2.218,2.959,2.089,2.79,3.663.151,2.349-1.048,2.584-1.479,1.577-1.144,1.823-4.54,1.185-2.941,2.706-3.305,2.273-2.769,3-3.669,1.662-2.03,3.286-4.016,3.133-1.564,6.05-3.023,5.933-2.965,3.868-1.937,3.283-.882,5.515-.76,6.48-.894,6.48-.891,6.9-.952,7.7-1.063,5.278-.728,6.729-.929,5.6-.772,4.974-.684,5.123-.708,3.075-1.054,3.757-1.284,3.754-1.281,3.754-1.284,3.757-1.284,3.751-1.284,3.757-1.287,3.756-1.284,3.754-1.287,3.753-1.284,3.754-1.287,3.754-1.287,3.757-1.287,3.754-1.287,3.757-1.287,3.751-1.287,3.757-1.287,2.32-.8.963-3,.8-2.49.8-2.49.8-2.49.8-2.493.8-2.5.8-2.5.8-2.5.8-2.5.8-2.5.8-2.5.8-2.5.8-2.5.8-2.5.8-2.507.8-2.5.8-2.507.731-2.3Zm-295.755,119.8.149.349.693.708-1.688-.122-.9-.74.345-.661-.187-.612-.129-2.892-.67-1.27-1.241-.2.536,1.238-.582,1.2-.921.728-.872.294.556,1.514,2.089,2.1,1.46.684,2.349-.4.667.612.132.565.421.524.655.536.2-.571.07-2.49-2.408-2.105Z" transform="translate(-7292.606 1640.689)" fill="#f4f4f4" stroke="#0028d2" stroke-linecap="round" stroke-linejoin="round" stroke-width="1"/>
        </g>
      </g>
    </g>
  </g>
</svg>