<svg width="47" height="47" viewBox="0 0 47 47" fill="none" xmlns="http://www.w3.org/2000/svg">
<path d="M0.160001 46.51V26.18C0.160001 23.3933 0.476667 20.67 1.11 18.01C1.87 15.2233 2.94667 12.69 4.34 10.41C5.73333 8.00333 7.50667 5.91333 9.66 4.14C11.8133 2.36667 14.2833 1.1 17.07 0.339991V8.51C15.4233 9.14333 14.03 10.1567 12.89 11.55C11.75 12.8167 10.8 14.3367 10.04 16.11C9.28 17.7567 8.71 19.53 8.33 21.43C8.07667 23.2033 8.01333 24.85 8.14 26.37H16.12V46.51H0.160001ZM29.42 46.51V26.18C29.42 23.3933 29.7367 20.67 30.37 18.01C31.13 15.2233 32.2067 12.69 33.6 10.41C34.9933 8.00333 36.7667 5.91333 38.92 4.14C41.0733 2.36667 43.5433 1.1 46.33 0.339991V8.51C44.6833 9.14333 43.29 10.1567 42.15 11.55C41.01 12.8167 40.06 14.3367 39.3 16.11C38.54 17.7567 37.97 19.53 37.59 21.43C37.3367 23.2033 37.2733 24.85 37.4 26.37H45.38V46.51H29.42Z" fill="white"/>
</svg>
