<svg xmlns="http://www.w3.org/2000/svg" width="43.748" height="57.731" viewBox="0 0 43.748 57.731">
  <defs>
    <style>
      .cls-1 {
        fill: #fff;
      }

      .cls-2, .cls-3 {
        stroke: none;
      }

      .cls-3 {
        fill: #000;
      }
    </style>
  </defs>
  <g id="Union_1" data-name="Union 1" class="cls-1">
    <path class="cls-2" d="M 21.87353324890137 56.73141479492188 C 19.05526351928711 56.73141479492188 16.32180404663086 56.17965698242188 13.74906349182129 55.09146499633789 C 11.26359367370605 54.04017639160156 9.031173706054688 52.53496551513672 7.113843441009521 50.61763381958008 C 5.196503639221191 48.7003059387207 3.69127345085144 46.4678840637207 2.639983415603638 43.98239517211914 C 1.551773428916931 41.40963363647461 1.000003457069397 38.6761360168457 1.000003457069397 35.85781478881836 C 1.000003457069397 29.56231498718262 3.800423383712769 23.66537475585938 8.683193206787109 19.67903518676758 L 8.704873085021973 19.66134643554688 L 8.725513458251953 19.64246559143066 L 27.92807960510254 2.087551355361938 L 29.25812339782715 15.74371528625488 L 29.31625366210938 16.34051513671875 L 29.87006378173828 16.57038497924805 C 33.63579177856445 18.13335609436035 36.84302520751953 20.74779510498047 39.14503479003906 24.13104629516602 C 41.50214385986328 27.59527587890625 42.74804306030273 31.65032577514648 42.74804306030273 35.85781478881836 C 42.74804306030273 38.67616653442383 42.19629287719727 41.40967559814453 41.10811233520508 43.98240661621094 C 40.05683517456055 46.4679069519043 38.55161285400391 48.70032501220703 36.63427352905273 50.61762619018555 C 34.71690368652344 52.53496551513672 32.48440170288086 54.04017639160156 29.99879264831543 55.09145736694336 C 27.42588424682617 56.17965698242188 24.69215393066406 56.73141479492188 21.87353324890137 56.73141479492188 Z"/>
    <path class="cls-3" d="M 21.87353324890137 55.73141479492188 C 24.55760383605957 55.73141479492188 27.1602725982666 55.20622634887695 29.6092529296875 54.17044448852539 C 31.97566413879395 53.16957473754883 34.10131454467773 51.73633575439453 35.92717361450195 49.91051483154297 C 37.75299453735352 48.08472442626953 39.18624496459961 45.95915603637695 40.18711471557617 43.59285736083984 C 41.22287368774414 41.14404678344727 41.74804306030273 38.54160690307617 41.74804306030273 35.85781478881836 C 41.74804306030273 31.85178565979004 40.56204223632812 27.99125480651855 38.31826400756836 24.6935863494873 C 36.12606430053711 21.47171592712402 33.07216262817383 18.98213577270508 29.48672294616699 17.49398612976074 L 28.37908363342285 17.03425598144531 L 27.12666511535645 4.175105094909668 L 9.358953475952148 20.41828536987305 L 9.315613746643066 20.45366477966309 C 4.666443347930908 24.24929618835449 2.000003337860107 29.8638858795166 2.000003337860107 35.85781478881836 C 2.000003337860107 38.54157638549805 2.525193452835083 41.14401626586914 3.560983419418335 43.59283447265625 C 4.561863422393799 45.95912551879883 5.995123386383057 48.0847053527832 7.820953369140625 49.91052627563477 C 9.646773338317871 51.73633575439453 11.77234363555908 53.16958618164062 14.13862323760986 54.17045593261719 C 16.58743286132812 55.20623397827148 19.18983268737793 55.73141479492188 21.87353324890137 55.73141479492188 M 21.87353324890137 57.73141479492188 C 9.793453216552734 57.73141479492188 3.437500026848284e-06 47.93815612792969 3.437500026848284e-06 35.85781478881836 C 3.437500026848284e-06 29.02059555053711 3.137693405151367 22.91549491882324 8.050783157348633 18.90440559387207 L 28.72949409484863 5.490112471306929e-06 L 30.25341415405273 15.6467752456665 C 38.17627334594727 18.9351863861084 43.74804306030273 26.74594497680664 43.74804306030273 35.85781478881836 C 43.74804306030273 47.93815612792969 33.95508193969727 57.73141479492188 21.87353324890137 57.73141479492188 Z"/>
  </g>
</svg>
