<svg width="1386" height="346" viewBox="0 0 1386 346" fill="none" xmlns="http://www.w3.org/2000/svg">
<g clip-path="url(#clip0_3367_875)">
<path d="M214.916 214.076V300.187L173.127 341.976H127.961V388.409H92.0812V341.976H42.2718L1.3268 301.031V268.95H41.4276V287.946L59.5784 306.519H92.0812V208.588H43.116L2.17102 167.221V87.4417L43.116 46.4968H92.0812V0.0642902H127.961V46.4968H170.594L211.539 87.4417V119.944H171.861V100.527L153.288 81.9543H127.961V173.131H173.971L214.916 214.076ZM92.0812 173.131V81.9543H60.8448L42.2718 100.527V154.558L60.8448 173.131H92.0812ZM174.815 226.739L156.242 208.588H127.961V306.519H156.242L174.815 287.523V226.739Z" fill="#D4FE8A"/>
<path d="M1081.29 104.788H1118.86V143.2L1157.27 104.788H1208.35L1240.01 136.446L1271.24 104.788H1340.05L1380.99 145.733V315H1341.74V157.974L1322.74 138.979H1280.11L1252.67 166.416V315H1214.68V157.552L1196.11 138.979H1164.03L1120.55 182.456V315H1081.29V104.788Z" fill="#D4FE8A"/>
<mask id="mask0_3367_875" style="mask-type:alpha" maskUnits="userSpaceOnUse" x="283" y="26" width="263" height="116">
<rect x="283.812" y="26.5508" width="262.013" height="115.03" fill="#D9D9D9"/>
</mask>
<g mask="url(#mask0_3367_875)">
<path d="M296.377 85.5333V47.5431H336.9V72.4478L355.473 91.0208H439.896L458.469 72.4478V-6.0653L439.896 -24.2162H300.598V-169.001H493.082V-133.966H340.277V-59.6737H457.625L498.992 -18.3066V85.5333L458.047 126.478H337.322L296.377 85.5333Z" fill="#D4FE8A"/>
</g>
<mask id="mask1_3367_875" style="mask-type:alpha" maskUnits="userSpaceOnUse" x="534" y="26" width="263" height="321">
<rect x="534.109" y="26.5508" width="262.013" height="319.528" fill="#D9D9D9"/>
</mask>
<g mask="url(#mask1_3367_875)">
<path d="M542.453 320.919V283.351H582.976V307.834L601.549 326.407H686.816L705.389 307.834V249.16L687.238 231.009H602.815V195.551H687.238L705.389 177.401V120.415L686.816 101.842H604.082L585.509 120.415V144.898H544.986V107.33L585.931 66.3848H704.967L745.912 107.33V189.22L721.429 213.28L745.912 237.763V320.919L704.967 361.864H583.398L542.453 320.919Z" fill="#D4FE8A"/>
</g>
<mask id="mask2_3367_875" style="mask-type:alpha" maskUnits="userSpaceOnUse" x="805" y="26" width="263" height="104">
<rect x="805.708" y="26.5508" width="262.013" height="103.314" fill="#D9D9D9"/>
</mask>
<g mask="url(#mask2_3367_875)">
<path d="M814.052 59.9713V22.4032H854.575V46.8858L873.148 65.4587H958.414L976.987 46.8858V-11.788L958.837 -29.9389H874.414V-65.3964H958.837L976.987 -83.5472V-140.533L958.414 -159.106H875.68L857.107 -140.533V-116.05H816.584V-153.618L857.529 -194.563H976.565L1017.51 -153.618V-71.7281L993.028 -47.6676L1017.51 -23.185V59.9713L976.565 100.916H854.997L814.052 59.9713Z" fill="#D4FE8A"/>
</g>
<mask id="mask3_3367_875" style="mask-type:alpha" maskUnits="userSpaceOnUse" x="283" y="120" width="263" height="227">
<rect x="283.812" y="120.279" width="262.013" height="225.8" fill="#D9D9D9"/>
</mask>
<g mask="url(#mask3_3367_875)">
<path d="M425.966 444.848H281.603V392.506L409.504 208.042H466.489V409.39H502.369V444.848H466.489V503.521H425.966V444.848ZM426.81 410.657V247.299H424.7L321.282 397.571V410.657H426.81Z" fill="#D4FE8A"/>
</g>
<mask id="mask4_3367_875" style="mask-type:alpha" maskUnits="userSpaceOnUse" x="805" y="68" width="263" height="279">
<rect x="805.708" y="68.0894" width="262.013" height="277.989" fill="#D9D9D9"/>
</mask>
<g mask="url(#mask4_3367_875)">
<path d="M815.74 400.757L969.389 252.595V218.404L950.816 199.831H873.148L854.575 218.404V243.308H814.052V205.318L854.997 164.373H968.967L1009.91 205.318V264.414L857.107 410.887V424.817H1011.6V459.853H815.74V400.757Z" fill="#D4FE8A"/>
</g>
</g>
<defs>
<clipPath id="clip0_3367_875">
<rect width="1386" height="346" fill="white"/>
</clipPath>
</defs>
</svg>
