<svg width="44" height="44" viewBox="0 0 44 44" fill="none" xmlns="http://www.w3.org/2000/svg">
<g clip-path="url(#clip0_3085_830)">
<path d="M22.0085 24.4476C20.6563 24.4476 19.5684 23.3597 19.5684 22.0075C19.5684 20.6553 20.6563 19.5674 22.0085 19.5674C23.3607 19.5674 24.4486 20.6553 24.4486 22.0075C24.4486 23.3597 23.3607 24.4476 22.0085 24.4476ZM22.0085 20.4999C21.1847 20.4999 20.5009 21.1838 20.5009 22.0075C20.5009 22.8312 21.1847 23.5151 22.0085 23.5151C22.8322 23.5151 23.5161 22.8312 23.5161 22.0075C23.5161 21.1838 22.8322 20.4999 22.0085 20.4999Z" fill="#DABD94"/>
<path d="M9.40304 25.8611C8.19075 25.8611 6.994 25.6435 5.84387 25.2238L0.979159 23.4054C0.388555 23.1723 0 22.6283 0 21.991C0 21.3538 0.373013 20.7943 0.963617 20.5767L5.39315 18.836C7.67785 17.9345 10.2112 17.9034 12.5115 18.7427L17.687 20.6078C18.2932 20.8254 18.6817 21.3849 18.6817 22.0221C18.6817 22.6594 18.2932 23.2189 17.7026 23.452L12.9467 25.2238C11.7965 25.659 10.5998 25.8611 9.3875 25.8611H9.40304ZM9.09219 19.0691C7.95761 19.0691 6.82303 19.2867 5.73508 19.7063L1.30555 21.4471C0.963617 21.5869 0.932533 21.8978 0.932533 21.991C0.932533 22.0843 0.963617 22.3951 1.30555 22.535L6.17026 24.3535C8.25292 25.1306 10.5532 25.1306 12.6358 24.3535L17.3917 22.5816C17.7492 22.4573 17.7647 22.1309 17.7647 22.0377C17.7647 21.9444 17.7337 21.618 17.3762 21.4937L12.2006 19.6286C11.1904 19.2712 10.1335 19.0846 9.09219 19.0846V19.0691Z" fill="#183424"/>
<path d="M34.7214 25.8611C33.5091 25.8611 32.3124 25.6435 31.1622 25.2238L26.2975 23.4054C25.7069 23.1878 25.3184 22.6283 25.3184 21.991C25.3184 21.3538 25.6914 20.7943 26.282 20.5767L30.7115 18.836C32.9962 17.9345 35.5296 17.9034 37.8298 18.7427L43.0054 20.6078C43.6115 20.8254 44.0001 21.3849 44.0001 22.0221C44.0001 22.6594 43.6115 23.2189 43.0209 23.452L38.265 25.2238C37.1149 25.659 35.9181 25.8611 34.7059 25.8611H34.7214ZM34.4106 19.0691C33.276 19.0691 32.1414 19.2867 31.0534 19.7063L26.6239 21.4471C26.282 21.5869 26.2509 21.8978 26.2509 21.991C26.2509 22.0843 26.282 22.3951 26.6239 22.535L31.4886 24.3535C33.5713 25.1306 35.8715 25.1306 37.9542 24.3535L42.7101 22.5816C43.0676 22.4573 43.0831 22.1309 43.0831 22.0377C43.0831 21.9444 43.052 21.618 42.6945 21.4937L37.519 19.6286C36.5087 19.2712 35.4519 19.0846 34.4106 19.0846V19.0691Z" fill="#183424"/>
<path d="M21.9787 43.9998C21.357 43.9998 20.7975 43.6268 20.5643 43.0362L18.8392 38.6067C17.9533 36.322 17.9066 33.7886 18.7459 31.4883L20.611 26.3128C20.8286 25.7066 21.3881 25.3181 22.0253 25.3181C22.6315 25.287 23.2221 25.6911 23.4552 26.2972L25.227 31.0532C26.0818 33.3534 26.0818 35.8712 25.227 38.1715L23.4086 43.0362C23.191 43.6268 22.6315 44.0154 22.0098 44.0154L21.9787 43.9998ZM22.0253 26.2506C21.9321 26.2506 21.6057 26.2817 21.4813 26.6392L19.6163 31.8147C18.8702 33.9129 18.9013 36.2132 19.7095 38.2803L21.4347 42.7098C21.5746 43.0517 21.9321 43.0828 21.9787 43.0828C22.0719 43.0828 22.3828 43.0517 22.5227 42.7098L24.3411 37.8451C25.1182 35.7624 25.1182 33.4622 24.3411 31.3795L22.5693 26.6236C22.445 26.2817 22.1186 26.2506 22.0253 26.2506Z" fill="#183424"/>
<path d="M21.9787 18.6964C21.357 18.6964 20.7975 18.3234 20.5643 17.7328L18.8392 13.3032C17.9533 11.0185 17.9066 8.48515 18.7459 6.18491L20.611 1.00935C20.8286 0.403204 21.3881 0.0146484 22.0253 0.0146484C22.6625 0.0146484 23.2221 0.403204 23.4397 0.993808L25.2115 5.74973C26.0663 8.04997 26.0663 10.5678 25.2115 12.8681L23.393 17.7328C23.1754 18.3234 22.6159 18.7119 21.9942 18.7119L21.9787 18.6964ZM21.4813 1.32019L19.6163 6.49575C18.8702 8.59395 18.9013 10.8942 19.7095 12.9613L21.4347 17.3908C21.5746 17.7328 21.8854 17.7639 21.9787 17.7639C22.0719 17.7639 22.3828 17.7328 22.5227 17.3908L24.3411 12.5261C25.1182 10.4435 25.1182 8.14323 24.3411 6.06057L22.5693 1.30465C22.445 0.962723 22.1186 0.931639 22.0253 0.931639C21.9476 0.931639 21.6057 0.962723 21.4813 1.32019Z" fill="#183424"/>
<path d="M18.5893 20.1266C18.3717 20.1266 18.1541 20.08 17.9521 19.9868L13.3361 17.8886C11.1135 16.8783 9.32616 15.091 8.30038 12.8529L6.15555 8.12805C5.89133 7.55299 6.01567 6.88468 6.45085 6.43395C6.90158 5.98323 7.55435 5.85889 8.12941 6.10757L12.4968 8.01926C14.7504 8.99842 16.5533 10.7702 17.6102 12.9928L19.957 17.9663C20.2368 18.5413 20.1125 19.2096 19.6617 19.6759C19.3664 19.9712 18.9779 20.1266 18.5893 20.1266ZM7.52327 6.91576C7.30567 6.91576 7.16579 7.0401 7.11917 7.08673C7.057 7.14889 6.85495 7.39757 7.01037 7.7395L9.1552 12.4643C10.0722 14.4848 11.7041 16.1168 13.7246 17.0337L18.3406 19.1319C18.6826 19.2874 18.9312 19.0853 18.9934 19.0076C19.0556 18.9454 19.2576 18.6968 19.1022 18.3548L16.7553 13.3813C15.8073 11.3608 14.1598 9.75999 12.1238 8.87408L7.7564 6.96239C7.66314 6.9313 7.58543 6.91576 7.52327 6.91576Z" fill="#183424"/>
<path d="M36.478 38.0153C36.2604 38.0153 36.0584 37.9687 35.8408 37.8754L31.2247 35.7772C29.0022 34.767 27.2148 32.9796 26.189 30.7416L24.0442 26.0167C23.78 25.4417 23.9043 24.7733 24.3395 24.3226C24.7902 23.8719 25.443 23.7476 26.0181 23.9962L30.3854 25.9079C32.6391 26.8871 34.442 28.6589 35.4988 30.8814L37.8457 35.8549C38.1255 36.43 38.0011 37.0983 37.5504 37.5646C37.2551 37.8599 36.8665 38.0153 36.478 38.0153ZM25.4275 24.82C25.2099 24.82 25.07 24.9443 25.0234 24.9909C24.9612 25.0531 24.7592 25.3018 24.9146 25.6437L27.0594 30.3685C27.9764 32.389 29.6083 34.021 31.6288 34.938L36.2449 37.0362C36.5868 37.1916 36.8355 36.9895 36.8976 36.9118C36.9598 36.8341 37.1774 36.601 37.0064 36.259L34.6596 31.2855C33.7115 29.265 32.064 27.6642 30.028 26.7783L25.6606 24.8666C25.5674 24.8355 25.4896 24.82 25.4275 24.82Z" fill="#183424"/>
<path d="M7.49375 37.9846C7.1052 37.9846 6.73218 37.8291 6.43688 37.5494C5.98616 37.0986 5.86182 36.4459 6.1105 35.8708L8.02219 31.5034C9.00135 29.2498 10.7732 27.4469 12.9957 26.3901L17.9692 24.0432C18.5443 23.7634 19.2281 23.8878 19.6788 24.3385C20.1296 24.7892 20.2539 25.4575 19.9897 26.0481L17.8915 30.6642C16.8812 32.8867 15.0939 34.6741 12.8558 35.6998L8.13098 37.8447C7.92893 37.9379 7.71134 37.9846 7.49375 37.9846ZM18.622 24.8358C18.622 24.8358 18.4666 24.8514 18.3733 24.898L13.3998 27.2449C11.3793 28.193 9.77846 29.8404 8.89255 31.8765L6.98086 36.2438C6.82544 36.5858 7.04303 36.8189 7.1052 36.8966C7.16737 36.9588 7.41604 37.1608 7.75797 37.0054L12.4828 34.8606C14.5033 33.9436 16.1352 32.3272 17.0522 30.2912L19.1504 25.6751C19.3058 25.3332 19.1038 25.0845 19.0261 25.0223C18.9794 24.9757 18.824 24.8514 18.622 24.8514V24.8358Z" fill="#183424"/>
<path d="M25.3981 20.0959C25.0095 20.0959 24.6365 19.9405 24.3412 19.6607C23.8905 19.21 23.7661 18.5572 24.0148 17.9821L25.9265 13.6148C26.9056 11.3612 28.6775 9.55826 30.9 8.50139L35.8735 6.15452C36.4486 5.87476 37.1324 5.99909 37.5831 6.44982C38.0339 6.90054 38.1582 7.56886 37.894 8.15946L35.7958 12.7755C34.7855 14.998 32.9982 16.7854 30.7601 17.8112L26.0353 19.956C25.8332 20.0493 25.6156 20.0959 25.3981 20.0959ZM36.5107 6.94717C36.5107 6.94717 36.3553 6.96271 36.2621 7.00934L31.2885 9.35621C29.2681 10.3043 27.6672 11.9518 26.7813 13.9878L24.8696 18.3552C24.7142 18.6971 24.9318 18.9302 24.994 19.0079C25.0561 19.0856 25.3048 19.2721 25.6467 19.1167L30.3716 16.9719C32.392 16.0549 34.024 14.423 34.941 12.4025L37.0392 7.78645C37.1946 7.44452 36.9925 7.19584 36.9148 7.13367C36.8682 7.08705 36.7283 6.96271 36.5107 6.96271V6.94717Z" fill="#183424"/>
</g>
<defs>
<clipPath id="clip0_3085_830">
<rect width="44" height="44" fill="white"/>
</clipPath>
</defs>
</svg>
