<svg width="1076" height="812" fill="none" xmlns="http://www.w3.org/2000/svg"><g clip-path="url(#clip0_2666_6927)"><path fill="#A7946F" d="M-1 0h2410.59v1134.78H-1z"/><path d="M265.473 608.985L132.887 408.156h132.586v200.829zm-.001-407.507l137.135 205.378H265.472V201.478zm266.471 0l137.135 205.378H531.943V201.478zm265.822 0L934.9 406.856H797.765V201.478zm0 408.157L934.9 815.663H797.765V609.635zm-265.823 0l133.886 206.028H531.942V609.635zm.002 0L402.607 407.507h129.337v202.128zm265.82 0L669.078 407.507h128.686v202.128z" fill="#622E00"/><path d="M531.944 202.128L402.607 0h129.337v202.128zm-266.473 0L136.785 0h128.686v202.128zm532.293 0L669.078 0h128.686v202.128zM265.471 608.985l133.236 206.678H265.471V608.985zm-266.472 0l133.235 206.678H-1.001V608.985zm.651-407.506l133.237 206.028H-.349V201.479zm1076.93 412.056L939.449 407.507h137.131v206.028zm0-407.506L939.449.65h137.131v205.38z" fill="#622E00"/></g><defs><clipPath id="clip0_2666_6927"><path fill="#fff" d="M0 0h1076v816H0z"/></clipPath></defs></svg>