<svg width="599" height="494" fill="none" xmlns="http://www.w3.org/2000/svg"><path d="M365.337 471.069l8.939-72.758 7.624-59.626 8.084-66.126.197-6.895-.46-3.743-.657-2.232-1.183-2.758-1.183-1.97-1.183-1.445-7.164-7.223-10.056-7.289-.46-.591-.395-.591-.197-.46-.263-1.445-.657-42.092-.131-.985-.198-.591-.262-.591-.395-.591-.394-.394-.329-.262-9.07-3.612-.591-.394-.526-.591-.789-1.182-4.666-4.597-.657-.394-.592-.197-.723-.065-4.206.788h-.657l-.658-.132-.723-.197-.657-.328-6.967-5.056-1.774-.985-1.249-.46-1.249-.263-4.732-.131-1.183-.263-.657-.262-1.183-.854-2.695-2.561-1.774-2.167-.592-.525-.592-.329-.657-.131-2.037-.197-1.315-.394-8.084-4.662-.591-.591-.723-.854-.329-.854-.789-2.758-.394-.788-.46-.656-1.183-1.117-2.432-1.773-.328-.197-.329-.394-.723-1.116-.263-.657-.131-.591v-.591l.065-.525.263-.919.723-1.839.592-1.051 4.732-5.778 1.38-2.036 9.99-18.846 1.709-2.561 2.235-2.496 2.76-2.561 4.009-2.232 13.408-5.056.394-.394.46-.132 1.249-.262 1.249-.263 3.155.394 3.154.394 3.221.394 3.155.394 2.826.328 2.826.394 2.826.394 2.826.394 1.578.197.328.591 1.38 2.298 1.578 4.334.131.854.132 1.707.263.985.394.985.394.723.658.525.591.46.592.591.197.853h1.511l5.061-.065 5.061-.066 4.995-.066 5.061-.065.657.722.394.263.723.328.066.263.263 1.379v1.116l-.197.722-.657-.262-.132.197-.066.131v.131h.526l.46-.131.395-.263.131-.525.329.263v.262l-.329.591-.131.854-.066.394.197.722.329.657 2.366 2.627.131.394-.394.591-.197.591v.656l.131.657.263.525.92 1.248.197.328-.065.394v.132l.46.262.92.394.328.066.986-.066.263.132.526.262.329.066.131.131v.197l-.066.197-.131.132-.197.131h-.197l-.198-.131-.46.262-.131.197v.46l.263.46.591.591.657.459.526.263v.131l.657.985 1.118 1.117.131.328-.263.657v.788l.132.131-.066.263-.263.459-.394.526-.395.328.263-.394v-.263l-.065-.788.065-.459.198-.263.065-.263-.131-.459-.395.459-.46 1.182-.46.329.526-1.379.066-.394-.197-.591-.197.065-.263.46-.526 2.233v.525l-.066.066-.131.197.065.197.329-.066.131-.131.198-.526.197-.197v1.445l.131.328.263-.065.263-.263.131-.328.263.328v.46l-.065.525.394.131.263-.197.197-.262.132-.329v.526l-.066.197-.132.131.132.328v.197l-.197.066-.329.066.329.656.065.197-.657-.328h-.329l-.197.328.592.263h.526l.394-.328.263-.591h.197l.197.459-.328.394-.132.591.132.526h.525l.198-.197-.132-.263-.197-.197-.066-.197.197-.328.329-.132.657-.197.526-.065.394.197.986.985 1.052.525.263.394-.526.394.394.131h.395l.131-.262-.131-.329.46.197.526.132 1.051.131.263-.131.46-.263.263-.066h.263l.591.197h.329l.526.197.46.394.657.92.197.197.197.131.198.131.197.263.066.197.065.591.066.263h-.394l-.198-.132-.065-.328.065-.394h-.197l-.591.722-1.578-.197-.525.591h-.263l-.197-.591h-.461l-1.051.591.197.132.657.131.329.197.197.131.197.197.197.132.329.197.197.197.132.131.197-.066.46-.459v-.066l.131-.131.066-.197.132-.132.131.132.263.197.263.131-.197.46-.263.197-.329.131-.197.328-.066.329-.066.788-.065.394.328-.066.329-.197.329-.263.262-.262.329-.066.394.066.592.328-.263.657.132.591.197.656.131.657-.066 1.313.132.591.46-.065v.591l.197.197.329-.066.263-.263-.132-.525.263-.263.46-.065.395.394.197-.263.131.394-.066.328-.197.329-.065.394-.132.262-.197.132h-.329l-.328-.066.263.394.657.131.263.329.263-.132.197-.262.328-.657v.131h.066l.132.066-.329.591.263.066.723-.197.46.065.723.329h.46l-.723-.788-.263-.526.394-.394.395-.065.263.197.263.197.262.131.198-.131.591-.526-.131.46-.263.788v.46l.197.722.131.394.132.197.526.263.525.591 1.644 2.561.854 1.05.263.197.789.329.262.262.395.394.328.263 1.709.788 1.118.788.657.066h.657l.657.065.92.526.789.788 1.446 1.97.46.853 2.103 1.511.46.525.066.788-1.249-1.116-.723-.46-1.511-.197-.395-.131-.263-.329-.262-1.182-.263.197-.263.526-.132.525v.788l.132.328.197.329.263.262.066.197-.132 1.905.066.525.788 2.43.329.525.46.46.46.328 2.432.854.854.722.526 1.051.197 1.444v3.481l-.131.722-.263.657-.591.328v-.46l-.198-.197-.328.132-.263.328.197.788-.066 1.248-.263 1.247-.262.854-.395-.328-.131-.46v-.525l-.066-.46-.197-.394-.263-.197-.263-.197-.197-.263-.132-.131h-.131l-.131-.066-.066-.919-.066-.197-.066-.197-.263-.328-.328-.329-.395-.262-.262.131-.789 1.445-.197.197-.329.197.132.394.328.459.132.132.065.262.263.394.066.329-.066.065-.197.066-.197.131-.132.263.066.46.132.459v.46l-.198.46.461.197.46-.263.197-.46-.132-.525.263.066.197.131.329.46.131.065.132-.065.066.065.065.197v.329h.263l.723.197.329.459.131.526.329.591v.197l-.592.591.329 1.444.657 1.642.526 1.051 1.709 2.101.723 1.182.328 1.445h-.197l-.526-1.445-.197-.263-.328-.065-.395-.197-.394-.263-.329-.525-.46-.329-.394-.065-.131.591.262.459.723.526.198.328.131-.328.066-.132h.197l1.051 2.233 3.287 4.203.723.656-.066-.394-.197-.525-.066-.394.197-.131.329-.197.131.065.132.723.131.197.132.065.065.066.198.46.525.262.986.263.263.328.526 1.379-.197.197.328.526.395.787.328.92.132.722v.394l-.197.657v.394l.065.46.132.262.131.197.132.526.394.787.131.46-.197 1.313.197 1.248.263.722.329.394.197-.591.723.591.789.985.328.526.46.459.592 2.036.657.46.592.525.263 1.248.065 1.904.066.328.263.591.329.526.263.262h.46l.525-.525.066-.066.066.066 2.037 3.349 1.315 1.51 1.446.657 1.709.197h1.577l.46-.131 1.052-.329 1.906-1.576.065.263h.197l1.249-.197.263.131.066.066.066.131.131.132.197.197.329-.263.066.197v.066l-.066.262-.066.263-.197.066-.197.197.065.328.132.263.066.065-.066 1.051.197.197.46-.197.395-.263.788-1.379.066-.131.329-.263.328-.262.263-.394v-.723l.394.263h.526l.46.131.132.394.197.394.329.066h.46l.394.263v.262l-.46.197-.592.197-.46.263-.263.46h-.065l-.658.722-.131.263-.131.394-.132.197-1.709 1.247-.263.394-.065.132-.395.525-.131.263-.066.328-.066.722-.065.263v.591l-.066.066-.329-.066-.131.066-.066.065v1.051l.132.131 1.774.197.657-.197.329-.197.263-.197.263-.197.394-.065 1.906.394.46.394.855.985 1.248.328.132 1.248v.788l-.066 1.97.197.788.395.722 1.643 2.101 1.446 1.97 1.511 1.905 1.446 1.904 1.512 1.97 1.446 1.904 1.512 1.905 1.445 1.904 1.512 1.904 1.446 1.97 1.512 1.905 1.446 1.904 1.511 1.904 1.446 1.905 1.512 1.904 1.446 1.904 1.511 1.905 1.512 1.97.592.525.657.197 4.601.657 3.943.525 3.944.525 3.943.526 3.943.525 3.944.525 3.943.526 3.944.525 3.943.525 3.944.526 3.943.525 3.944.525 3.943.526 3.944.525 3.943.525 3.943.526 3.944.525 3.878.525.394-.131 1.906-2.43 1.774 3.021 2.301 3.809 2.3 3.808 2.301 3.875 2.3 3.808 1.512 2.496.262.656v.723l-1.051 3.48-.132.394-.197.657-.526 1.707-.788 2.627-1.052 3.414-1.249 4.071-1.446 4.531-1.445 4.794-.395 1.182-1.183 3.809-1.577 4.99-1.446 4.794-1.446 4.531-1.249 4.006-1.051 3.414-.789 2.627-.526 1.642-.197.656-.92 2.89-4.272 1.51-4.864 1.707-4.864 1.708-4.797 1.707-4.864 1.773-4.864 1.707-4.863 1.708-4.864 1.707-4.863 1.707-4.864 1.708-4.864 1.707-4.797 1.707-4.864 1.773-4.864 1.708-4.863 1.707-4.864 1.707-4.863 1.708-3.024 1.05-.131.066-.526.066-3.943.525-4.535.657-4.535.656-4.535.657-4.535.657-4.535.656-4.601.591-4.535.657-4.535.657-4.535.656-4.535.657-4.535.591-4.535.657-4.535.656-4.6.657-4.535.657-2.104.262-2.431.394-3.681.46-2.235.854-.197.131-.526.263-.657.328-.657.328-.657.329-.658.328-.197.066-.525.262-.592.329-.789.394-.591.328-4.535 2.298-5.455 2.824-4.864 2.495-3.615 1.839-.197.197-.46.263-2.169 2.758-2.563 3.283-4.535 5.582-4.206 5.319-2.761 3.48-.46.919-1.38 3.677-1.906 5.254-.789 1.05v.066zm60.598-314.608l.526.263 1.511.394 1.446.459-.525.197-.395-.131-.46-.197-.46-.131-.46.065-.46.197-.394.263-.329.328-.263-.197h-.131l-.198-.131-.197-.066v-.197l.395-.197.065-.131-.131-.197-.132-.131-.065-.132-.329-.131-.329.066-.262.065-.263.066-.395.197-.328.328-.329.526-.197.525-.066-.854.526-.788.789-.591.854-.197.329.066.263.131.394.263z" stroke="#183424" stroke-width="1.4" stroke-linecap="round" stroke-linejoin="round"/><path d="M336.943 101.039l-.394.394-13.408 5.056-4.009 2.233-2.76 2.561-2.235 2.495-1.709 2.561-9.99 18.846-1.38 2.036-4.732 5.778-.592 1.051-.723 1.839-.262.919-.066.525v.591l.131.591.263.657.723 1.116.329.394-1.183 1.708-.592.328-.723.328-.657-.065-.592-.263-.525-.394-.395-.525-.065-.066-.132-.197-.526-.46-.394-.919-.723-.854-4.732-4.268-.657-.46-1.249-.722-.986-.328-8.741-1.379-.789-.263-.986-.46-.723-.591-.723-.656-.986-1.379-2.366-6.304-4.798-8.668-.46-.657-.657-.525-.789-.263-.985.066-.789.328-3.286 2.167-1.118.526-.657.131-.723-.066-1.117-.394-3.024-1.576-.788-.262-.986-.066-2.826.263-.723-.066-.789-.197-.986-.657-.657-.722-.394-.985-.197-.722-.066-.394-.132-2.43-.065-.263-.263-.262-.592-.329h-.986l-.854.132-.789.394-2.3 1.247-.789.329-.854.197-.92.065-1.052-.131-1.38-.525-.986-.657-.854-.657-3.418-4.137-.657-.591-.592-.394-1.314-.525-9.728-2.233-.723-.065-3.023.197-3.483.853-.723.132h-.723l-.986-.197-6.901-2.233-.92-.131-1.183-.066-2.038.263-15.051 3.48h-.657l-1.643-.394-3.286-1.379 4.009-4.006.46-.656.263-.657.131-.46.066-.197.723-10.835.132-.656.197-.723.394-.656.526-.657.723-.722 3.089-2.364 23.661-14.775 2.366-1.905 1.249-1.313.525-.657.132-.656-.197-.657-.526-.591-4.272-3.283-1.38-1.314-.461-.722-.854-1.445-1.249-3.02-.394-.526-.723-.919-.526-.591-1.051-.657-.855-.328-3.352-.46h-2.3l-1.578-.197-.92-.328-.788-.394-5.653-4.53-.92-.46-1.051-.263h-2.827l-1.708.262-15.511-.394-2.629-.59-.986-.395-.723-.394-2.103-1.838-.657-.526-.658-.394-.92-.197-19.191-3.02-3.747-.066-8.741 1.313-12.619 1.248-1.38-.066-1.249-.328-.657-.263-.657-.328-.592-.525-.46-.657-.986-1.707-.526-1.117-.788-1.444-.92-1.314-.855-.853-2.498-1.773-.46-.591-.197-.526-.065-.46-.066-.196-.132-.854-.131-2.035.131-1.117 3.418-12.674 5.324-1.575 6.375-1.84 6.375-1.838 6.375-1.904 3.221-.92.986-.393 3.417-3.218.526-.46.263-.065h.132l.065-.066h.066l.066-.066 5.652.985 5.587.985 5.586.92 5.652.985 2.235.394 9.727 1.904 1.512.59 1.577.92 2.892 1.708 2.498 1.51 2.497 1.51 2.498 1.445 2.497 1.51 2.498 1.51 2.432 1.445 2.497 1.51 2.498 1.51 2.497 1.445 2.498 1.51 2.497 1.446 2.498 1.51 2.432 1.51 2.497 1.445 2.498 1.51 2.497 1.445 2.498 1.51 1.906 1.642 2.431 2.101 2.367 2.036 2.366 2.101 2.431 2.101 2.695 2.299 2.695 2.364 2.694 2.364.526.46 2.103 1.838h.066l2.958 2.495 2.497 2.036 2.498 2.036 2.497 2.035 2.498 2.036 3.286 2.627 3.221 2.626 3.286 2.693 3.22 2.626 1.38 1.117 1.906 1.51 3.221 2.627 3.22 2.626 3.287 2.627 2.694 2.233 2.695 2.167 2.695 2.167 2.694 2.232 2.235 1.708.131.065.198.132.197.065.197.066 2.563.197 2.301.197 2.234.263 2.235.197 2.3.197 2.892.262 2.892.263 2.892.263 2.957.262 2.892.263 2.892.263 2.892.262 2.892.263 2.169.197 2.169.197 2.169.197 2.168.197 2.958.263 1.249-.263.788-.131z" stroke="#183424" stroke-width="1.4" stroke-linecap="round" stroke-linejoin="round"/><path d="M97.312 54.547l-.197.131-2.038 1.182-3.483 1.905-3.023 1.773-.657.525-.395.591-.854 2.036-.986 2.495-.986 2.298-1.249 3.087-.591.525-3.352.722-3.812.788-4.01.788-4.074.854-2.564.525-2.431.526-.79.394-.656.722-1.578 2.692-1.314 2.233-1.775 2.955-1.84 3.086-2.169 1.839-3.286 2.758-3.023 2.495-3.09 2.496-.722.328h-.723l-2.958-.46-3.286-.59-1.643-.263-3.352-.591-4.207-.723-3.943-.722-4.404-.722-3.351-.591-3.155-.591-.132.525.066.525.263.46h-.132l-.065.066v.197l-.395-.197-.065.46.065.722.198.525-.658.394-.263.263-.065.46.065.196-.328.723-.132.46-.591 2.889-.263.722-.329.591v.46l.329.788-.197 1.379-.46 1.313-.395.722v.197l.46.197v.132l2.432-.066.92-.197.986.066 2.3.591 4.075.394.723-.132.46-.262.986-.985.986-.46 1.183-.394 5.85-1.116 3.746-.263 2.235-.394h1.84l5.587 1.379.657.328 1.248.854.92.854 7.296 9.521.197.197.197.132 1.183.394h1.118l3.154-1.182 6.77-1.511h2.235l1.643.263 4.338 1.445 2.366.459 4.863.329.789-.197.657-.329.46-.591.329-.656 1.183-2.955.328-.657.395-.657.591-.525 1.906-1.182L89.228 108l.592-.197.657.131.525.394.263.657.132.722-.263 5.188.066 2.889.197 1.839.328 1.379.46 1.116.33.657.46.656.46.591 1.905 1.576 1.315.788 3.089 1.051 1.774.394 5.653.591 1.051-.066.92-.328.723-.328.92-.263.658.131.986.591.591.197.526.066h1.249l.788 1.904.46.526.592.394.723.065.657-.065.723-.329 2.958-1.51.854-.197.986-.197.723.066.46.131.394.197 1.118.919 3.089-3.414.657-.46.723-.46 10.713-5.122 4.929-1.379 10.516-5.975 10.779-4.466.591-.065 1.775.459 4.009-4.005.46-.657.263-.657.132-.459.065-.197.723-10.835.132-.657.197-.722.394-.657.526-.657.723-.722 3.089-2.364 23.661-14.775 2.366-1.904 1.249-1.314.525-.656.132-.657-.197-.657-.526-.59-4.272-3.284-1.38-1.313-.46-.723-.855-1.444-1.249-3.02-.394-.526-.723-.92-.526-.59-1.051-.657-.855-.329-3.352-.46h-2.3l-1.577-.196-.921-.329-.788-.394-5.652-4.53-.921-.46-1.051-.263h-2.826l-1.709.263-15.511-.394-2.629-.591-.986-.394-.723-.394-2.103-1.839-.657-.525-.658-.394-.92-.197-19.191-3.02-3.746-.066-8.742 1.313-12.619 1.248-1.38-.066-1.249-.328-.657-.263-.657-.328-.592-.526-.46-.657-.986-1.707-.526-1.116-.788-1.445-.92-1.313-.855-.854-2.497-1.773-.46-.59-.198-.526-.065-.46-.066-.197-.132-.854-.13-2.035.13-1.116 3.418-12.674-1.051.263-5.324 1.641-1.709.46-7.032 2.101-6.967 2.102-5.981 1.838-1.052.328 3.68 4.006 3.681 4.006.066.066 3.615 3.94 3.68 4.005.132.066.066.131.066.131.13.066 3.09 3.678 3.089 3.677 3.155 3.677 3.089 3.678 1.38 1.641zm0 0h.066m276.9 343.765l-8.939 72.758h-.065l-.592.394-.591.328-.592.329-.197.197-1.249.722-3.483 2.036-.658.262h-4.666v.066l-.197-.066h-.394l-.329-.197-2.432-3.349-2.037-2.955-1.841-2.561-1.051-.591-6.31.854-4.732.657-6.835-.723-5.39-.525-7.032-.722-6.047-.657-1.248-.394-4.667-2.692-1.577-.329-4.798-.065h-4.207l-5.717-.066h-.066l-.526.131-1.709.657-.066.066h-.854l-1.906-.394-1.775-.066-2.694.263-2.169.525-.592.066-1.183-.394-.591-.066-.395.328-.262.46-.132.263-.46.525-.526.263-.723-.132-1.117-.525-.46-.066-.592.329h-.065l-.395.525-.131.263-.263.328-.394.394-.723.131-.329-.065-.131-.132-.132-.131-.066-.197.066-.591v-.328l-.197-.132-.657.263h-.526l-.789-.066-.328-.065-1.052.131h-.526l-.526-.197-.657-.46-.526-.459-1.446-1.642v-.919l.789-3.021-.066-1.576-.591-1.773-.066-.722v-.854l.263-1.182.723-6.567-.066-1.247-.263-1.248-.46-1.313-.263-1.314v-.722l.263-.854.592-1.116.723-.919 4.601-4.86 3.154-2.758.92-.919.329-.525.329-.591.657-1.642.394-.722.657-.657.658-.46.657-.262 1.972-.394 1.248-.46 1.315-.657 1.249-.853.526-.526.394-.525.394-.591.263-.788.197-.788.066-1.116v-1.051l-.131-1.313-.986-3.809v-.722l.197-.788.723-1.117.657-.591 1.84-.985.46-.328.263-.394.197-.657.132-.985v-3.808l7.887 4.99 2.037.985 1.512.591 2.695.657 7.295.46 66.447-7.158 3.681-1.05z" stroke="#183424" stroke-width="1.4" stroke-linecap="round" stroke-linejoin="round"/><path d="M282.722 398.835v3.809l-.131.985-.197.656-.263.394-.46.329-1.84.985-.658.591-.723 1.116-.197.788v.722l.986 3.809.132 1.313v1.051l-.066 1.116-.197.788-.263.788-.395.591-.394.526-.526.525-1.249.854-1.314.656-1.249.46-1.971.394-.658.263-.657.459-.657.657-.395.722-.657 1.642-.328.591-.329.525-.92.92-3.155 2.758-4.601 4.859-.723.919-.591 1.117-.263.853v.723l.263 1.313.46 1.313.263 1.248.066 1.248-.723 6.566-.263 1.182v.854l.065.722.592 1.773.066 1.576-.789 3.021v.919l-.526-.591-1.183-.722-.657-.263-1.446-.656-.46-.132h-.986l-.526-.131-.591.066-.658.262-1.38.854-.854-1.313-1.512-2.233-.46-.591-.591-.525-2.169-.788-.526-.394-.46-.591-.855-1.905-.394-.591-.723-.722-2.235-1.773-.46-.788-.131-.722.066-1.248-.132-.525-.394-.46-1.117-.197h-.198l-1.314.788-1.183.854-.526.525-.394.591-.592 1.182-1.314 4.925-.263.591-.394.394-.526.263h-.592l-.591-.263-.723-.46-2.629-2.758-.46-.722-.395-.722-.197-.591-.328-.657-.592-.525-.789-.46-.657-.131-4.469-.066-.657-.197-.592-.328-.591-.723-.329-.591-.329-1.116-.197-.263-.46-.525-.723-.394-.657-.197-.592-.066-1.906.263-.591-.131-.46-.46-.263-.788v-1.379l.591-3.546v-.657l-.131-.525-.263-.46-1.117-.328-3.221.263.986-3.809.132-.788v-.788l-.198-.919-1.971-5.91-.329-.591-.46-.46-.526-.328-.591-.197-1.249-.263-1.183-.066h-3.089l-.592-.131-.526-.328-.525-.46-.329-.591-.197-.657-.197-.591-.132-1.247.197-6.961.066-.591.263-.263.46.197.46.394.592.263.526.066.525-.263 1.446-1.116 1.249-.723.657-.197.592-.131h.657l3.155.328h.394l.394-.131.526-.197.526-.394.394-.525.263-.591.986-3.087v-.722l-.197-.722-1.183-2.036-.131-.591-.066-.788v-.722l.854-3.94.066-.591v-.591l-.197-.657-.329-.591-.46-.525-.329-.263-.394-.197-.591-.066-1.183.066-1.249.525 2.826-6.238.46-1.51.131-2.101.263-.854.395-.788.657-.591 3.352-2.364.591-.591.658-.919.197-.723-.132-.722-.328-.525-.723-.723-.197-.919-.066-.788 1.38-4.662.526.853 2.892 5.976.46.657.526.459.591.329.657.197.789-.066.92-.263 1.578-.853.92-.723 7.229-6.501 5.587-3.086.789-.657 1.117-1.116.723-.46.789-.328.985-.197 1.775-.066.46-.065.526-.197 1.774-.723.921-.262 1.183-.197.788.065.789.132 1.775.656.854-.065.986-.329 4.469-2.626 3.023-1.182 4.141 3.743 1.512 1.838.92 1.445 1.709 2.233 2.3 2.626.394.723.198.656.065.526-.065.591v.131l-.198.591-.263.525-1.643 2.693-.525 1.116-1.118 5.188v.722l.197.985.46.722 1.578 1.905 2.76 4.596 11.173 10.31.46.328z" stroke="#183424" stroke-width="1.4" stroke-linecap="round" stroke-linejoin="round"/><path d="M204.836 434.756l3.221-.263 1.117.328.263.46.131.525v.657l-.591 3.546v1.379l.263.788.46.46.591.131 1.906-.263.592.066.657.197.723.394.46.525.197.263.329 1.116.328.591.592.723.592.328.657.197 4.469.066.657.131.789.46.591.525.329.657.197.591.395.722.46.722 2.629 2.758.723.46.591.263h.592l.525-.263.395-.394.263-.591 1.314-4.925.592-1.182.394-.591.526-.525 1.183-.854 1.314-.788h.198l1.117.197.394.46.132.525-.066 1.248.131.722.46.788 2.235 1.773.723.722.394.591.855 1.905.46.591.526.394 2.169.788.591.525.46.591 1.512 2.233.854 1.313-1.117.722-1.709 1.445-.723.657-1.38 1.707-.066.131 1.578.526.591.459.197.46.066.131-.066.591-.657.329-.657.197-.723.262-.592.526-.197.525.066.722-.197.591-.592 1.182-.131.591.065.526.263.459.132.657v.657l-.132.591-.46 1.116-.197.722.132.526.591 1.116.329 1.116.328.263 1.052.263.328.262.198.329v.394l-.066.262-.263.197-.263.132-.263.131-.394.657.066.394.263.459.197.657v.066l-.197.525-.263.066-.198.065-.657-.197-.526-.131-.657-.131-.394.131-.132.394-.065.657-.066.525-.723 1.97-.394.46-.526.394-.066.065-1.249.723-.394.197-.329.065-.788.132-.329.131-.066.394.066.46v.459l-.197.46-.789.525-.986.394-.197.132-1.117.394-.066-.132v-1.05l-.197-.329.394-.919-.197-.591-1.38-1.51-.329-.723-.065-.525v-1.313l.328-1.248v-.525l-.526-.132.198-.262-.329-.329-.263-.459-.066-.394.263-.197-.131-.329-.789-.722-.197-.197-.394-.525-.658-.723-.197-.197-.854-.459-.329-.066-.329.197-.92-1.379.395-1.313-.197-.46v-1.445l-.132-.525-.263-.131-.328-.197-.066-.329-.263-.262-.526-.066h-.986l-.328-.328-.263-.46-.395-.854-.131-.394-.131-1.05-.132-.394-.263-.263-1.249-.525.066.525.197.46.526.853-.591.329.262 1.97-.262.525-.198-.591v-2.036l-.131-.656-.394-1.117-.46-4.005-.198-.723-.131-.525.197-1.51-.066-.591-.197-.723-.197-.262-.263-.066-.328-.066-.198-.065-.131-.132-.066-.262-.197-.329-3.023-2.626-.263-.066-.066.131-.197-.262-.329-.591-.526-.788-.197-.526-.131-.262-.197-.066-.658.131-.262-.065-.132-.394-.131-.263-1.249-1.248-.066.066-.131.066-.263.065h-.132l-.263-.262-.854-1.248-.329-.197-1.643-1.576-.657.263-1.052-.723-.657.066-.263-.788-.46-.46-.657-.459-.526-.526-1.183-1.51-.197-.525.066-.394.065-.329-.065-.197-.329-.131-.263-.066v-.525l-.066-.197-1.183-1.051-.46-.656.263-.526-.131-.197.526-1.247.263-.526.46-.525.525-.328 1.775-.985.526-.525.328-.46.526-1.182zm11.765 47.805v.394l-.066.525-.197.657.066.525.263.854-.263.591v.066l-.658-.066-.788-.919-.658-.263h-.591l-.329-.328.855-.329.46-.328-.197-.657-.723-.394-.723.132-.855.065-.591.132-.526.328-.46.263-.526-.197-.657-.591-.46-.46-.657-.131-.723-.526-.723-.591-.329-.591-.197-.919-.46-.328h-.526l-.329-.066.066-.197v-.657l-.46-.525-.263-.591.066-.525.394.131.197.197.329.263 1.117.525.592.722.328.394.066.723v.328l.526.591.46.394.197.131 1.052-.131.328.591h.526l.592-.197h.525l.329.328v.329h.329l.854-.329-.789-.197-.46-.656.395-.526.197-.853.197-.263.394-.066.132.066.263.131.788.46v.46l.395.656-.066.329.723.065.197.591 1.052.46zM209.043 480l-.395-.328-.46-.526-.723-.919-.591-.854-.198-.328.329-.263.657-.065.526-.132.329-.328.263-.525h.328l.066.065.131-.591-.197-.722-.394-.197-.394-.197h-.329l-.657-.131-.329-.066-.131-.131.263-.197.262-.132.066.263.92.066.723.328.46.525.066.132.131.788v.591l-.131.656.131.526.921.197.263.656-1.184.066-.328.394.131.525.723.263.395.197.525.263.198.722v.328l-.855-.525-1.051-.263-.46-.131zM8.323 107.211l2.432-.066.92-.197.986.066 2.3.591 4.075.394.723-.132.46-.262.986-.985.986-.46 1.183-.394 5.85-1.116 3.746-.263 2.235-.394h1.84l5.586 1.379.657.328 1.25.854.92.854 7.295 9.521.197.197.197.132 1.183.394h1.117l3.155-1.182 6.77-1.511h2.234l1.644.263 4.337 1.445 2.367.459 4.863.329.789-.197.657-.329.46-.591.329-.656 1.183-2.955.328-.657.395-.657.591-.525 1.906-1.182 1.775-1.707.591-.197.658.131.525.394.263.657.132.722-.263 5.188.066 2.889.197 1.839.328 1.379.46 1.116.329.657.46.656.46.591 1.906 1.576 1.315.788 3.089 1.051 1.774.394 5.653.591 1.051-.066.92-.328.723-.328.92-.263.658.131.985.591.592.197.526.066h1.249l.788 1.904.46.526.592.394.723.065.657-.065.723-.329 2.958-1.51.854-.197.986-.197.723.066.46.131.394.197 1.118.919.525.657.46.328.658.263 9.135 2.167 1.578.591 1.051.591.592.722.131.132.658.656.854.591 1.709.854 3.352 2.758 1.643 1.642.394.656.263.723 3.089 12.542.329.591.46.591.394.46 1.117.722 3.418 1.839.657.591.592.722.131.657-.065.656-.263.657-.46.657-.526.591-3.484 3.02-1.314 1.773-.854 1.708-1.644 5.122-.525 1.05-.46.657-.461.328-.92-1.444-.525-.394-.658-.394-.591-.066-11.831 1.773-2.826.066-1.38-.197-1.117-.394-3.418-2.627-3.549-1.313-1.052-.526-.657-.591-.46-1.247-.329-.657-.657-.525-.526-.066-.328.328v.591l.131.591.066.657-.131.46-.723.328-.658-.066-.723-.197-2.103-.985-.92-.328h-.657l-.657.066-.395.197-2.497 2.035-.789.526-.854.197-.592-.197-.263-.46v-.591l.066-.657v-.656l-.197-.591-.46-.526-1.775-1.116-.46-.525-.197-.526-.066-.525.066-.263v-.262l-.066-.394-.263-.46-.46-.328-.591-.263-.658-.066-2.826-.131-1.249-.197-.788-.46-.657-.525-1.578-2.43-.591-1.116-.526-1.313-.789-2.89-.263-.525-.394-.591-.723-.525-.526-.197-.526.065-5.323 2.89-.592.197-.657.131-.657-.066-1.183-.197-.855-.328-2.366-1.51-1.314-.591-.855-.132h-.788l-.592.197-7.295 3.481-3.287.788-.591.328-.526.46-.131.525.131.525.46.329.592.065 1.84-.328.526-.066.394.066.46.197.526.328.394.46.263.394.263.591.395 1.904.065.854-.066 1.773-.591 4.268.066 1.379.131.723.197.722.263.657.395.656.46.591.591.591.657.46.658.263 3.286.985.591.328.526.591.263.722.066.788-.197.657-.197.525-1.71 2.824-.525 1.313-.132.657-.065.657.065.656.198.657 1.643 3.283.394 1.314.329 1.313.131.525.263.394.394-.131 1.052-.854.591-.197.658.066 5.06 2.955.46.328.132.197.131.066.395 1.773.263.657.328.591.526.656 3.68 3.087.526.591.395.591.46.919.854 2.364.986 3.809.263.656.066.066.197.066.46.131 1.775.131.591.066.394.263.395.328.197.591.066.591-1.052 7.158.394 10.309-.131.46-.263.591-.591.788-.658.525-.657.328-.723.132-1.38-.066-1.249-.263h-.657l-.592.066-.657.394-.591.657-.79.985-.656.656-.723.46-.658.263-.591.197-1.117.131h-2.3l-.592.131-.592.263-.46.525-.329.526-.197.591-.328 1.838-.066.197-1.775-2.626-1.774-2.43-.789-1.116-.066-.854.132-.263v-.262l-.066-.329-.066-.197-.197-.131-.394.394h-.263l-.526-.263-.328-.525-.526-1.116h.723l.657.131h.657l.658-.263.394-.525v-1.576l.657-1.313-.066-.657-.591-1.313-.132-.788.132-1.839v-.722l-.197-.657-.197-.591-.33-.591-.59-.656-.33-.329-.262-.197-.263-.262-.263-.591-.263-.197-.591-.46-.526-.657-.46-.656-.395-.723-.065-.328-.066-.722-.066-.263-.131-.263-.46-.459-.132-.329.46-.328-.394-.722-1.249-1.314-.197-.394-.46-1.313-.197-.263-.329-.262-.197-.132v-.591l-.066-.197-.263-.328-.394-.919-.197-.329-.394-.262-.855-.394-.328-.197-1.118-1.773-.723-.92-.591-.065-.066.394.197.328.066.328-.329.197-.328-.131-.855-.591-.46-.131-.263-.197-.591-.788-.197-.329-.066-.197.066-.656-.066-.197-.329-.066-.197-.197-.328-.788-.066-.722.263-.723.591-.656.395-.657.131-.854-.131-.919-.263-.722-.658-.723-.92-.459-.986-.263-.92-.066-1.051-.394-.658-.853-1.84-4.334-.657-1.051-1.183-1.707-2.103-5.188-2.235-4.006-1.38-1.773-1.643-1.444-.723-.854-.46-1.379-.855-1.51-.591-1.97-.46.131-.395-.328-.723-1.117-1.84-1.641-2.234-2.955-.79-1.576-.13-.263v-.328l.065-.263.263-.46.066-.262-.132-.394-.723-.985-2.366-2.89-1.314-.919-.395-.328-.657-.788-.789-1.248-.854-.854-1.052-2.035-.328-.788-.066-.657-.066-1.182-.131-.591-.263-.394-.92-1.051-.526-.853-.723-1.905-.591-.853-.263-.197-.592-.197-.197-.132-.131-.262-.132-.394-.328-.657-.132-.854-.263-.459-1.446-1.708-.46-.788-.263-.262-.46-.263-1.38-1.051v.197h-.197l-.263-.394.329-.328.657-.328.46-.263.328.131-.065-.197-.263-.459-.132-.066-.788-.197-.263-.131h-.197v.262h-.132l-.131-.197-.197-.262-.198-.132-.197-.065h-.723l-.394-.394-1.315-.92-.262.197h-.658l.132.132.065.197.132.131-.263-.197-.329-.197-.328-.131-.329.197-.263.197-.92.262-.197.132-.197.131-.066.263h-.197v-.263h-.197l-.395.131-.591-.131h-.526l-.394.46-.132-.132-.131-.065v-.263h.263v-.197l-.132-.263.132-.131.263-.197.262-.066-.262-.131h-.592l-.263.131v.197h.197v.263l-.328.066-.197.262-.263.526-.132-.132h-.066l-.065-.065h-.132l.132-.197.131-.197.263-.132.263-.131v-.46h-.394l-.329.066-.197.197-.066.394-.131-.131h-.066l-.066.065-.131.066v-.46h-.132v.263h-.263l-.131-.263-.131-.197-.132.066-.197.131-.263-.197-.066-.065-.131-.263-.132-.131-.197-.394-.066.065-.065.066-.132.131-.131.132-.329-.263-.131.131v.329l-.132.262-.197.132-.394.197-.132.131v.197l.592.46v.197l-.197.065H3.13l-.066.066-.065.066-.198-.197-.131.591-.066.394-.197.262-.591.066.065-.131h.066l.066-.066-.197-.263-.132-.459-.066-.394v-.788l-.197-.197-.723.262.132-.394-.132-.197.395-.591.262-.262.263-.132v-.131l.198-.066.197-.262.197-.066-.197-.263.065-.131.132-.131.131-.132h.263v.132h-.131l-.066.065.263.132.263.065.131-.065.132-.329H3v-.262l-.198-.197.066-.197.197-.197.329-.066v-.197l-.132-.328.263-1.445.132.066.197.065.131.066-.065-.066.065-.328-.197.066-.065.065-.198-.131.592-.591.591-1.051.46-1.182.263-1.51.592-.854.197-.919.197-.591.789-1.379-.197-1.445-.066-1.51-.46-1.51.526-1.97.394-1.051.46-.854v-.197h-.197l.46-.788.066-.394-.132-.394v-.197l.329-.985-.066-.262zm61.978 110.385l.263.263.132.131h-.066l-.132-.065h-.197v.131l.132.197-.263-.066-.526-.328-.197-.328.066-.263h-.263l-.329.131-.197-.262-.132-.46h-.263l-.328.197-.066-.197.197-.591.263-.328h.395l.394.065.329.197.262.657.198-.066.065-.197.066.132.197 1.05zm-2.432.066l.46-.066.066.132-.46.328-.263.131-.263.394-.328.526-.395.328-.591-.394-.526-.591-.526-.394-1.183-1.248-.066-.065-.065-.197v-.132l.066-.065v-.132l-.33-.328-.328-.46.066-.262.263.065.263.263.526.657.263.197.525.262.986.46.46.131h.394l.263.197.132.197h-.592l-.131.46.263.328.328-.065.33-.394.393-.263zm-2.629-3.612l-.262-.131-.395-.328.066-.46.394-.263.395.066.263.328v.394l-.263.263-.198.131zm-1.643 1.117l-.328-.263h-.132l-.131-.066-.132-.197v-.328l-.263-.066-.394-.065-.066-.132.132.066-.066-.197-.263-.328-.394-.263h-.526l-.197.197-.132.066-.262.065.065-.262.263-.46.46-.066.526.132 1.38.985.132.197.197.394.394.262.46.132.658.394.985.853.263.263-.065.131-.132.132.066.131-.132-.131-.46-.329-.394-.197-.263-.131-.131-.197-.132-.328-.263-.132-.197.066-.263-.066-.263-.262zm3.09-1.642v-.919l-.066-.197v-.329l.197-.262.263-.066.263.066.131.328v.263l-.066.262h-.131l-.197-.131v.066l.065.197v.131h-.065l.197.394.197.854-.131.262-.329-.459-.197-.132-.132-.328zm-6.179-.722V213l-.197.328-.197.197-.197-.131-.395-.263-2.234-1.182-.657-.131-.198.459-.263-.131-.525-.525-.395-.46-.131-.657.197-.525.723-.722.329-.394.197-.132.066.197-.198.329-.46.722.066.263.197.262.197.197h.132l.131.066.198.197.197.131.262.066.724.788.328.263h.395l.262-.066.066.131v.197l.132.263.262.131.263-.065-.065-.066v-.131l.131-.132.263.066.394.263zm-3.943-4.991v-.263l-.066-.656.066-1.314.46-1.05.657-.723.197-.065-.328.394-.329.459-.263.526-.066.656.263.526.526.525.197.066.263.065-.066.197-.197.394-.131.46.066.131v.197l.263.197.328-.131.066.066-.132.262-.262.197-.395-.065-.591-.46-.263-.263-.263-.328z" stroke="#183424" stroke-width="1.4" stroke-linecap="round" stroke-linejoin="round"/><path d="M80.354 245.11l.066-.197.328-1.839.197-.591.33-.525.46-.526.59-.262.592-.132h2.3l1.118-.131.591-.197.658-.263.723-.459.657-.657.788-.985.592-.657.657-.393.592-.066h.657l1.249.263 1.38.065.723-.131.657-.329.657-.525.592-.788.263-.591.131-.459-.394-10.31 1.052-7.158-.066-.591-.197-.591-.395-.328-.394-.263-.592-.065-1.774-.132-.46-.131-.197-.066-.066-.065-.263-.657-.986-3.809-.854-2.364-.46-.919-.395-.591-.525-.591-3.681-3.086-.526-.657-.328-.591-.263-.657-.395-1.773-.131-.065-.132-.197-.46-.329-5.06-2.955-.658-.065-.591.197-1.052.853-.394.132-.263-.394-.131-.526-.33-1.313-.393-1.313-1.644-3.284-.197-.656-.065-.657.065-.657.132-.656.526-1.314 1.708-2.823.198-.526.197-.656-.066-.788-.263-.723-.526-.591-.591-.328-3.286-.985-.658-.263-.657-.459-.591-.591-.46-.591-.395-.657-.263-.657-.197-.722-.131-.722-.066-1.379.591-4.269.066-1.773-.066-.853-.394-1.905-.263-.591-.263-.394-.394-.459-.526-.329-.46-.197-.394-.065-.526.065-1.84.329-.592-.066-.46-.328-.131-.526.131-.525.526-.46.591-.328 3.287-.788 7.295-3.48.591-.197h.79l.854.131 1.314.591 2.366 1.51.855.329 1.183.197.657.065.657-.131.592-.197 5.323-2.889.526-.066.526.197.723.525.394.591.263.526.789 2.889.526 1.313.591 1.117 1.578 2.429.657.526.788.459 1.25.197 2.825.132.658.065.591.263.46.328.263.46.066.394v.263l-.066.262.066.526.197.525.46.525 1.775 1.117.46.525.197.591v.657l-.066.656v.591l.263.46.591.197.855-.197.789-.525 2.497-2.036.394-.197.658-.066h.657l.92.329 2.103.985.723.197.657.065.723-.328.132-.46-.066-.656-.131-.591v-.591l.328-.329.526.066.657.525.329.657.46 1.248.657.591 1.052.525 3.549 1.313 3.418 2.627 1.117.394 1.38.197 2.826-.066 11.831-1.773.591.066.657.394.526.394.92 1.445.526 1.313.132.657.065.788v.722l-.263 1.116-.131.394-.986 1.905-.394.919.066.788.262.657.592.525.591.197.658.066 1.314-.263h.723l.592.525.263.657.065.657-1.577 10.638v.919l.131.788.855 3.48.526 3.152-.263 8.34.131.854.329.722.394.591.46.46.329.262.526.263.591.197.657.066h.658l.657-.132 7.032-2.495 1.446-.197 3.352.066 1.249-.132.591-.131.526-.131.395-.197.525-.263.526-.394.592-.525 2.037-2.627.657-.591.789-.46.986-.328.789-.197 4.863-.197 7.953 1.248 2.432.656.723.263 3.746.919 1.249.394.525.394.461.591.197.788.131.723-.591 8.142.131.723.263.722.526.854.657.525.657.328 3.681.985.46.197.263.263.066.066.525.853.46 1.182 1.512 5.91.526 1.248.394.591.46.459 2.432 1.839.066 1.051-.395 1.379-.328.919-.066.131-1.314 1.708-.46.722-.198.525v.46l.066.197.394 1.051v.722l-.065 1.182-.526 2.364-.329 5.319.066 2.824-3.681-.526-1.84.066-.657.328-.526.394-.394.591-.132.591.066.657.723 2.036.131.656.066.657-.066 1.379-.197.722-.394.854-.723 1.116-.723.723-.657.525-5.061 2.233-3.681 2.035-1.248.985-.855.92-.328.722.197.657.526.525.591.46 3.089 1.707.46.525.197.657-.328.854-.526.591-.657.394-3.286 1.182-.789.525-.855.722-3.943 4.006-8.084 6.37-1.117 1.313-2.038 3.152-.723.788-.657.263-.723.065-4.338-1.379-.723-.065-.854.197-1.183.722-2.892 2.43-.592.394h-.131l-.723.197-.592.065h-.657l-1.84-.262h-.132l-.591-.394-.329-.526-.131-.591.131-.591.263-1.247.197-1.314-.065-.656-.132-.657-.263-.657-.46-.591-.526-.459-.525-.394-.855-.46-1.906-.591-.526-.263-.394-.459-.066-.591.132-.657 1.577-3.677.132-.591.197-1.445v-.919l-.132-.591-.197-.591-.328-.526-.526-.459-.592-.132-.591-.065-2.695.328-6.047 1.904-2.168.394-.658-.262-.263-.526-.131-1.247-.131-.591-.263-.526-.592-.328h-.789l-3.023.525-1.117.066-.986-.131-.657-.46-.658-.525-2.168-2.627-2.301-2.036-.394-.394-1.183-1.904-.592-.525-.723-.263-.854.066-1.972.459-3.549.263-.92.131-.066-.656-.066-.854-.197-.657-.065-.591-.46-.459-.198-.329-.131-.525v-.525l-.657.394-.263-.197h-.263l.066.525.262.263.723.262v.197l-.985-.065-.592-.591-.066-1.511-1.248-1.641-.658-2.102-.197-.722-.131-.788-.197-.722-.461-.526-.262-.131-.329-.066-.46-.197-.263-.328-.131-.394-.198-.591-.394-.394-.46-.197-.46-.131-.394-.197-.263-.197-.263-.526-.46-.525-.263-.197-.46-.328-.526-.197-.526-.066-.657-.46-.329-.262-.591-.526-.526-.722-.592-.394-.46-.46-.854-.853-.263-.132h-.197l-.263.066-.263.197-.591-.46-.46-.394-1.184-.722-.854-.657.132-.394.525-.328.657-.131-.262-.263-.395.131-.525.263-.263-.394.328-.525.132-.46-.263-.131-.197.197-.395.065-.131.329.131.131.132.328v.394l.065.263-.197.197-.591-.263-.855.263-1.314-.985-.394-.394-1.118-.854-.263-.656-.328-.263-.526-.197-.46-.328-.46-.394-.526-.329h-.657l-.329-.065-.46.328-.066.46.132.591-1.183.065-.329-.459-.789-.394-.657.197-.657-.657-.395-.722-.591-.854-1.052-.854-.328-1.05.328-.657.198.066.525.394.263-.526-.197-.525-2.103-3.086z" stroke="#183424" stroke-width="1.4" stroke-linecap="round" stroke-linejoin="round"/><path d="M202.8 390.298l1.248-.525 1.183-.066.592.066.394.197.329.263.46.525.329.591.197.657v.591l-.066.591-.854 3.94v.722l.065.788.132.591 1.183 2.036.197.722v.722l-.986 3.087-.263.591-.394.525-.526.394-.526.197-.394.131h-.394l-3.155-.328h-.657l-.592.131-.657.197-1.249.723-1.446 1.116-.526.263-.525-.066-.592-.263-.46-.394-.46-.197-.263.263-.066.591-.197 6.961.132 1.247.197.591.197.657.329.591.525.46.526.328.592.131h3.089l1.183.066 1.249.263.591.197.526.328.46.46.329.59 1.971 5.91.197.92v.788l-.131.788-.986 3.808-.526 1.182-.328.46-.526.525-1.775.985-.525.329-.461.525-.262.525-.526 1.248-.329-.46-.197-.328-.066-.394-.131-.131-.263-.132-.197-.131.131-.46-.526-.065-.591-.197.131-.132v-.065l.066-.066.197-.131-.197-.329-.263-.197h-.328l-.395.132.197-.263.132-.328.066-.263-.198-.197.198-.394-.198-.197-.328-.066-.46.066.065-.394-.065-.591-.197-.591-.263-.394-.132-.328-.197-1.117-.066-.262-.065-.263-.066-1.576-.066-.197-.066-.131-.131-.066h-.197l-.132-.131-.065-.263v-.263l-.066-.197-1.052-.722-.131-.197-.066-.328-.131-.329-.198-.328-.46-.197-.131-.131-.131-.132-.066-.065-.197.065-.263.263-.132.066-.328-.131-.263-.198-.329-.197-.197-.328-.789-1.642-.328-.459-.329-.394-.197-.394v-.394l.066-.591.657-1.97.131-.591.066-.197.131-.131.066-.197-.263-.395-.131-.065-.657-.328-1.183-.329-.263-.919v-.197l-.592-.722-.131-.066v-.328l.065-.329.132-.591.131-.328.132-.263.131-.197.066-.525.131-.657.395-.722-.263-.46-.526-.328-.592-.263-1.183-.328-.525-.394-.263-.788-.46-.657-.066-.262v-.329l.197-.722v-.263l-.197-.591v-.262l-.131-.263-.526-.328-.132-.263-.131-.591-.263-.328-.46-.263-.789-.591.066-.131.066-.329-.066-.328-.329-.46-.065-.262v-.329l-.198-.459.066-.329.197-.328.263-.197.132-.263-.198-.197.066-.328-.066-.328-.197-.263-.065-.394-2.367-.854-.722-.328-1.446-1.51-.658-.394v-.197l.329.065.657.394.132-1.247-.066-1.511-.197-.656-1.315-1.905-.526-.328-1.445-.197h-.592l-.263.328.329.723-.395-.329-.394-.656-.197-.591-.066-.263-.394-.263-1.183-1.707-.855-.525-.197-.197.066-.197.329-.788-.198-.591-.328-.329-.855-.328-1.051-.657-.263-.131-.263-.394-.263-.066-.263-.197-.657-.985-.263-.065-.657-.197-.263-.066-.526-.131-.591-.329-1.315-1.05-.986-1.117.197-.459-.46-.329-.788-.197-.855-.131-.197-.197-.263-.328-.394-.46-.263-.263v-.131l-.263-.197-.92-.854-.46-.197h-.657l-.658.132-.591.197-.263.262-.657-.262-1.183-.723-.658-.262v.394l.198.197.262.131.198.263.131.065.263.132.197.197-.197.131-.46-.131-2.826-1.708-.395-.394-.328-.131-.592-.197-.526-.263-.394-.853-.526-.526-1.511-1.182-.789-.788-1.643-2.692-.592-.46v-.262h.526l.132-.132.131-.262-.46-.066-.329-.263-.657-.591-.197-.328-.197-.919-.132-.329-.92-1.05-.066-.526.461-.722-.986-.328-.395-.066.066.263.131.131.132.131.197.132-.526-.197-.657-.394-.329-.46.198-.46-.263-.131-.132-.197v-.197l.197-.263.132.197.197.197.263.132.394.065-.131-.328-.066-.197v-.197l-.066-.263h-.131l-.197.066-.197-.131-.395-.526h-.131l-.066.526-.591-.394-.855-.591-.526-.788v-.723l.132.197.197.197.197.066.066-.197-.066-.394-.197-.131-.197-.066-.197-.131-.263-.132h-.329l-.263.132-.328.065v-.131l-.789-1.182-.197-.46-.066-.525v-.722l-.066-.263-.394-.263-.131-.328v-.328l-.132-.132-.197-.065-1.183-.854-.329-.328-.131-.854-.263-.591-.066-.328.066-.197.263-.394.065-.197-.197-.394-1.117-1.642-.329-.263-.92-1.444 2.235-1.97.328-.723.066-.985-.263-.853-.394-.46v-.197l.263-.263v-.394l-.46-.985-.395.591-.262.132-.263-.394-.263-.591.197-.197-.46-.657-.132-.919.066-.92-.066-.853-.262-.788v-.46l.591-.197.131-.197.132-.394v-.525l-.197-.329-.197.591-.198.329-.197.131h-.394l-.066-.131v-.263l-.131-.263-.197-.131-.066-.131-.132-.132-.131-.197-.132-.328v-.46l-.131-.262-.329-.197-.065-.132-.132-.262v-.066l-.986-1.248-.854-1.773-.46-2.626v-.591l.789-.263.723.985h.591l.132-.657v-.591l.065-.328.066-.131.394-.263.066-.131.066-.591.263-1.248.065-.591h-.131l-.46 1.051-.132-.46.066-.328.197-.329.066-.459v-1.248l.263-.854.92-1.05.263-1.314.197-.328.263-.197.263-.328.394-.854.46-.525.132-.132v-.394l-.197-.328-.263-.197-.329.066-.197.328-.197.854-.197.328-.658.131-.065-.919.394-1.248-.263-1.707.197-1.707-.197-.854-.197-.394-.789-1.051-.723-1.707-.591-.919-.197-.525.065-.329.789-.722-.066-.263-1.38-1.51-.526-.46-.263.131.066.198.526.525.197.262.066.329.065.328.066.328.197.263-.197.263-.394-.919-.789-1.183-.789-.853-1.445-2.692v-.394l.854.459.92 2.036.46.131.329.197.263-.065.197-.198.197-.328-.329-.394-.46-.919-.263-.197-.197-.066-.263-.197-.197-.328-.066-.328-.262-.526-.526-.197-.657-.197-.461-.262-.591.131-.394-.46-.592-1.313.329-.328.197-.394.197-.46.066-.46-.066-.853-.131-.46-.066-.394-.329-.131-.263.459-.328-.722-.526-.657-.526-.985-.46-.656-.263-.657-.328-.46-.066-.394-.263-.591v-.394l-.197-.919-.395-.722-.328-.92-.132-.591.921-.131 3.549-.263 1.971-.459.855-.066.723.263.591.525 1.183 1.904.395.394 2.3 2.036 2.169 2.627.657.525.657.46.986.131 1.118-.066 3.023-.525h.789l.591.328.263.526.131.591.132 1.247.263.526.657.262 2.169-.394 6.047-1.904 2.694-.328.592.065.591.132.526.459.329.526.197.591.131.591v.919l-.197 1.445-.131.591-1.578 3.677-.131.657.066.591.394.459.526.263 1.906.591.854.459.526.394.526.46.46.591.263.657.131.656.066.657-.197 1.313-.263 1.248-.132.591.132.591.328.525.592.394h.131l1.841.263h.657l.591-.066.723-.197h.132l.591-.394 2.892-2.429 1.183-.723.855-.197.723.066 4.337 1.379.723-.066.658-.262.723-.788 2.037-3.152 1.117-1.313 8.084-6.37 3.944-4.006.854-.722.789-.525 3.286-1.182.657-.394.526-.591.329-.854-.197-.657-.46-.525-3.089-1.707-.592-.46-.526-.525-.197-.657.329-.722.854-.92 1.249-.985 3.68-2.035 5.061-2.233.657-.525.723-.723.723-1.116.395-.854.197-.722.066-1.379-.066-.657-.132-.656-.722-2.036-.066-.657.131-.591.395-.591.525-.394.658-.328 1.84-.066 3.68.526-.262 2.955.065 1.97.197.591.329.459.329.263 1.051.657.592.459.591.591.526.985 1.512 4.86.723 1.641.263.788.854 4.4 3.615 8.734.329.394.394.459.526.46.591.394.657.263.592.197 1.052.197 4.403-.066 6.178.525 1.249.263.723.263.657.328.789.656.394.657.132.657-.132.525-.394 1.314-.197 3.151.065.723.198.788.591 1.182.592.525.657.394 1.249.46.657.065.657-.065 3.352-.92.592-.131.657.066 3.352.656.591.132.526.328.46.46v.131l-.789 4.531v1.248l1.446 10.244v.591l-.131.656-.197.591-.263.657-.329.591-.854 1.116-.329.591-.263.591-.065.591.394 5.122-.197 1.314-1.183 4.399v1.248l.197.657.328.591 7.427 11.097-3.023 1.182-4.469 2.627-.986.328-.855.066-1.774-.657-.789-.131-.788-.066-1.184.197-.92.263-1.774.722-.526.197-.46.066-1.775.066-.986.197-.788.328-.723.46-1.117 1.116-.789.657-5.587 3.086-7.229 6.501-.921.722-1.577.854-.92.263-.789.065-.657-.197-.592-.328-.525-.46-.46-.656-2.892-5.976-.526-.854-1.643-1.379-.526-.197-.723-.131-.591.197-2.629 1.51-.658.263-.591.197h-3.023l-.921.131-.788.197-1.381.591-.854.263-.591-.066-.329-.131-.46-.328-.394-.526-.329-.591-.855-2.495-.46-.657-.591-.525-.855-.394-.722-.066-.658.066-.657.263-.526.394-.46.525-.263.46-.197.328-.131.525-.066.591.066.657.263 1.248.46 1.773.065.919v.328l-.197.788-1.972 3.612-.788 1.97-.395.591-.657.591-.657.328-.657.197-2.761.394-.92.263-.723.394-.591.46-2.169 2.232-.395.591-.065.591.131.526.46.525.592.263 2.103.656.131.066.263.197.329.525.263.591.197.657v.657l-.329 3.086.066.591.526 1.97.066.591-.198 2.495.066.591.132.657.328.591.394.46.329.197 2.169 1.182.723.656 1.775 2.364.591.526.657.328.789.131h.657l.657-.065.592-.197.592-.329.525-.394.329-.591.197-.591.723-3.217 1.775-4.794.788-1.313.329-.394.263-.263.526-.263.591-.065h2.629l.986-.132.789-.394z" stroke="#183424" stroke-width="1.4" stroke-linecap="round" stroke-linejoin="round"/><path d="M296.127 150.685l.329.197 2.431 1.773 1.184 1.116.46.657.394.788.789 2.758.328.853.723.854.592.591 8.084 4.662 1.314.394 2.038.197.657.132.592.328.591.525 1.775 2.167 2.694 2.561 1.183.854.658.263 1.183.262 4.732.132 1.249.262 1.248.46 1.775.985 6.967 5.056.657.329.723.196.657.132h.657l4.207-.788.723.066.591.196.657.394 4.667 4.597.788 1.182.526.591.592.394 9.07 3.612.328.262.395.394.394.591.263.591.197.591.132.985.657 42.093.263 1.444.197.46.394.591.46.591 10.056 7.289 7.164 7.223 1.183 1.445 1.183 1.97 1.183 2.758.657 2.233.46 3.743-.197 6.895-8.084 66.126-7.624 59.625-3.68 1.051-66.448 7.157-7.295-.459-2.695-.657-1.511-.591-2.038-.985-7.887-4.991-.46-.328-11.173-10.31-2.76-4.596-1.578-1.905-.46-.722-.197-.985v-.722l1.117-5.188.526-1.116 1.643-2.693.263-.525.197-.591v-.131l.066-.591-.066-.526-.197-.656-.394-.723-2.3-2.626-1.709-2.233-.92-1.445-1.512-1.838-4.141-3.743-7.427-11.098-.328-.591-.197-.657v-1.247l1.183-4.4.197-1.313-.395-5.122.066-.591.263-.591.329-.591.854-1.117.329-.591.263-.656.197-.591.131-.657v-.591l-1.446-10.244v-1.248l.789-4.531v-.131l-.46-.46-.526-.328-.591-.131-3.352-.657-.658-.066-.591.132-3.352.919-.657.066-.657-.066-1.249-.46-.657-.394-.592-.525-.592-1.182-.197-.788-.065-.722.197-3.152.394-1.313.132-.526-.132-.657-.394-.656-.789-.657-.657-.328-.723-.263-1.249-.262-6.178-.526-4.403.066-1.052-.197-.592-.197-.657-.263-.591-.394-.526-.459-.394-.46-.329-.394-3.615-8.734-.854-4.399-.263-.788-.723-1.642-1.512-4.859-.526-.985-.591-.591-.592-.46-1.051-.657-.329-.262-.329-.46-.197-.591-.065-1.97.262-2.955-.065-2.824.328-5.319.526-2.364.066-1.182v-.722l-.394-1.051-.066-.197v-.459l.197-.526.46-.722 1.315-1.707.065-.132.329-.919.394-1.379-.066-1.051.592-1.182 1.84-2.889.395-.394.788-.591.658-.263.657-.131.591.131 3.024 1.511 1.248.459 2.038.526 5.126.525h1.381l4.074-.591 1.315.066 2.235.591h.525l.592-.132.657-.328.723-.591.526-.788.46-1.116.066-.854-.197-.722-.789-1.314-.263-.591-.132-.656.132-.788.394-.854 2.761-3.612 2.694-2.758.723-.459.658-.329 9.464-2.298 1.117-.525.723-.46 1.512-1.445 2.037-1.313.592-.657.526-.853 1.051-2.102.789-1.05.46-.46.329-.328.46-.329.591-.262.592-.197.657-.132h1.314l6.047.788 6.77-.459 2.563.197.591-.066.526-.197.329-.46.197-.591.131-.656.066-.92v-1.116l-.263-1.839-.328-1.116-.395-.919-.788-1.445-.198-.722.132-.92.328-1.444-.131-.985-.066-.132-2.169-2.955-2.497-4.202-.723-.854-2.235-2.233-.46-.656-.328-.591-.132-.657v-.657l.592-4.137v-1.379l-.198-1.444.066-.722.526-.723.657-.394.657-.197 1.118-.263.328-.131.46-.459 2.104-3.021 1.051-1.182 1.249-1.182.723-.525.723-.394 1.38-.46.657-.328.526-.46.395-.525.197-.526.131-.394v-.525l-.066-.591-.197-.657-.263-.722-.328-.657-.46-.656-.592-.591-1.183-.985-1.249-.92-1.84-.788-.197-.394-.263-1.116-.066-.722.066-.657.066-.591.328-.985.395-1.051.788-1.247.723-.985.921-.788.394-.329h.066l1.643-.656.525.459.132.197.066.066.394.525.526.394.591.263.658.066.723-.329.591-.328 1.183-1.707z" stroke="#183424" stroke-width="1.4" stroke-linecap="round" stroke-linejoin="round"/><path d="M214.036 242.876l-2.431-1.838-.46-.46-.395-.591-.526-1.248-1.511-5.91-.46-1.182-.526-.853-.066-.066-.263-.263-.46-.197-3.68-.985-.658-.328-.657-.525-.526-.854-.263-.722-.131-.723.592-8.142-.132-.723-.197-.788-.46-.591-.526-.394-1.249-.394-3.746-.919-.723-.263 1.117-.985 1.118-.394 1.708-.197.986-.262 4.535-2.496 1.052-.459.92-.263 2.76-.263.658-.197.46-.459.197-.46-.132-.525-.131-.394-1.314-2.43-.198-.722-.065-.657.131-.788.394-.657.723-.788.658-.328.591-.066.46.132 2.235.853.723.197h.657l.526-.131.329-.525.131-.526v-.525l-.066-.263-.526-2.561v-1.313l.132-.591.46-1.379.657-1.313.395-.46.591-.328h.592l.657.065.723-.065 1.314-.329.592-.262.394-.591.197-.657.46-1.116.789-1.379 3.352-3.875 7.427-6.041 3.418-2.233 6.506-2.758.986-.656.592-.723.394-.722 1.183-2.561.986-1.248 1.38-1.379 2.169-1.379 10.713-5.516 1.446-.525.657-.197h.657l.592.066.657.262.657.329 1.052.919 2.037 2.167 3.615 2.955 1.249.722.657.197 2.958.197 1.906.394h.657l.526-.131.526-.328.394-.263 2.169-3.021 1.183-1.116 1.84.788 1.249.919 1.183.985.592.591.46.657.328.657.263.722.197.657.066.591v.525l-.131.394-.198.525-.394.526-.526.459-.657.329-1.38.459-.723.394-.723.526-1.249 1.182-1.051 1.182-2.104 3.02-.46.46-.328.131-1.118.263-.657.197-.657.394-.526.722-.066.723.198 1.444v1.379l-.592 4.137v.657l.132.657.328.591.46.656 2.235 2.233.723.854 2.497 4.202 2.169 2.955.066.132.131.985-.328 1.444-.132.92.197.722.789 1.445.395.919.328 1.116.263 1.839v1.116l-.066.92-.131.656-.197.591-.329.46-.526.197-.591.066-2.563-.197-6.77.459-6.047-.788h-1.314l-.657.132-.592.197-.591.262-.461.329-.328.328-.46.46-.789 1.05-1.052 2.102-.525.853-.592.657-2.037 1.313-1.512 1.445-.723.46-1.117.525-9.464 2.298-.658.329-.723.459-2.694 2.758-2.761 3.612-.394.854-.132.788.132.656.263.591.788 1.314.198.722-.066.854-.46 1.116-.526.788-.723.591-.657.328-.592.132h-.526l-2.234-.591-1.315-.066-4.075.591h-1.38l-5.126-.525-2.038-.526-1.248-.459-3.024-1.511-.591-.131-.658.131-.657.263-.788.591-.395.394-1.84 2.889-.592 1.182z" stroke="#183424" stroke-width="1.4" stroke-linecap="round" stroke-linejoin="round"/><path d="M170.003 109.444l3.286 1.379 1.643.394h.657l15.051-3.481 2.038-.262 1.183.065.92.132 6.901 2.232.986.197h.723l.723-.131 3.483-.854 3.023-.197.723.066 9.728 2.233 1.314.525.592.394.657.591 3.417 4.137.855.657.986.656 1.38.526 1.052.131.92-.066.854-.197.789-.328 2.3-1.248.789-.394.854-.131h.986l.592.328.263.263.065.263.132 2.429.065.394.198.723.394.985.657.722.986.657.789.197.723.065 2.826-.262.986.065.788.263 3.024 1.576 1.117.394.723.066.657-.132 1.118-.525 3.286-2.167.788-.328.986-.066.789.263.657.525.46.657 4.798 8.668 2.366 6.304.986 1.379.723.656.723.591.986.46.789.263 8.741 1.379.986.328 1.249.722.657.46 4.732 4.268.723.854.394.919-1.643.657h-.066l-.394.328-.92.788-.723.985-.789 1.248-.394 1.051-.329.984-.065.591-.066.657.066.722.262 1.117.198.394-1.183 1.116-2.169 3.021-.395.262-.525.329-.526.131h-.657l-1.906-.394-2.958-.197-.657-.197-1.249-.722-3.615-2.955-2.037-2.167-1.052-.92-.657-.328-.657-.263-.592-.065h-.657l-.657.197-1.446.525-10.713 5.516-2.169 1.379-1.381 1.379-.985 1.248-1.183 2.561-.395.722-.591.722-.986.657-6.507 2.758-3.417 2.233-7.427 6.041-3.352 3.874-.789 1.379-.46 1.117-.197.656-.395.591-.591.263-1.315.328-.723.066-.657-.066h-.591l-.592.329-.394.459-.657 1.314-.46 1.379-.132.591v1.313l.526 2.561.066.263v.525l-.132.525-.328.526-.526.131h-.657l-.723-.197-2.235-.854-.46-.131-.592.066-.657.328-.723.788-.394.657-.132.788.066.656.197.723 1.315 2.429.131.394.132.526-.198.459-.46.46-.657.197-2.76.263-.92.262-1.052.46-4.535 2.495-.986.263-1.709.197-1.117.394-1.117.985-2.432-.657-7.953-1.247-4.863.197-.789.197-.986.328-.789.46-.657.591-2.037 2.626-.592.526-.526.394-.525.262-.395.197-.526.132-.591.131-1.249.131-3.352-.065-1.446.197-7.032 2.495-.657.131h-.658l-.657-.065-.591-.197-.526-.263-.329-.263-.46-.459-.394-.591-.329-.723-.131-.853.263-8.34-.526-3.152-.855-3.48-.131-.788v-.92l1.577-10.638-.065-.656-.263-.657-.592-.525h-.723l-1.314.262-.658-.065-.591-.197-.592-.526-.262-.656-.066-.788.394-.92.986-1.904.131-.394.263-1.116v-.723l-.065-.788-.132-.656-.526-1.314.46-.328.461-.657.525-1.05 1.643-5.122.855-1.708 1.314-1.773 3.484-3.02.526-.591.46-.657.262-.657.066-.656-.131-.657-.592-.722-.657-.591-3.418-1.839-1.117-.722-.394-.46-.46-.591-.329-.591-3.089-12.542-.263-.722-.394-.657-1.643-1.642-3.352-2.758-1.709-.853-.855-.591-.657-.657-.131-.131-.592-.723-1.051-.591-1.578-.591-9.135-2.167-.658-.262-.46-.329-.526-.656 3.09-3.415.657-.46.723-.459 10.713-5.122 4.929-1.379 10.516-5.976 10.779-4.465.591-.066 1.775.46zm42.263 255.837l-1.38 4.662.066.788.197.919.723.723.328.525.132.722-.197.723-.658.919-.591.591-3.352 2.364-.657.591-.395.788-.263.854-.131 2.101-.46 1.51-2.826 6.238-.789.394-.986.132h-2.629l-.591.065-.526.263-.263.263-.329.394-.788 1.313-1.775 4.794-.723 3.217-.197.591-.329.591-.525.394-.592.329-.591.197-.658.065h-.657l-.789-.131-.657-.328-.591-.526-1.775-2.364-.723-.656-2.169-1.182-.328-.197-.395-.46-.328-.591-.132-.657-.066-.591.198-2.495-.066-.591-.526-1.97-.066-.591.329-3.086v-.657l-.197-.657-.263-.591-.329-.525-.263-.197-.131-.065-2.103-.657-.592-.263-.46-.525-.131-.525.065-.591.395-.592 2.169-2.232.591-.46.723-.394.92-.262 2.761-.394.657-.197.657-.329.658-.591.394-.591.789-1.97 1.971-3.611.197-.788v-.329l-.065-.919-.46-1.773-.263-1.248-.066-.656.066-.591.131-.526.197-.328.263-.46.46-.525.526-.394.657-.263.658-.065.723.065.854.394.592.526.46.656.854 2.496.329.591.394.525.46.328.329.132.591.065.855-.262 1.38-.591.789-.197.92-.132h3.023l.591-.197.658-.262 2.629-1.511.591-.197.723.132.526.197 1.643 1.379z" stroke="#183424" stroke-width="1.4" stroke-linecap="round" stroke-linejoin="round"/></svg>